<mxfile host="65bd71144e">
    <diagram id="zSwWoqIbelI7bVc0KOTF" name="Page-1">
        <mxGraphModel dx="1174" dy="787" grid="1" gridSize="10" guides="1" tooltips="1" connect="1" arrows="1" fold="1" page="1" pageScale="1" pageWidth="850" pageHeight="1100" math="0" shadow="0">
            <root>
                <mxCell id="0"/>
                <mxCell id="1" parent="0"/>
                <mxCell id="27" value="" style="rounded=0;whiteSpace=wrap;html=1;fillColor=#F3901D;opacity=20;strokeColor=none;" parent="1" vertex="1">
                    <mxGeometry x="385.77" y="260" width="110" height="60" as="geometry"/>
                </mxCell>
                <mxCell id="26" value="" style="rounded=0;whiteSpace=wrap;html=1;fillColor=#F3901D;opacity=20;strokeColor=none;" parent="1" vertex="1">
                    <mxGeometry x="257.15999999999997" y="260" width="110" height="60" as="geometry"/>
                </mxCell>
                <mxCell id="22" value="" style="rounded=0;whiteSpace=wrap;html=1;fillColor=#F3901D;opacity=20;strokeColor=none;" parent="1" vertex="1">
                    <mxGeometry x="523.08" y="260" width="110" height="60" as="geometry"/>
                </mxCell>
                <mxCell id="23" value="" style="rounded=0;whiteSpace=wrap;html=1;fillColor=#F3901D;opacity=20;strokeColor=none;" parent="1" vertex="1">
                    <mxGeometry x="650.34" y="260" width="110" height="60" as="geometry"/>
                </mxCell>
                <mxCell id="19" value="" style="rounded=0;whiteSpace=wrap;html=1;fillColor=#F3901D;opacity=20;strokeColor=none;" parent="1" vertex="1">
                    <mxGeometry x="120" y="260" width="110" height="60" as="geometry"/>
                </mxCell>
                <mxCell id="8" value="" style="shape=image;imageAspect=0;aspect=fixed;verticalLabelPosition=bottom;verticalAlign=top;image=data:image/png,iVBORw0KGgoAAAANSUhEUgAAAwoAAAIkCAYAAAC+6dzTAAAAAXNSR0IArs4c6QAAAARnQU1BAACxjwv8YQUAAAAJcEhZcwAAMsAAADLAAShkWtsAANxaSURBVHhe7J0HeBRVF4ZJ7z2UJPTee5XeQQRUBARRARWlqWDDjlIFVECQoogFVBQbKKACgoJUESmKoCIdQSlKtZ3/fmdnY8i/CdnU2ez3+pwnYc3Mzsyde+/5bjmnAMl+hBBCCCEkD7FcEkKI3bDqKCGEEEJInmC5JIQQu2HVUUIIIYSQPMFySQghdsOqo4QQQggheYLlkhBC7IZVRwkhhBBC8gTLJSGE2A2rjhJCCCGE5AmWS0IIsRtWHSWEEEIIyRMsl4QQYjesOkoIIYQQkidYLgkhxG5YdZQQQgghJE+wXBJCiN2w6ighhBBCSJ5guSSEELth1VFCCCGEkDzBckkIIXbDqqOEEEIIIXmC5ZIQQuyGVUcJIYQQQvIEyyUhhNgNq44SQgghhOQJlktCCLEbVh0lhBBCCMkTLJeEEGI3rDpKCCGEEJInWC4JIcRuWHWUEEIIISRPsFwSQojdsOooIYQQQkieYLkkhBC7YdVRQgghhJA8wXJJCCF2w6qjhBBCCCF5guWSEELshlVHCSGEEELyBMslIYTYDauOEkIIIYTkCZZLQgixG1YdJYQQQgjJEyyXhBBiN6w6SgghhBCSJ1guCSHEblh1lBBCCCEkT7BcEkKI3bDqKCGEEEJInmC5JIQQu2HVUUIIIYSQPMFySQghdsOqo4QQQggheYLlkhBC7IZVRwkhhBBC8gTLJSGE2A2rjhJCCCGE5AmWS0IIsRtWHSWEEEIIyRMsl4QQYjesOkoIIYQQkidYLgkhxG5YdZQQQgghJE+wXBJCiN2w6ighhBBCSJ5guSSEELth1VFCCCGEkDzBckkIIXbDqqOEEEIIIXmC5ZIQQuyGVUcJIYQQQvIEyyUhhNgNq44SQgghhOQJlktCCLEbVh0lhBBCCMkTLJeEEGI3rDpKCCGEEJInWC4JIcRuWHWUEEIIISRPsFwSQojdsOooIYQQQkieYLkkhBC7YdVRQgghhJA8wXJJCCF2w6qjhBBCCCF5guWSEELshlVHCSGEEELyBMslIYTYDauOEkIIIYTkCZZLQgixG1YdJYQQQgjJEyyXhBBiN6w6SgghhBCSJ1guCSHEblh1lBBCCCEkT7BcEkKI3bDqKCGEEEJInmC5JIQQu2HVUUIIIYSQPMFySQghdsOqo4QQQggheYLlkhBC7IZVRwkhhBBC8gTLJSGE2A2rjhJCCCGE5AmWS0IIsRtWHSWEEEIIyRMsl4QQYjesOkoIIYQQkidYLgkhxG5YdZQQQgghJE+wXBJCiN2w6ighhBBCSJ5guSSEELth1VFCCCGEkDzBckkIIXbDqqOEEEIIIXmC5ZIQQuyGVUcJIYQQQvIEyyUhhNgNq44SQgghhOQJlktCCLEbVh0lhBBCCMkTLJeEEGI3rDpKCCGEEJInWC4JIcRuWHWUEEIIISRPsFwSQojdsOooIYQQQkieYLkkhBC7YdVRQgghhJA8wXJJCCF2w6qjhCTzzz//yIWLF+T8+fM0Go12iV24cEHbCEKyE8slIYTYDauOEpLMhQvn5fCRw7L3573y876fZf/+/TQazUtt3/59as7fDx8+LOfOnbNai//4999/rd8IcR/LJSGE2A2rjhIvByOE6PyPHTsmO7/dKSs/+0w+WvKRLFm6RJZ9vIxGo9Fk2bJlsnLlSvnuu+/kzJkzVutBSNaxXBJCiN2w6ijxco4fPy4ff/KJTHrmabn/gftl4KCBcsstt8itt90qAwYMoNFoXmu3yW2WoU0YNGiQPPnkk/Laa6/J2rVrte0gJKtYLgkhxG5YdZR4Odu3b5d77rtXypQvJxFRURITEyPR0dFq+J1Go3m3oS0IDw+X2NhYKVeunLRp20YefexR2fL1FqsVISTzWC4JIcRuWHWUeCl//f2XnDh5UpcVdLm6KxprGo1Gu6zFxcfJ1VdfLR9++KH8+eefVotCSOYw7xQhxI5YdZR4KSdPnZSt276RWbNnS/OWLZKdAP/AAAkJC5WQ0FAJDg1JthA1x+c0Gi0/23/1PrU524k6derIzJkz5eDBgyoWuKGZZBbzPhFC7IhVR4mXcuTIEVmxcoWMGTtWGjZsmOwAxMTFSuHEIlI4oYgUKlL4EitYuBCNRsvvlqrew4okJuhPXz9fbSfKlC4t48aNk507d8rvv/8uf//9t9WyEOIe8EcIITbEqqPESzl0+JB8/MnHMvLJJ6Re/XqXCAU4BRAL6iQkOByF+EIFJdr8v8iY6GSLotFoHm0p67PW6dgYiSsYr3VeBwuM4adTKPhYQqFUqVIyZswY2bFjB4UCyRLwRwghNsSqo8RLQUz0Tz79RJ4c9aQ0aNAgWShEG0fBOZuQcpQxNj5OIqKjJDQiXC0sMoJGo+UTc9br8KhIHRBAnU/ZBqBNwE9fPz9tJ7Cp+amnnpJvv/1W/vjjDyZiI5kG/gghxIZYdZR4Kc4ZhSeefELqN6ifplDAT+fv8bBCBWk0Wj6zuGSL15/4zCkSChWhUCA5B/wRQogNseoo8VJ0RuET54yCa6HgNPy7aPFiUrZcWalYuaKxSlKhUkUajebhVjHF7+UrVpAypo4nFSvqEA8F45MHCygUSE4Bf4QQYkOsOkq8lPSWHsExcI40JiQlSumyZaROvbrS6apO0qt3L7WePXsa60Gj0TzWTB2+/j/rYf7dqfNVUrN2Ld2TgOWGzpkFtAkUCiQngD9CCLEhVh0lXkpaQiEmNladg4ioSImKjZaSpUvJFY0bS/9bbpHpz0/X2OkfLflI3nv/PXnvPRqN5sn2/vvvGzM/PzA/jc2cNVNu6HODDg5g0ADBDSAYIBJUKPhTKJDsBf4IIcSGWHWUeClpCgU4BgXjJCg0WMIiw6VcxfLS9eqrZeLEieoUOEGUk7/++otGo3mwoR7DkAcBtnvPbnl85EipUq3qf9GRjGDAvgUIBT8KBZLNwB8hhNgQq44SLyVdoRAfJ4EhQRIaEaZrl7tdd51MmzZdDh06ZB1NCMmPHDt2TMaNHy/ValS/JGyqc7+Cc0ahfPny8vTTT8sPP/wgFy5csI4mxH3gjxBCbIhVR4mXklGhgA2O11x7rTzz7LPqFBBC8i8/79snT44eJVWrV0vOs5ByRsG5R6FChQoyefJk2Wf+HjMThGQW+COEEBti1VHipWRk6ZFTKFx9zTU6evj9999bRxNC8iM//vSThkxOUyikWHo0YcIE+e677+TUqVNy7tw5+fPPP+XixYs6w+COnT9/PtlwPJcxeRfwRwghNsSqo8RLoVAghKTmckLBz99f24mSJUvKQw8/JKtWr5Lvdu2Sn8xx+/fv1xmGvXv3um04Hnb0yFEVD8R7gD9CCLEhVh0lXgqFAiEkNZcTCoFBgdpOJCUlyi233CIvvPiCvPveu/LhRx/KsmXLZOnSpbJkyRK3bfHixRpRbfXq1drOHD9+XGcYsMGa5G/gjxBCbIhVR4mXQqFACElNmkLB2swcERmhYqFQoUJyReMrNBdD//79ZcCAAXLHHXfI7bffnim79dZb5bbbbpM777pLoy698OKLsnHjRjlz5ox1ZSS/og4JIcR+WHWUeCkUCoSQ1LgSCrDkXApGIEA0xJp2IjomRqKjzf8zP+Pi4iQ+Pj7TFhtr2h1jBQsWlMSiSdKsRXOZ+txzcuDAAevKSH5FHRJCiP2w6ijxUigUCCGpuZxQKJxYRLM2o51w7lfICcP577zrTtmwYYOcPHmSkZXyMaa8CSF2xKqjxEuhUCCEpOZyQqFQkcJSOKGIzioge3tIaIgEh2TA8HeX/G2wBFmG352fF/Dx0XYoNCxUuvfoLvPnz5cdO3ZoUjeSP4E/QgixIVYdJV4KhQIhJDWXXXqUTQbBkdIgPmDhERHaDoUY0dCuXTuZ+PREjax04sQJ6wpJfgP+CCHEhlh1lHgpFAqEkNRkZEYBht8xqxBjPo82bQY2PEfFOjY+p2U4D35ecq4Eh2E5U2Fj4ZEOoRAUFCQtW7aU0WNGy6fLP5Vff/3VukKS34A/QgixIVYdJV4KhQIhJDUZFQrxhQqqQMD/C4+KlDDj4IdGhGfIcIwzipLTVDCY84ab/492KCQkWFq1auUQCp9SKORn4I8QQmyIVUeJl0KhQAhJTUaWHkEkpDTkWHBYfIrfXZgRB/gZX7hgsuCAuRYKIdKqdSsZM3YMZxTyOfBHCCE2xKqjxEuhUCCEpMaVUMBPp1CAo4/lRvHm96TixaRU2dJStnw5KVehvLYV5Suan/g9tZnPK+D/m99LlSktSUWTdE+CUyw4fw9LIRTatG0j458aLys/Wym//fabdYUkvwF/hBBiQ6w6SrwUCgVCSGrSFArWUqHo2BhdZoT9BLXr1pH2HTpI16u7yrXdrpXrrrtOul3XTbp1c2Hm8x49e+jPlq1bSZVqVaV4yRIqEDArobMKqWYU2rZrKxMnTpTPVn1GoZCPgT9CCLEhVh0lXgqFAiEkNS6FghEHzj0FIWGhUsDXR0qULCn9+veXadOnyfzX58uCtxbIO++8IwsXvi1vv/3/tnDhQlm0eJH+/uSoUdLFiIuqNapLkaQEiYiONN8Rree/NOqREQqTKBTyO/BHCCE2xKqjxEuhUCCEpCZNoWCN+vv5+2k7Ub58eR3t37Vrl5w+fVrOnz+vSdH+/PNPuXjx4v+ZM2Eafl++YrncedddckWTxpJQNDG5rcHeBWfUI+eMwoSJEygU8jmmvAkhdsSqo8RLoVAghKTmckLBx9dX24kKFSrItGnT5MiRI9aRGWfT5s1y/4gHpGmLZioUAkICJSQ8VJcgUSh4H6a8CSF2xKqjxEuhUCCEpOZyQsHX778ZhUmTJsmePXvkwoUL1tEZY82aNTL83nukSbOmKhQCQ4I4o+DFmPImhNgRq44SL4VCgRCSmowuPSpXrpw89dRT8u2338off/wh//zzj3WGy7P689Vy9/Bh0rhpEy49IhQKhNgVq44SL4VCgRCSGgoFktuY8iaE2BGrjhIvhUKBEJIaCgWS25jyJoTYEauOEi+FQoEQkhoKBZLbmPImhNgRq44SL4VCgRCSGgoFktuY8iaE2BGrjhIvhUKBEJIaCgWS25jyJoTYEauOEi+FQoEQkhoKBZLbmPImhNgRq44SL4VCgRCSGgoFktuY8iaE2BGrjhIvhUKBEJIaOwmFdu3aycRJE2XV6lVy4uQJ62iS3zDlTQixI1YdJV4KhQIhJDW2FQonKBTyK6a8CSF2xKqjxEuhUCCEpMYuQiE4OFjatm0jEyY4lh5xRiH/YsqbEGJHrDpKvBQKBUJIavJWKBSS8AiHUAgKCpJWrVrJuHHjZMWKFZfMKPz1118Zsr///tut6yJ5gylvQogdseoo8VIoFAghqcnrGYXIqEg9P5YeNWzYUO6++26ZO3eubNiwQX4y17Z7927Zvn17hm3nzp2ya9cu+fHHH2X/gf1y7PgxOXP2DAWEjTDlTQixI1YdJV4KhQIhJDV5JRRCwkMl3nxHbHychIaHqWAoVaqUNGrYSLp27SoDbhsgw+4eJnfddZcMHjxYBg8a5PiZlqX4/0OHDpVhw4bJiIcelCnTpsqatWvk1KlT8u+//1pXRPIS+COEEBti1VHipVAoEEJSk2dCISzUfEe8FCpSWC2uYLyER4RLYGCgBAYE6AxDaGioe2aOwV4HPTYszLRtcdKoSWN5ZvKzOjNx7tw5zizYAPgjhBAbYtVR4qVQKBBCUpOnQsGIg8IJRaRIUqJ+Fz5ztkvZZTjvbQMGyKJFi+SHH36Q8+fPW1dF8gpTLoQQO2LVUeKlUCgQQlKT10LBOaOA70JbFBkVpZGQwiLCJSzcMvyeQcPmaPz0ta473BzfqnVreXzkSPn4k0/k5MmT1lWRvMKUCyHEjlh1lHgpFAr2AA4WIrRcvHhRRzexHOLceZj5nWZzM+VkygvlduHCBbn450WNtOPJ2EEo4HtgTtFQKKGIMev39Ax/k+rviiQm6CwFljHhurEUqXqNGtL/lltk3vz5cuzYMeuqSF5hyoUQYkesOkq8FAoFewCBcPLUKdl/4IB8t+s72b5jh+z4dqfsNA4Yzd6Gctqxc4d8a8rthx9/lEOHD8mZM2eskv0PT9o0azehUNg4+nD23TEIA5geb/0eERUpPn4+EhYepvfW58Yb5eWXX5ZffvnFuiqSV8AfIYTYEKuOEi+FQiHvwUj0ASMQtmzZomWx4K235LX582T+G6/L62++QbO5oZzmvT5f3nxrgby/6ANNDIY64snr3u0kFLLDnOeLjI4S/6AAcy/RUqNWTQoFGwF/hBBiQ6w6SrwUCoW8488//9S10Vu3blVn5ZFHHtEwjlgOcVPfm6Vvv77Sr38/ms2tb79+crMpq/639JfbBtwmw4zzO236NFm9erX8/PPP8oeL2QW7Y4fNzDCncx8cEiz+AQG6x8DXz9cy87v+22mOz3FtAYGBGl4VYVZTnysgOFCi42Kkes0ackOfPpqfgUIh74E/QgixIVYdJV4KhULegGUoyDL7zTffyAsvvCBdunSRxMREiYmJkcKFC0uhQoWkkPmJ32n2NpRTIYxamzJD+SUkJEjLli1lxIMPytsLF2qCME/DDkIBUY+QUyE4JCS5XXLHfHx89NqdS5Ewq+AUCphRqF7TMaMwlzMKtsCUGSHEjlh1lHgpFAp5A4TC3r175YMPPpDhw4dLqdKlkp89zfMt1tSfZs2by4MPPSTr16+3St1zyDOhYCVcw3fExcfrc4TFG/GQlJQkZcuWlYoVK0qFChWkfPnyl5jzcyRog1grWNCRuC02Li75nCmFgnPpEYWCPTDvEyHEjlh1lHgpFAp5AxyqzZu/komTJulzLVSkUPKzx7IJjKIGBQcbC6J5kKHsAq2fEZGR0qZtWxWDnkZeCQUsF4JTH22+C88QYU2rmWu4rvt1cv8D98uMGTPkjddfl9dee01enPOivPDiC2ovzX1J5s+fL6+++qpMMnXqzjvvlI4dO0qxYsUkICBAQsNCpWChQnovFAr2xLxPhBA7YtVR4qVQKOQNcKiwhv3e++6TZi2aS3zheCngW0D8gwOMM+ZYepHdGzppOW/OtfBYK496hJFuOLWeRp4JBdPWxBcuqDkTcP4QI5Zbt24lY8eNlZUrV8qpU6eso0UuXLwg5y+c159///NfOFrsC3n/g/d1rwiuD+dBeUCAQCBQKNgTU06EEDti1VHipVAo5A1wqNasWSMPPfywtGzVyjzvmORnD6cMSyaiTRlgZJVmczPlhPoCRxoObkjof2vqK1eprCPdnkbeCoVCOpOA8yPfQfsO7WXylMmycdPGDJ3/txO/yfIVy+XBhx/SpUg4D/YrOIRCDIWCTTHlRAixI1YdJV4KhULeAIfn66+/Ng7QFOneo4ckJCYkP/uQ8DAJj4qUMON0hkaE02xuKKcwU14otwK+PsnlGGE+b9++vSxatMgqdc/BNjMKISHStl1bmThpos7AnTx1+QzK+/bvkw+XfCT3PXB/slDgjIL9MeVECLEjVh0lXgqFQt6Azcw/7d0rixYvkkcffVSaNWsm8XHxOpKKZx8TD4szZRBPs73FaVlFx8ZKaFiYREZGSpkyZdTBffiRh2XDhg1WqXsOdhIK7dq1U6GwatUq+e2336yjXYPv3/vzz7L4IwoFT8OUEyHEjlh1lHgpFAp5x5mzZ3X0c+myZfLwww9Lp06dpFbtWlK6bBkpWqK4lCpTWsqUK0uzuaGcipcqKSVLl9J/161bV3MrIOztuvXr5NixY1aJew52m1GYMHGCJrLLuFD4kELBwzDlRAixI1YdJV4KhULec+DgAY2MM2bMGLnl1lulU+erpE3bNtLxyo5ylfm9szH8pNnLnOVyZacrpV2H9tLR/Lym27Vy+x13qEjYvXu3/PXXX1YpexYUCiS3MeVECLEjVh0lXgqFQt5z7tw52bNnj3zxxRfy3nvvycuvvKKhH+e+PFdeefUVh5nPaDYzq2yQVXvOSy+pwzlv/nz5YNEi3X8Cx9lToVAguY0pJ0KIHbHqKPFSKBTynn/+/Uf+/PNPOX/+vJw9e1bOnDmjTtcfZ/7Q32n2NpSTo7wc/0YZXrx40S2n2W5QKJDcxpQTIcSOWHWUeCkUCoSQ1FAokNzGlBMhxI5YdZR4KRQKhJDUUCiQ3MaUEyHEjlh1lHgpFAqEkNRQKJDcxpQTIcSOWHWUeCkUCoSQ1FAokNzGlBMhxI5YdZR4KRQKhJDUUCiQ3MaUEyHEjlh1lHgpFAqEkNRQKJDcxpQTIcSOWHWUeCkUCoSQ1FAokNzGlBMhxI5YdZR4KRQKhJDUUCiQ3MaUEyHEjlh1lHgpFAqEkNRQKJDcxpQTIcSOWHWUeCkUCoSQ1FAokNzGlBMhxI5YdZR4KRQKhJDUUCiQ3MaUEyHEjlh1lHgpFAqEkNRQKJDcxpQTIcSOWHWUeCneKBQuXLggp06dUqfj199+lV9/pdGybnifTpw4IadPn9Z3zJOhUCC5jSknQogdseoo8VK8TSj8+++/cujQIdmwcYOsWLlCli9fLp8u/1QNv9No7hreHdQhvE9wfjd9tVkOmncsNXj3PAUKBZLbmHIihNgRq44SL8VbhMJff/0lv//+u3Ei9sryFctlxswZMm78OBkzdoza6DGjk3+n0dwxvDujRo+SseZ9mvj0JJn1wmxZ+dlKOXb8uPX2eR4UCiS3MeVECLEjVh0lXoq3CIXjxmlbumyZjDdOze133C5du3aV1q1bS6vWrS75SaO5a3h3WrUy708b829jXa7uKvfce6/Mnz9fNm3erO+ep0GhQHIbU06EEDti1VHipXiLUPhu13fywIMjpGq1ahJr7i08PFyCgoIkODhYnREaLauGd8nPz09CQkOkYsWK0r1HD5k0aZJs3brVegs9BwoFktuYciKE2BGrjhIvxRuEwj///iNrv1wrPa/vKf4BAcn3SKPllEGElipdWvr06SOffvqp9SZ6DhQKJLcx5UQIsSNWHSVeSn4XCn///becPHlSPvroI+l45ZXJ9xcSFioRUZEOi6TRsmjWewQHFwbHFO9ZnTp1ZMGCBdbb6DlQKJDcxpQTIcSOWHWUeCn5XSj8+eefcuzYMXn//felXbt2yfcXHROjDg+cBxotu8z5TvlYQgGO6muvvWa9jZ4DhQLJbUw5EULsiFVHiZfiDUuPzp07Z+7xU+nQsUPy/RXw8RH/AH81P38aLXvMx9fXOKUOJzowMFCaNWsm7777rvUmeg4UCiS3MeVECLEjVh0lXoq3bGbetGmT9LrhBgkICkq+RxotpywyMlKqVa8uA26/XVatWmW9hZ4DhQLJbUw5EULsiFVHiZfiLULhx59+lInm2jte1Umq1agupcuUlqSkJClarJgUL16cRsu0FYMVc/xMTEyS0qVLS4uWLWXo0KHy0ksvya5du6y30HOgUCC5jSknQogdseoo8VK8RSgg2drXW7fK2wvf1uRYffv1lWvM/VzbrZtc1707jZZ5u+466WYMv3c31rdfPxk/frx8uny5/GQcbjjQngaFAsltTDkRQuyIVUeJl+ItQgEOxLnz5+TQ4UOyavUqmTV7ljw14SmZOGmiTDL3BHv6mWdoNLdN359Jk/T3ZydPltkvvCArV670yERrTigUSG5jyokQYkesOkq8FG8RCuBf89+Fixfk8JHDsn3Hdtm8ebNs/uor+WrLFhot84Z3yNgW8/uWr7+WHTt2yKFDhzTilqdCoUByG1NOhBA7YtVR4qV4k1Bw8u+/RjLQaDlsngyFAsltTDkRQuyIVUeJl+KNQoEQkj4UCiS3MeVECLEjVh0lXgqFAiEkNRQKJLcx5UQIsSNWHSVeCoUCISQ1FAoktzHlRAixI1YdJV4KhQIhJDUUCiS3MeVECLEjVh0lXgqFAiEkNRQKJLcx5UQIsSNWHSVeCoUCISQ1FAoktzHlRAixI1YdJV4KhQIhJDUUCiS3MeVECLEjVh0lXgqFAiEkNRQKJLcx5UQIsSNWHSVeCoUCISQ1FAoktzHlRAixI1YdJV4KhQIhJDUUCiS3MeVECLEjVh0lXgqFAiEkNRQKJLcx5UQIsSNWHSVeCoUCISQ1FAoktzHlRAixI1YdJV6KtwmFP//8U52Nn/bulV3mPnbt2kWjZdm+w0/zPu3evVv2mnfr+PHj8tdff1lvnedBoZA2//77r60sv2DKiRBiR6w6SrwU7xEK/8qff/0pv/72q2zYuFHmzZ8v06ZNl+eee87YNJmKn9Om0WhuG96dqVOfk2nTp8vMmTNl3rx58uWXX8qpU6esd8/zoFD4f3DuixcvyoXz5+XChQt5b+Y6zhvDNeUHTDkRQuyIVUeJl+ItQuHsuXPyw48/yIrPVqhzN3jIELm+Vy/pef315uf10tMY/k2juWt4d3pc31N69e6tjufgwYNluhENG40gxcwCnDpPw9uFAkbqMSN0+vRp2b9/v97f1q1bZfPmzbJp0ybZZH7i97y0TZvNdZhr+frrr+W7Xd/Jz/t+liNHj+gzOn36dzl79qyKiL///tu6K3tjyokQYkesOkq8FG8RCujsZ7/4gtzU92Zp3qKFVK9eXcqWKytlyxurUM6Y8yeN5q7h3XG8P2XKlpFq1apJ165d5fHHH5d33n1Xl7l5Gt4sFCASzp07p23jF2vWyJSpU+WuYXfL7QPvkDsGDXT8HDhQf88Lux3fbWzgoEEyeOgQfYYPPfKwjB03VmdIX3nlFVm8eLFs2LBBl8GhXDwBU06EEDti1VHipXiLUNiyZYvc3K+vhEdF6v35+Pga8xEffx/xDfSl0bJsPgE+1rvlI4UKFZKGjRrJsOHDZc3atdZb6Dl4s1DAOY5AJHzxhUx6epK0Md9fKKGIPgPcf2zBeP2ZV+b8/oJFCkuRpEQpUaqkVKxcSerVrydt2raRHj17yt3DhumSyo8++siUzU45/ftp6+7siyknQogdseoo8VK8QShg+n3lypXS8cqOyfen5mscOz9jRizQaFkxCM4Cfv+9WxALEZGR0q59e1m0aJH1JnoO3iwUsFRn7Zo1MnLkSLmyUycpWryYKVtfR7ma+4b55qElX0OAv/gHBUpQWKiWTyEjHEqUKiGVqlSSK5o0lm7dusnQoUNl3Phx8uq812SleX4//PCD/P77726VU25hni8hxI5YdZR4KfldKGCd8a+//qrOWtu2bZPvLyIqUmLj49Ri4mNptGwxfZ9M3fGBCDXvWeXKlWX+/PnW2+g5eLNQQGS0F198UWrXri1BwUESFILrCtfZyGjzDFC+0WoxeWDmPbO+H+URER2lht9jzLuH+wqLMtcaHS4x5rOkxCSpYNruJuYZD7jjdn0Xv/vuO1suRzLlRAixI1YdJV6KNwmF9h3aJ9+fUyjgPmNiabRsMMuJw+++fg5HGvsVXn/9dett9By8WShgBnLcuHESGhqqx8J02VHBeL13jNzbwXA/DnFgBIR553CNweGhjtkt67qdFhoepvc7aPBgmTt3ru5fOHbsmK1C+JrrJITYEauOEi/FG5YeYYRw1epV0uXqrsn3R6PlpPkH+EvhIkXkGlNnlixZYr2JnoO3C4XRo0eLv79/cnlGx8fqngDsVShsE4NYQFngvmAQMph1CI8Kl5CwEAk09xkQaCwoSEKMUMDfljfPo13bdvLII4/oe/mTKefUYiGvcjOY50wIsSNWHSVeirdsZv5m+za5fdBAKZyYID7GafD1tdYcw7CpmUbLBnPWn6JFi0r7Dh1k5BNPaAhLT8PbhcKzzz4rCQkJjmONYMBSHzjiOAfu3xPMKSRQZph5CA4N0fuBALriiivkkUcfkQ8//FCOHDli3XneYq6NEGJHrDpKPJzMjgIdOnzIK4TC4SOH5fU33tAwh7iPpk2bSp06taW2sTp16jisLo2WCTPvjr5H5nesa8d68L79+mpYzeUrVsihQ4est9Bz8GahgBH2d997V7r36C6ly5SWYHMNznYRARB8fH0tw+95adZ1YODDmJ8RANhTERYRrnspUE5FEhN0FgSRkjCr4LyPwkZENGveTO677z5ZumypHDx0MM/zfZjrIoTYEauOEg/HlVBAp4nGP72EO94iFDBKiORXO3bulPfee0+emvCUjHhwhNxvnAmnPTDiARrNbcO7c9/99+n79Mhjj8qESRPlvfff12UdyJzrjvNsF7xZKKC93PntTvP5XOnXv58kJiUmt4ueYH4BfkYUhOrmeucyJZ1ZMGIB+7IgIrAkKSgoSMUtZhYgFpBrJi8x104IsSNWHSX5BAgDdHq7du3SOOBYh4pY2suXL5evvvpKp5lTjhxhpN0bhEJK0CHC6Xj/g/d15NBpEBA0mruGd+edd9/R9+nDJR/JKuMAw9FOTV6t/c4M3iwUUE6/mu/5eutWeXHOi9KjZw+NXlW2bFn9aSerYqxSpUpSvnx5KV2qlCQVTUq+TwRsQIhe5+wCBEOCET343bnZPi4uToM8IDngqlWr5MyZM9ZTyH3M9RBC7IhVR4mHktr5OHDggEb4GTtunPTp00datmypAqBFixYyZMgQzdh58ODB5A796C9HvU4oIOsq7hvPCqKBRsuq7du/T/ab9+ngoUPyy7Ff8tThyg68WSiAi39elJOnTmpb9/HHH2u24xkzZ8hz056TKVOnyNTnpspzeWbPOX6aa5k2bZpMfvZZGTt2rNx///1yww03SKMrrpDiJUrojAHuHUuSMJsAkYClSCi/yOgoCQkNldCwMBUL2LMwZcoU2bdvnz7DvBC15loJIXbEqqMkH4DoPp9/8YU89PDD0qp1a4mPj9eOwmno1B9+5BFNPoZlOAChQz9d/qlXCQVCSPp4u1BICZYinT13VttMCMKf9v5kvmOv/Lzv5zw1OPUQqUiitnXrVp01njlzpg4ItWnbVooXLyGBgYESGBSo7TnKzWnOJUnO/Rdh4WFy++23y+rVq1XoYqlmbmOugxBiR6w6SjwYjP4gRf/2Hdtl8pQp0qZNGylSpIj4BwRoJ+C0yKgo0yk3lXvuu1fWrFmjnerp06dlxcoVFAqEkGQoFFwDB/r8hfO6fPPCxbw1XAsMM6QnT57UGVIIhiVLl8r06dNl0OBB0rp1aylVupQKAmR1xkwCBEJi0SSdXXBGQvLx85G27dua/mOyfLnuS83enNuY6yCE2BGrjhIPBh3F1m+2ysuvvCw39LlBChcu7OhkTScQFx+va1SRvTM4LNR0kkFSrWYNeWnuSzoDcf78OVn52UoKBUJIMhQK/w8GZHB+OxpmPRCtyfkTYa8xADTp6UnS8cqOycnj0Cc49yogfGp4ZLh+HhAcIJWqVpIbbuwjc156KU9CpprrIITYEauOEg8G4Rdfm/ea3HLrLVLDiADn2lSEyUOnUCihsMbR9g8K1M+RS2Dqc8+pUMDIGDpgCgVCiBMKBc8HmZexlAhLUWvVqiVR0dESYZ5rVHSURj9COWIQKTAkUILDgrW9r1m7ljz40IMaHS63MeVECLEjVh0lHgqc/c2bN+u61BIlSujIETpZRLzABjaMGuEnOvlA0xGjyMuUKyszZ82yZhTOUygQQi6BQiF/gH0VSKo2fPg9GtACS1KRbBL5FvA8ChYppKIhMiZKn1F4RIT06NFDZyOwLyM3MeVECLEjVh0lHgicfGxme+utt3RfAooThlEirD/FbAI6dSw7QrId/MTa1Hbt28nbC9/WKeqzZ89y6REh5BIoFPIPP+3dK2+9/bbceeedyc+jgI+PEQjxOruMvgJiQT831rx5c3lzwZuaYydlKO2cxnw3IcSOWHWUeCBYcoQ8CYhkhA4dxQmLjovRNagQBY5O3V8/L1S4sHH2r9ZOF5ve0KkiBOCKFcspFAghyVAo5B+w+XrPDz/IC3NelCsaN05u46NNG48ZZwiFuBRCoX6D+jLt+enyzbZvdJN0bmG+mxBiR6w6SjwQOPvIl3BVl85StEQxKeBXQHz8fdTJx2wCOgB0jihmWJUqVWT8+PG6VMkZ1eLY8WMMj0oIuQQKhfzH6i9WyzXdrjX3HyQFfH20TGMLxktBIxZSzijUrl1bnhw9SpcfHTp82Do65zHfTQixI1YdJR4GOsRPPvlE+vS5UcqazjoqJsp0tEGmow01nXm8o1OMjpJIKztn0aJFpWfPnpqM7cSJE9ZZRI4e9b6Ea4SQ9KFQyH/s/O5buevuu6VM+XK6DDU0MlzCjGEPG6LjYTkSnhUyPt89bJgsePst+fHHH62jcx7z3YQQO2LVUeJhoFN+9dVXpV69+uLj6ysBSKoTH6udIaaTo2NizOc+EhAYoJ1lz+uvl6lTp2qHnpLDRw5TKBBCLoFCIf+xd+9ezbPTpWtXKV2ujASFBYlvoJ8uVYVYwDPCsypTpozcdPPNGvAiN6Mfme8mhNgRq44SDwEdIZLs/GQ68gkTJkiJ4sW1cYdYgEBwxsdG1CN8HhAQIK1atZZJxsH//PPPL5lNANiwRqFACEkJhUL+A7kVFrz1lgy9806pU6+OBIQ4EnIi4hGEgnMvW3HTp1zbrZtMnDRJvv76a+vonMd8NyHEjlh1lHgICGkK5x6d5j333iMJCQnauKPjhkBAFIt405EjhwI+DwsPl5v79tX1pseOH9dIRymhUCCEpIZCIf9x/Ndf5dNPP5XRY0ZLi1YtJCjEkW9HQ2kXihf/QCMUfApIUrEk6dT5Kv27TZs3WUfnPOZaCCF2xKqjxENASFRsYp7z0hzTyfVJzsIcGBSkHTg6Q0SzCDMdrW+AvxQvWUIee/wx2X/ggHWGS8EoE4UCISQlFAr5jxMnT8iX676U56Y9p9ma8WzxbJKFQpARCn4FTFkkSIeOHWTkEyNlw8YN1tE5j7kWQogdseoo8RDOnDkjH3/ysTz08EPSpm0biS9YUDehhYaHaQeOTj3IdACR0VFSwoiE9h3ay5w5c5KjHKXGm4TC33//Lb//8buGCvziiy9k6dKl8qFxKBYvXiyLjC3+kEZz3/DuLFq8yLxLH2mAgTVr18ru3bu1rnoqFAr5j1OnTsnGTRtl5qyZ0rlz5/+EQqQlFIIDVCgUKVpEc+1ggGnDBgoFQrweq44SDwGN/WuvvSrde3SXKlWrGGc+XoJDQ7UzRwceHOpo/OPi4qR169by4IMP6nQzEqu5wluEAkTCqdOnZNf3u+SNN9+Ue++9V3rfcINcZ54j1uMibOC113WTbjSam4Z35+prr5HuPXtI33795P4HHpD5r7+u+4j+TrXUz1OgUMh/ICfC+g3r5fkZz0unqzq5EAr/zSi069BOHh/5OIUCIcS0EsSjQEcJZ71OnTpW6v1oDXWHzWjowAMCA7XxL1yosNxgHOHZs2frhjRsgHaFtwgFdJLr1q+TF+e8KIOHDJZmzZtLhUoVpXTZMlKydCkpUbqklCxTmkZz2/DuYIlfmXJljXivKs1btNAsuAsWLJDt27fnatKq7IJCIf+BZ7f688+1DW/Xrp0EBwfrs7lk6ZFvAUkslihXdrpS+4SNm7hHgRCvx6qjxENAh3b//fdJZKQjqlFIeJjEGJFQKKGImn+AI3JFYmKiDBo0SN577z354YcfdBO0K7xFKOzatUvX3DZu3FhKGWGQkJSgQgshZXGv2NcRo/+m0dw05/tjDEv+ChYsKNWrV9fZhnHjx8mWLVust9BzoFDIf+AeP/roI3nk0UelSZMmEmgNKiHXjkY9svqOosWLmbb+ahlvyvWrXHx3zXcTQuyIVUeJh4DG/p577kmeNsZ+BDgp6ARhzhB3pUuXlkceeUTX4h85cuT/oh058RahsHbtWl2X67w/v0B/I7JCraRDERJuOkv8pNHcNbw7MOwTQphivF++5mesqUNY4vHhhx9ab6HnQKGQ/zh06JAuiRs4aJDUqlXrP6FgzUj7+TnKtGTJknJ9r14yZepU+WbbNuvonMd8NyHEjlh1lHgIyIOAqBUYEYpPMQoE87Uaelg108FPmTJF9uzZI+fOnUuzA/cGoYBNpUuWLJHmzZon319gcJAu2VIHiEbLihkHGob3KSQ0VJMcOt+zqtWqyuvGOfM0KBTyH0i4NvW553RPTXnzXELCQsXfvKvRKFfTlzhFLsr01ltvlTkvvSTfffeddXTOY76bEGJHrDpKPIQzZ89ohwnHHpEpIiIcHWpKg7PSum0bWfDWAjl9+rR1pGvyu1DAkqtjx47pEixs7nbeHzpHXa5VpLA6PjRadhjeJzikiEeP96xs2bKaQd3ToFDIf3y/+3t5/ImRckWTxpJUrKgK29CIcBUJcfFxGj0Pz6pKlSoyzJTL2wvfNu/Bj9bROY/5bkKIHbHqKPEQNCvz3p9k2cfLZOTIkdKyZQspUaKE7knAcqPqNaprSNQHH35I1q1bp9F+0iO/CwU4DogU9fHHH8u1114rQUGOJEOhYWESbkSWw8JptGwxJDrEO4WgAphZwJ6YhQsXWm+j50ChkP/YacoIzxtBHLC3JtI8A5Qrngv2a+E5wWqa54KIRwjDffDgQevonMd8NyHEjlh1lHgI//77r1y4cEE7tjVr1sj06dNlxIgRMmjwIBkydIhm03xzwZuyfsOGDHV+3rJH4ZtvvpGhdw5VUQWnwXmfNFpOWGRUlNSrX0/uuvsuraeeBoVC/gMRuG4dcJsUTigiwWGhyWWKTP4phUL9BvXl6Wee1lCqx48ft47Oecx3E0LsiFVHiQeCkfJt27bJ8uXLZeE7C3WqGJt20emlFeUoNd4iFLCRb+pzU+WqzldJ+fLlJTo6WgIDAjVEYGhoKI2WZYNTi03M+L127doq3F997VVNvuZpUCjkPzZ/9ZX06t3LsenelB/KFAKhYJHClwgF7H+b/cJs2fntzssuXc1OzHcTQuyIVUeJB/Cv+S8l6BSxuRnTw9i0jDWoR48eTTPCkSu8RSjAiVm/fr289NJL8tBDD0qfPn2kS5cu0rlLZ2P4aaxrF+lCo7lpeHeuMu9Rl65dpevVXTV/CULxLlq0SB3ok6eYR8EVFAq5y6pVq7S98/F17EVAtDyUJWYYUgqFZs2bybx58+TnfT9rIIzcwnw3IcSOWHWUeCBYhoSOEfsQIA5g+B2fZxRvEQp4TufPn9eNzZs3b5Z33nlHXpr7ksx+8QWZ9cJsmfnCLP1Jo7lrM2fPkhmzZsoLc16U1+bPk0WLF8mWLV/JiZMnrLfP86BQyF8gM//ixYsvCegAcQCRoEIh7j+hgL/BDPUvxzI+M50dmO8mhNgRq44SL8VbhEJKsGQLy0GQsXrzV5tl4+ZNapvUNtNobhnenQ2bNspmIw6279yhwQbwjqXGHQGf11Ao5B/++vtv3Wvw1ltvSbOmTZPbeEQ7gkjA0iO09/gMCTuRb+ajJUt0Jsyd8swq5vsJIXbEqqPES8mcUPC8NdcpwcwLRthO//67rsE9dfqUOnb6k0Zz1/DuGMO7BGcZyzXcWf5nRygU8g+YSd2/f7+88sorGoXL2cZDKDj3J6BskVsGv/e+4QZZ+dln2kbmJuaaCCF2xKqjxEvBngZshh41epRroRCSQihce40888wzHrk5kxCScSgU8g8oF7TZs2fPlkYNGyW38RAKeNYoV5RvRFSklCxdSu4YeIdGzfs7l8WuuSZCiB2x6ijxUjBq9OW6L7UjbtTov04kJtYIhfg4CQwJ0s67QuWKcl337jJt2jTZf2C/dTQhJD9CoZB/wGzXjh07NJR2g/r/DQZpojXzTJB4DWWL516tRnW53zy3nTt3WkfnHuaaCCF2xKqjHgs6hgsXL8j5C+dpGbSLf160np7I0V8wo/Dp5WcUKlWQa669ViZOmiTbd2xPjsCU1rP/62/PXnpBiDdDoZA/wL6YX3/9VTZt2qTLRuvUqZPcxkMoxBoLM88aZVu0eDFp3KSx9gU/mfLPbcw1EULsiFVHbQkSi2ET1o8//qgbT1evXi0ffvihZjpd8NYCef2NNzRO+Usvz5U5c+dY9hItTXM8Izyv1998Q954802ZMXOmPPzoI3J9715SqUplzSsQGBSkKf3RkYRHRRgnIUpKlCopDa+4QvrcdJM8ZTptRHeZZwyRg1J+x4svOcrgFVMuOP87774rH5pOe+XKldpZ7d6zWztlrJslhNgTCoX8AYTCgQMH5JNPPpFHH31UqlWrps+jgI8lFEw7HxIeps+jdNkymtUfydawpyG3MddFCLEjVh21JUiSheyQby5YIE9NmCCDBg/WWOVNmjaVuvXrS43ataRqjWpSpVpVqVytCi2DVqV6Valeq4bUNM+vWs0aUqFyJSlVprQUSUzQjgOGThUOgU5PG8Omt4SiSVLS/F2lqlW0k61Ws/r/nbtS1cr6s7o5b9369aR5i+Yaa/7W225Vx+O1ea/JF2u+kAMHD+Rq6D1CSMahUMgfQCggSt28+fNl4KBBWl54Hj6+vtquY+YYzx2DQRgourZbN5n+/POmfT5onSH3MNdFCLEjVh21BRcvXtSOADMIWDePTMPPPPuM3HX3XbqRtm69epKYlCQhoaHi4+foqGhZNNOB+gcF6qgSOo1CCYUdIfOMMwArZARCocKOyBjhUZGmUwnRrJ4uz5XKfMy5wyLCJdEIjBpGOHS6qpMRe4OM6HtK3nzzTZ0h2r59u+zbt0/LHTNInhRCkpD8CoVC/gDtKWbjJ0+ZIj17XS8lSpbU54EwqM7n4R/orxuZ8Txu7ttX5s59WaPh5TbmugghdsSqo7YAjdPb7yyUYfcMl27dr5N27dpJg4YNpFKVSlK8VHEpWKSQdlghYWGmsQ8Sv8AA4+QGaFg3bLpVw++0y5t5Vth/EBIWqs48nitGmFQYGEspFPAT/w+ZPCOiI1VUoFNP73mjfGA4PxyNQkZ8YPlS5cqVpW7dutKiRQu59tprZfDgwTJhwgRNBrRv/z6XjgbFAyG5C4VC/gBt59ov18qjjz0m7Tt0kKRiRcUvwE+CzbPG84g0AgHLkEJNn1q/QX0ZOnSo5ls4mgfPA/4IIcSGWHU0Tzl/7rwuM1q+YoUMHjJEipUsIQWsNPPJ5ldAAkICJNw4qnBY0WnBMNKd0qGl5a2lFhZwMCJionTDXEBQ4CVl6uPjI0lFi0rLVq3k/gce0CQ/e3/e67bDQQjJXigU8gcQCuhXhwwdIg2vaKTLSzHAExYZruUYHvHfc27WrJk88sgj8tFHH+kG6NzGXAchxI5YdTRPQKN+8uRJ2bx5s8ycOVMGDBggtevW1RFrXFpK8w3wleDwEEdnZZxQdFjOTsuZhp6WecOSI+dsQlrm6ri0DHsaUD4xRsg5ZiKidAbDJ5UAxDKyYiWKa7SNm/veLGPHjZXFHy6W73d/L7//8bv1phBCchMKhfwBhMKSpUvlJtO2oizjTdmFhIfqzDDKMSw8XJ9PWGiYXHnllTJ58mRZs2aN9su5jbkOQogdseponoDGaOvWrRqbv2XLlhIREaHLVuBUomOKNh2ThulM3mAbr42bKyeWZk/DcjGUGQwCD+WIMoWhfLGJTpczhYWqU1C+fHm5/Y7b5c0Fb8p3u76Tv//+23pbCCG5BYVC/gBC4YNFH+hS3tLlyujADWYTUJ4ox1BrUA59b8+ePeW1117TfWMoy9zGXAchxI5YdTTX+ePMHxouE0lgevXqJQULFtQGC4ZGDCMfWNeO0Wk4nHHm/yMJWGRUlHYi4RHhurZeLZxmOzPlgmltlFVEZKREGvEHcYDOGuWKKXCUKzpsOAjOssdyJOxhwFT5q6++qomCfv/9d7ccEEJI1qBQyB/89ddfsuCtt6Rjpys1qATKEEEpMMurQiEsVJ9PpGmj+/btq3vFkEPh3Llz1hlyD3MdhBA7YtXRXAMjHEj4hchGU6dO1ZmEwoULS7DpEHz9/SXYNFwYdYYTqc6kcSrx73DTkAUEXrrGneZZhvwMcDjgbDiXKDk7bwiLIGx+Dg2VaPM3cECuu+46mTxlsjoUJ06csN4gB3iPCCE5A4VC/uDMmTPyyquvSItWLXVGF7P1EdHROrOAckR7i+cTFRUld9xxh6xatUqOHj2qEQhzG3MdhBA7YtXRXAOJtvYf2C/LPl4m/fr3Sx7R8AsI0MYLMwlowGBo2NG4YSQaHRWcSSQECzIOJzqQUNPIhcHCwmh2MlMmKBuUkSZwM2UbEBigy4tQjihnZARF+TrLGqIBwhBljfcBVrx4Mbmu+3WaAAgh/rK6DAniAiNsZ86ekd9O/CbHjh9TO/7rcRot05byPTp1+pScPXtWHS28r54qaCkU8gd4J2fMmCH1GtR3zL6b56rlaNpf7CNzCoWYmBi56667dJb/1KlT2k7mNuY6CCF2xKqjuQY61CVLl8ijjz1qOojGyR0ONrpCJMBZhNOI9euBQYHib5xMdBoJSYlSpWoVada8uXTp0kV69+4tt9xyi26Avv3223Vdu/6k5alhVApl0r9fPy2jrl27aijUmqZTRgxvOB3Yh+Lr52fK3l8iTNli9gjlW8QYOjDMPGDTM0RH6TKl5eprrpZZs2fpMqTTp09bb5J7wIHAEibkbEDCt/mvz5eZs2ZearNhs2g0t2zGzBky/fnp+nPOnDkaXnLdunVy7Ngxj91jQ6Hg2UCg4lkg5DTy1pSvUF4K+PjoYA0GaVCGaHedexSQK+eBBx7Q/QlYduROOWYX5joIIXbEqqO5BqLZjBk3Vlq2bqXRbtAxaMNtOiKMcDiFgrOjwJr1wuZzjIj0vqG3dl4vzX1JPvzwQ/n8889l/fr1smHjBtm4aaP+pOWtYUQKZYIp7MWLFsncuXM1ktHAQQO1wy9VurTuYUDZwoKNQESn5dyzgN9hEAxBwY69C0WLFtWISCj3b7Z9k6lpccxk7dmzR5YtWybjxo+T63tdL63btJZW5j1shZ80mpvWum0bfYewrKNp86bSomULadO2rfS8/nrNJI96AMfWEzOQUyh4NngOaPMQEOLRRx+VhIQEfQ5oU1F+6GPR3mKGQdtY0xc/NvJxbSMxm5AXM2HmOgghdsSqo7nChYsXZM3atXLrbbdK0eLFdDQjPCpCo97oVKhpwLD0BFkisQE2NjZWo+B06dpFRjw4Qma/MFsdva+3fq0jw4j1jBFmjBQjlCYt7w2b1FEmGE392XTYiGq1fMVymTdvnowZO0Zuu+026dCxo1SvXkOSkpIkKjoqOekb3gF0YJhdwM/g0JBkZ6FWrVo6g/T6G6/L4SPuZw1FMr+Fby+U+++/XzpddZVUqVbFvINF9T2EYEVHiZ80mruWZN4hvLPIGg+rULGiXH3NNTLeONBorw4cOGC9hZ4DhYJn89fff8np309rX3nf/fdJfHy8PgfsA4NAgOF5YGMzEpeWq1jBvK/j8/RdNddHCLEjVh3NcS5cuGCctUOy8J2FGq85EBuTfXx0iRE6BsTxR8OFZSe4LDRsjRo10uUsr77miH5z5MgROX78uDqimB7FSB0aREzv0+xjGJHCqD/KCGWFdbLogHbt2qWjrG8uWCCPPfaYXNutm5QsVUrLG4bISEWSEpJnF2Lj4lQ0QkTAYShl/nbYsGE6ewRB8vc/GVvWgdGxLV9tkSFDhkjp0qU1G2m0cRQQmjUmPlan4mm0rBraMqz5xv6cIgkJUrdeXRk0ZLA6xJ4GhYJng74RA2lob9FmFnQKhZDgZJHgzG+DWYVadWrL1OemaludV5jrI4TYEauO5jiIWuPMmdCgQQNttGCIaORcboQRZWcHhJmEAbcPUJGACEkk/4DR/U+XLzed/0S5slMnDY2L/SgIfevIl+FwRvBO4N2AY+98Xzpe2VH3F3z//fcqFjICRMuKFSukXbt2yefxDfCTEOOUYEQNThCNlhWDE413yT/AP/kdgyEb7tsLF1pvoudAoeDZYGDu4MGD2u4NGjQoeUYB0QVRfmhnne8uyrRJs6bywpwXdRYirzDXRwixI1YdzXH279+vqeEfevAhqVqlqjZaMDRYcAixkRm/Y806HEM4hAjrBpHgiWt8SdqgPA8fOaKjXbNnz5aBAwdK48aNNUQf3gksOcKoF5wHCAU4Ks73pVbtWnLvfffKu+++q4LjcsBxOHnqpCxa9IE0bdo0+TzBYSG6zA3vnFpB6yeN5q5ZMwqI5oVZMSylc75nmMF65ZVXrLfRc6BQ8Gwwm4v9gO+8+4707ddXl/Hq8zRtK8pPl/iadzUmLk6XX7bv0F7mzZ8n587nfv4EJ+b6CCF2xKqjOc53332nEUGwzhydC74akW3Q0UIkoBPCVCj+XaFiBbnr7rtk27Zt1tEkP4JRL+w1+fTTT+W+++6T4sWL63sBJwSdmXMJEjq1wJAgCQkPlRKlShrHoZ2MGjVKl6Ndjj//+lMjbb3/wfvqcOD8MJwTAhXnx3fRaNlheKfw08fXV98ztHVIHOhpUCh4NiiLLVu2mD73Reneo7tERzsGWyBiUX4oSyw5QnmWq1Beul3XTRYuXJing3Lm+gghdsSqozkOlh09/fTTGhe/eAmHQ+hrOhssN4I4wCgy1qOj0ercpbOul0y9adVTY5KTtEGZHjp0SJcTIQwqxAISrmFWCRud0bnDsJ8Am97htJQsWVJuNB38Z599dlnH5F/z39mzZ2TV6lXqFMQagQCBiqVOSOCHn9gXQ6Nl3RDO2V9/6siteW87d75KI7R5GhQKng3yeXz+xecy6elJurwzMsKxfDM0LEzLD0FEMPiCZ439Cf1vuUVn/PMif4ITc32EEDti1dEcB2EzR40eJZ2u6iSJxRKlgG8B8Qv0V6EAhxCXgo2ATZo0kQcfelAWf7hYNy6T/A86J8weTZ8+XW66+SapWLGi+Pv7a+eOkX9sdEfnpntYjCOGkLl4T15//XV1HCA2Licid+/ebRyfJ6VBo4a66RTvG42WU5aQmKDCd9KkSbL1m63WW+g5UCh4NtgTuGTpUnn4kUekeYsWmpMGzwGhqVF+QWHBUsCvgBRMKCTNW7aQe++7T1auXEmhQAj5f6w6muNs2LBBHnv8MWnXvp0UKVpEGyn/4ADT8cRrKFRcSnBQkK6VnDxlsqxZu0YbO+IdIBvoxo0bdSapWfNm+j7A4KQ4NzWjg3N+XrFSRXl28rOy6/tdGXJQEAHk7YVvy13D7pbWbdpImTJlNBJI4cKFNcY4jZZVK1KkiK4FR9hfRHabOHGirFi5IkN7aewGhYJng0E2bKIfMmSo1K9fP1koIMElnkOA6Xvx7yJJRTT8+JixY2XduvUUCoSQ/8eqozkONq4iG3Pb9m3TFQrYxDxt+jRZt36dnDx50jqaeANnz56V1atX6/I0vA8wOAxIxFfYKRR8fPRzbBJFbg3kaDhw8ICGZU0P7If4ae9e45x8Li+/8rI8+eSTcs8992jowLuNeIDhdxrNXdP35+67Zfjw4brX5oknntANzJhFRUhnbCz1NCgUPBvcD95BLNGsVr26Pk8s9cVmezwHzMziuWAZ8I033SgzZs6Urd98c9l2NCcx10MIsSNWHc1xMFo88omR0qFjB9MpJOjSI/8gf4dQiLKEQnCwhrDEukp0IpfrFEj+A/kWhtw5VMIiHdmbQyPCNZoMnBOs+XaGnyxRooTcNuA2eW3ea+qkuDMShtG27du3y5dffqnv2crPVqrBEaHR3DW8O5g5wLuEHB8I3HD06FGPjtZGoeDZYBbr+eefly5dukj5CuVN+UXpnoTouBh9Dr5+jvIrW7asDBk6RN5c8KZGSaJQIIT8H1YdzXE2b94sY8eO1Y3KScWSpIBPyj0KjogMoWGh0sR0Gg8+9JAsWrxIjuazxptcHswiPf3M01K/YQPt0JBsDRvdsVcBDkpAoGPKPDExUXr17i3Tn58uX23ZkqZTltb+BWTzRvZojPhiM/XBQwfl0OFDNJrbhncHMevxLv124jedGXPlMF9uH42doFDwbJAVH0vfWrVqpZHicL94thh0wXNwRuWqVKmSPPTwQ7Ls42Uawtyd8stuzPUQQuyIVUdzHGzow5ryHj17SImSJRyNt+lsIBQwyuEfFGA6h3CpXrOG3Ny3r4ZSRcNFvAvsVUCOhMFDBksDIxYiIhwOQ7j5CQcFEWXwb+wt6Hr11fLUhAmybt06TarmDhg5g7iA4VgaLauGdwkzW3i3PEkUuIJCwbNBQsqRI0dKvfr1dGO9Mwsz+ls8B+cSzurVq8u48eN0qe8vx36hUCCE/D9WHc1xkvMo3Joyj4KvxMVb4VHDQzX8ZamyZaRd+/bqAP7AjMxeB5wNhPWDY3DVVVclJ2FDRCw4KJhdwL+xDKlV69a6T2HFypXqqBFCsgcKBc/mm2++kXvuvUcqVKqos7GYSYBYQM4iFQrmmcBq1aolU6ZOke07tusgTV4KXHM9hBA7YtXRHGfvz3vl/fffl/vvv1+qVr00MzM6H4gEdEZoxKpWry73mb+DuCDeBZZtbP7qK5n1wmzpeX3P5IyiwcZhgIMSHhkpAUFB+p7UqVtHheeiRYt0szIhJHugUPBcMLO1fsMGue32AVIkKUGTrGliU3P/SDAZXzBenwmsbt26MmvWLPnhhx+07aVQIIT8H1YdzXGwue/zzz+X8ePHa+OEr4ahAUPHg9EOdERo1AoXKWIcwFt1VIR4F+fOn5Od330rbyx4U/r27ycFCzpGv4JCgpPfE2QUjTWdXakypeWqqzrJvHnzPDKyDCF2hULBM4GjD4d/1erV0rvPDRIeFalLfNHPQiQg1DSWH+GZwBo0aKCZw7H5GQKDQoEQ8n9YdTTHOX36tOzcuVNHLxpfcUVyQ6UNmGm8MCWKKVIsRwoKCpLrunfXkKrEu7hw8YL8vO9nWbpsqQweMkT3IuA9CQwOUgcFnT2m0RHmLyw8TNfYTp06VTcnE0Kyhx9//JFCwQPB/aMtXL58uXS7rpv4W8Ef0Lc689HgOeAz2BWNr5CF7yy0RftprocQYkesOprjYGkIRi3eWvCWtGrZMrmhio2L0wYMBtHg/LxDhw7y2WefWUcTbwGjWohG9OW6L3WZGhJZ4X3AJmY4KHhPkFch1EogFGfeGYTd/fW3X60zEEKyCoWCZ4LN9HhGS5Yskc6dO+u9w5CN3pVQaNaymSxZusQWm+/N9RBC7IhVR3McNODYLPXRRx/JlZ06iY+vI+oClpK4mhJt2aKFLF68WKdRifeAiDFnz56Rb7/7VhNXIcst3geERcV7gjW3eFdCrE3NoaGhcr9xCJB0jRCSPSC85pOjRqlQgEhITyhMmDBBdu3a5fYadwQtGHbPcGnczCEUEOefQiFrnD9/XnPRvPXWW9K+XXu9d5hTKKANxbJN5DFCiPJ2Hdvrc7UD5joJIXbEqqO5AjqSFStWSPcePTQ+vo/pbLTzMQ0XGrCUQqFJkyby+uuv6ywEI9p4H4hJP2nSJClWtKi+D0i0pkIh0RIKYaH6eXh4uAwbPkx2fb9L/jX/EUKyDnJDjB47Jk2hgHXvqH/ly5fXeP27d+9WJ9Ud1qxZI8PvvUeaNGv6n1AIp1DIChiM27Fjh7z4wgvSokULvXdYTKxjQC6uYEEdnEM4coiybt276eytHTDXSQixI1YdzRUwLYpGqd8tt0jhpAQJNs4eOiBn2LaUQqFhw4Yye/ZsjQeNKW3iXZw5c0ZmzJghZcqU0fcBa22dS4/Q4cGhwOcQCnfccbu+V0h2pdGPjF7AyCZmJ2g02uUNDjbMyU+6mflJqVrtMjMKZcvKuHHj1DmFk4qlgwDncvU9zhkH/H8sLb3r7rvliiaNufQom/jl2DFZs3atDrJc0ei/vYDOhJUoQ5QlAkIkFk2Sfv37y1dffWUdnbeY6ySE2BGrjuYa27dvl+H3DJeKlSvpplRnw4VGPKVQqFevnm5S3bp1q5w4ccI6mngLEJWvvPKKVKteXd8HbGbGlDn2J0AohBmBgM/hSPTq1UveefcdXa6EDh8iA+ISWZ5pNNrlDcEmYNjU+rv5+bVpdx966CGpUrWqRMU42mhYaqFQqlQp3SO0YdNGzVKNtvqPM3/ouVJ/x4mTJ+T076fVmUf9XLJ0qdwx8A6p36C+LinEwBEcWJw/pVBo3769ZmvHnobL9QXeLhT2HzggH370kTz8yCNSu3ZtvXdYrBEKKLvwqAgNRQ4xhrZ12PDhsm3bNuvovMVcJyHEjlh1NNf48acf5clRT0qjxo0kqVhRFQroHCASUgoFJIJBKNW1a9dqI26HzVYkd3l74dvStHkzXaaGGQS8K06x4HQkgoODpV37djri+MGiD2TDhg0aXQsjnF9v/ZpGo2XA4CxiEAc/v/76a/nggw9k4KBBUrFSJYmOdYSuhjmFgn+AI5pOseLF5a5hd8t7H7wv6zas14Ed1L1vtn3j+nu2b9PZCmx+ftk46L1v6C01atbQmUL0A8genFootGvXTiZOmiirVq/SWcP08HahgHwI8+bP14hxVapU0XuHIVBIbME4I8ZCzHMOlxIlS0irVq1k1KhRsssm+YrMdRJC7IhVR3ONAwf2yzPPPCMdOnaQUmVLS3h0pE45Y2oUQsHHSi1fuXJlTbr2waJFsnfvXgoFLwTROLpdd52UKFVSl6chJjgisMCRwOY8bHDGzEL1GtWle/fuMvTOofL444+rwMRyiNGjR9NotMvZmNEyduxYh40ZK6OefFLuvvtuaWsc9BIlS5q2OU7bZ8wAw9lG/UNoYj8/PymSkCAdr+yoS4hQ98aMGaN1b8zYMam+Z5SMMobvePrppzVS0h133KH7E0qXLaPiH3Ub35VSKASHBEvzFs11cAkhPy+3DNXbhQIE2IyZM+XGm2+SsuXK6r0jcAiEAsrQP9Bfs9tDAPbs2VOmTZuuEa7sgLlWQogdsepornHw4EGZOWumdO/RXSpUriDB4SHiE+CjnQQacl/T+eCyMKV98803y6zZs3Wki0LB+1j9+ecydOhQadCoka5hDgkPdaxhtpwVZ+cXHx+v+RaKFi0qpUuX1kgs5UwnWbYsjUZz11CHSpQooYEDMHiDeoaZBGe9g+FzHdwx/w9iATMLaLNxPOpf6nM6rIz+LF+uvP4NREhhK1wnzu+crcDSQqdQCAwJlHoN6ukSGWRgv1wUPG8XCkhSitmXa7pdI8VLFdfoRr4BvjqbEB0T43imgYFSu05tGWLa1tffeEOjJNkBc22EEDti1dFcA9Fs5s2fJ7cNuE1q1q4pQaFBGqZN102ahjzANGK4rMSkJOnUqZOG6EPiNQoF72PTpk06NX5V585SsnRJ7eARGQVOCpYqJCQlqmMRHOIIlUqj0bLPEEBA9yVguZ/lwDuFAuofhATEAmYWXB2fEQsydTcyJkq/A+d3BitAQkUMIAWFBUuFyhU1AeeEiRNl/YYN8utvv6lgQJQlCIOUOITCXodQuN+VUIjJ10Jh0+ZNumekfcf2klQ8SZ+hf3CAPt8o80zxLAICAjSq4OMjR+o+kaM2uXdzbYQQO2LV0Vzj+PHjmh/hwYcelCZNm0hImMPJwwgSOiCsRQ8ICtQOo2GjRjqivGLlSuto4k1s37FDpj8/XW686UadRscUup+/v0MoJDocFbwzcCqCgoM0hCr+PzZa/mfOz2g0mmtLWV/8NPQpBmywNwizCYhI5xQKTrGA9hmGuohlSNizkPo8aX0XnHb8DAoJloioyOQlTc7zFypcWL8Xg0eRMZFSsEhBKVuhrDRt3lRu6tdXxowdK4s//FD27Nkj51LNMPz9z9/y016nULjv/4QClixisCE6LibfCQXcOyIejRgxQlq2ailFSxSTwNBgCQ4P1XuPNM8azwIzCtj3MWXqVFn75ZeXjSSVW8AfIYTYEKuO5hqIfoHoFZOenqT7FBDeEpeBTkmdvhhH6DZ0TpUqV9LNbh+aToEzCt7Hnh/2aC6NIUOHSKVKlfQ9wewTnAjnyCPeGRqNlr/MIRocQgTLUwv4m7rv7yMhEWFStUZ1uXvYMHn//ff/L3/DJUuPXM4o5N+lRxcuXpAVK1foXi0MsiUVK6Z9KfZ2oT+FKMOzCAoKkq5du2pUOWxeR4QqO2CujRBiR6w6mmtgMxoiYrzy6iu6ATUiwrEWNTQsTDsIbFpF5AuMMhUvWUI6d+2i0W+c8bmJ97D/wH75aMlHGqYRm9vxnsAwg4D1zIiAhPcEP+FQxBWyftJotCwb6pXuA0rH8P+T65+bpueHWefBZ86ZBQwEJCQm6uxCWGSY+BiR4Kz/WD7U8IpGMuC2AfLss8/K0qVLZfeePcmDSUePHtUZh3vuvUf3QuAYCAX0LxAIfgH+OoNdtVpV6X3DDfLS3Ln5QiicO39OQ6P2uelGqWjaS2wQj4iO1vC2uPcIa98HIsWh7124cKHOyiCctB0w10YIsSNWHc01MPrz888/y0emQevfr79ERTnWTSLTLhozdD6YVUBngA6jdds28tq81y67iY3kP44dO6bhcREhpWbNmvqewMKMuISgxDvijO9Oo9E811CXUachFpxCwTlriAEA7IVAwAsMImGEHNHOChYsKPXr15dbbr1VXpwzR7P4A8xaL1myRO69994UQsHPOM6OZYra34SESJWqVaTPjX00TGt+EApw+DGoduVVnaSQeXZ4Vni2eHboW5MjSRmh0Lt3LyMqPtTBGHczaucU5toIIXbEqqO5xsWLF9UB/OKLL2Tw4MESGxvraLiNUHB0Co4U82jUsBypXoP6MmPmDPn111+tMxBvAbNPWFowf/58nSqPwfri4KBkx0KdC3UwrJ80Gs3+lqK+OsW+CgAskzGGJTJw6PH/MdMAJ/c/0VBQl9Ogz4CFhYVJ9Ro15NbbbpNFixdrVD3Yl19++X8DDDivM/8D1uk3aNBAhg0fJu+9/578+pvn9y9YQvTqa69K4yaNNQQqEtip+DJCC8/OKRQgkvr27auZro//etw2s/Xm2gghdsSqo7kGMu5ixGfjxo1y97C7daoZl4FNzGjMYPgsODRUPy9TtozG5cYsxN9//829Cl4EyvrcuXOaAGrcuPHS6aqrpFKVylII0+im04dwSLmUgUajeZZBCGCmAANFWBKENt9pvv6+6uxiRBxCwRm8AP9Gf4EABoFBQRIRGSlVqlSVvv36ydTnnpN169bJoUOHNGhG6zZtLjln8rl9faVz584ya/Ys2fzV5svmZ/AEkLV69uzZUq16Nb1HbEiHsHL2q+ER/2WzRw6LLVu2uIwclVeYayOE2BGrjuYacPbPnD2jGTpHPPSgJBUvqo2XczOzc+QII8f4vFChQhohacfOHXocjifeBTrAjz/5RMaNHy839LlBGjZsKJWNYEBG1zp169BoNA81xPOHY1umXFkNd4wQnhjtRwQzREVCFmHMOmDwCP2D05z9BAQG+gkcU6p0aQ2l/Mqrr+pSIoRX7n/rLZJUrKiGUMbf4G9hiea77rr7Lh1VP3T4kM50eyoYUIEh9PiUKVOkTJkyeo+IXoVnBYFVKKGw9rH4PDQ0VO666y6drbUT5toIIXbEqqO5hmnS5J9/HbGux40fJ5WqVFJRgBFijDBhAxY6AIwW4fLi4uJk+D3DZeOmjXLi5AmdkSDeBabGEfLw8y++kDfeeEMmT54s4827M3HiRHn6madpNJoHGjL04ydmjB9+5BF13Pvf0l+u636dtGrdWqrVrC5FixfTJTPYjIxlQ1iShAg+SNQGsYB/O0OzBgUHa7I4hNRe9vHH2l5go/Jjjz8mAwYMkOuuu05nEa659hqNDLTgrQXaD509d9Y2o+qZAdeOmQFsTMazLFmypPadeCboSyEU8KwwC4PPsUfhnnvukUMHD1lnsAfwRwghNsSqo7kO1oQ+P/N5aXRFo+SNahg5cooFpO7H5SHrLsJjrlq9Sg4fOezRIz8kc2C0DOV+5uxZOXXqlL47yMeBfSs0Gs0zDfH7fzvxm46Ew8n96quvZPXq1fL+B+/Ls1Mmyy233SqNmzbRpYboC2CYQUDAC4gFOMEYMcdsgzP0J5zgRo0ayf0PPCBvLligM9EHDx3U5UUIp/ruu+8aEbFMNmzcIAcOHsgX/QkGz/As8fwee+wxzaqNZ4FZGeeMQmqhgFwLKAM7Ya6NEGJHrDqa62AZETZete/QXqeGdQOzaezxE41bSKgjERs2O/fv3083nGmCnXPnrDMQb4B7UgjxDjAqjlnjffv2ydov18rcl+fKiAcflK5Xd5WqVatKkSKOGYTQiHBJmc0ZjjAGm3x8fcXHx0eKJCRIy1atZOQTT8iOHTusc5/TfW779u+TY8ePyR9n/vDoWYSUYMYVG7hXrlypMwVFizqW8wYEBiQv08JP52ZmRIt6wjwbu+RPcAJ/hBBiQ6w6musgOczbCxdqav5yFcpLbME4CQkP1Q5AhYK19hThUzFlPPuF2flm0xkhhJBLwaAARscxGISZhv379+soOWYBsKQGS5IwqFTA10f8gwI1WhLyMDhnFjR8qnGGsQQpOjpaOnXqpLkCMPsIEYIQ2+h34Fgji3F+4cKFC7rf4N333pXb77hdEoxQQt8ZaJ4RngtmX3TTeGyM7lNAWFgs+aJQIIRkCKuO5jroED5askTD2tWuW8c0ZgU1YyY2r6FxC7OmSSMjI3XWYey4sTpicvLUSesMhBBC8jsIZoCNydjTgJkC7R+MIIAhrGrKmQX8P2RvR9+BHAojR47UUKkIyZ1fgQja+s1WeWnuS5oXwrlUC/v88DywVCs8OlJ/Ys9Hq9at5IUXXpDff//dOoM9gD9CCLEhVh3NdRC9aNXq1fLgQw9pCLsiCUXEx9dH9yYkrzn1dWThbdykiQy/5x557/33bbeukhBCSM6Cdh/JF5+dPFluvOkmqVilss4q+Pj76Ug59rVpdB/z0xlmFb9jNnrylMkaCjS/gpmSL9d9aZ7Ns3LNNddoABDcP/pSCIUIIxICQgKNUIiVqtWrSa/evWXBggW2ycjsRB0SQoj9sOporgOhsHnzZk3B36NHj+R1lYhgAaGAVPv+QQH6s1bt2nJz377y6quv5YsMmoQQQjIOliVhBPyHH36Qt95+S67pdq3uVcAyJOxtw2g5nGLHbEO4zk4jsRvCKPfq3UveeecdXaKTH4HDv2LlCnniySekXft2EhMTo31pSGioPo+Q8BAddIuJj5EmzZrKsOHDZenSpbbb76cOCSHEflh1NNeBUPj222/ltddek9tvv11KlyqljRtS7UMoYFNzUFiIRJnGvkLlSnL1NdfIjJkzNUIGIYQQ7wP9BjYojxo9Sq5o2kQSiyZJeGSkZiJGJmddaqOBMZDlOVxnpOvWrStTpk7RvQr5EezbW7J0idx3//3SvEVzTUSJvhRRjvA8gkIcocbjC8fLVV06az6aNWvW6JIlOwF/hBBiQ6w6musg4gSiUCxZskQeeOABqVixojZmiFwBoYARotCIMJ1WLlG6lC5PeubZZ+Xw4cPWGQghhHgbWIb06fLlMnrMGOnQoYMmaUPfgRF0LDeCxRWKTw4His29Ix4cId/t+k73xuW3SGqYaUHo1yFDhkijxlfoxmXfAD8VSxAK2NSM54AkczfedKO8OOdF3dNgt9Cw5hoJIXbEqqO5DoTC0aNHdd3pGNPgV6vmSDtfwMdHhQKiWWBKGUIB4d3q1q8nT44aJXv37rXOQAghxNuAs3/gwAH59JNP5M4775TExETtOxDtCI5xct4AK3IeMhFj1hrr+E+ePKnH5ydwT6+//rru3ahZu5Zu7g4MCdKoUHgeCJOK51C8eHEZNGiQLHxnoUZJQvQnO2GukRBiR6w6mutgVAcN3DfffCOTn50stWrWcggFYxAKccbQ0MGwGQsp/ocNHybfbPvGOgMhhBBvRLO1//STRkKqWbOGBAUF6QwCBpjgHKdMMBYSEiI3GSca6/IhMOy25CarHP3lqDw/43np0LGjlC5bxpqND9clWHgWSLyG54CMzcN1f8ISnc23m2Ay10gIsSNWHc11IBQQreHHH3+U2bNn6zpSXA4MQgGxn7FPAeHvEN0Cn/Xr30++WLPGsQmLebgIIcRrOXvurLzx5hu6gRfLjZzZ/XVjc5FCmjMA/UlYWJgGzHjjjTd0X1x+y8Wz/8B+GTd+nNSpW0cKmn4S/SYG2DCzAKHg5+8QCmXKlJGHHnpIVq1apUt4KRQIIRnCqqO5DoQClh9hvenrb7wuDRs1uEQoONaZOmYVEBcb60/R2H/yySdy6uQp3dRGCCHEe0Eunp69rpey5cupY4x1+c4lN+ERjkzEmFHo2LGjTJkyRZe6IvtzfuKnvT/pHowSJYpr7gQIJufMCgwBQvAcypcvL6NHj9Ykdr/99pvt+lBzjYQQO2LV0Tzjrz//ksUfLpYmzZpcIhQKJzhiYiOSBT5Dav7OnTvLokWL5Ngvx+RPm23EIoQQkrusWLlS7hh4h9SpV1cKJxaR4PBQTcQGBzkiMlL7DixLaty4sY6mL1q8KN+F2MZ+g8GDBycnKUUOIvSdWH6F5+Dj56ufV6pUSZdqfb/7ezlz9owO1NkJc42EEDti1dE8ZeVnK6Vth7bamCHeM0aG0MjBYmJjHZ8ba9OmjW7awggKli0RQgjxXtavXy+PPPaotOvQXoqVKCYBQYEaKhWDTQiNin4Do+w1a9WUAbcPkNfmvSaHDh2yjs4fbN++Xfr37y++vg5BAKGAvjM5U7Wvj35epUoVmTFzhhw+clj+/udv20V/MtdICLEjVh3NU9atWyfde3Y3DVyERmtAeDfn8iNsyMJlwpo2bSrTn39etny9RX47kb+mjwkhhLjH9h3bZfqM5+XGm2+SsuXKqlOMzbsYbMJsNLI0h4SFSqXKlaRHzx666Xff/n3W0Z7PxQsXZePGjbpZ289aYvR/QsHqP6tWrSqvvPqKzibYEXONhBA7YtXRPAWO/+23D5BSpUslb0iDYUNzSqFQv359GTVmtCxfuUJHRQghhHgviHyEcJ/33HuPjphrX+HjI3Hx8bqpOSg0WPctlCpTWtq3by8TJkzQABr5AWxGPnHihKxcuVJ69eolAf6OMKiRllAo7BQKPo7+s3bt2prV+l+bRgIx10gIsSNWHc1Tdu7cqetHGzRsoKMgoZFhEhIeqhuyYuPiHI2/sWrVq8vwe+6Rt03H8BPzKRBCiFeD6D1YuopNunCEnX0FZqUxqxCK7MwxUZJUrKg0uqKRPProoxr5KD+A6H/79u3TZGvXXnut+FvRjbDkCrPxBREQxDwD/wAjIIxYaNqsme4HtCvm2gkhdsSqo3nKnj17dJNVl6u7SOmypSUgJEB8A3wlOi5GG3xsZMallitfXvr26yezX3hBs2wSQgjxXhC956stX8nU56ZKo0YNLxEKuk/BmqHG71WqVpG7775btmzZYh3t2Zw+fVr3J7z88sty5ZVXXiIUIBIw0IZQqcgngWVYnbt2kU+Xf2odbT/MtRNC7IhVR/OU/fv369pJbDarVrOa+AX66QgIliFhRARxoCEWSpYqKdde200mTpqkidoIIYR4L7//8btG8XnppTm6hw1dGgxCAc4ylh9h+Wp4ZIQkJiVK3759NUSq3SL+ZAaEFsf+vqlTp0qrVq2S9yhERTvCw2qy0pgofQZIWNq3X1/NQ2RX4I8QQmyIVUfzlKNHj8pHSz6Sxx5/TBo3aZycch4jI3GF4iUoJFj8gwKkWPFi0rZdO3nsscdl8+bN1tGEEEK8kXPnz+nmZOTiadGixSVCAev0dWTd/O7j66v9CkJsf/rpp3IxH4TXRr+Jexk9ZrSGf00WCkYgYAYlLDJcLal4UbnC/P/77r/f1v2muXZCiB2x6mie8tuJ3+TLdV/q9DE2nAUGBjqEQlSkNnihEWESHBYiCUmJ0rBRQ50+XmPjkRFCCCE5z19//yW//varfLDoA2nXrl2yUMAsgmNDbxGJM0LB+TnEBNb0Y9mO3cKDusuBgwfkvfffkwdGPCB169VNFgrRMTE6E4+N3Og3kYyu69VXy1MTJuhSJbtirp0QYkesOpqn/P7779qAvfraq3L11V01QQ4uDWHeMIUaER2lSXQgGipWriQ33XyzfPzxx7ZLQU8IISR3+efff+Tzzz83znDXZEEQZZxl9B0QC3CanZ9j5B25eLAJ2tNnFfbu3Svz5s2TQYMHS7Ua1cTX35FHAfsRMIvi5+8n/oEBujej/y23yAsvvii79+yxjrYf5toJIXbEqqN5CpKnodHDSE/Pnj0lODhYG7wIK8MmNmRhvSWsSFKiXNWls4bEO3PGnvGgCSGE5B7fbNsmvfvcIP5BjtloDC5hM68z8g8+gzVs2FBmz54t33//vQ5QeTIIAjJz5ky58aabpEKlChoApICfYzbFGVbcx9dHatWupeFj3174tkZJsivmegkhdsSqo3nKn3/+KcePH5dVq1bpZrOQkBBt5LABDWHe4goV1A1ZIeFhmjynSdMm8uqrr8qpU6esMxBCCPFWvt+9W26/4w6JLRQvfkYsQChggAm5eFIKBYRQnThxomZ0PnbsmEcvP9r57be6nKhzly5SskwpjRboF+SvswkxsTHJ94z8Q9j/t2TpEltnpTbXSgixI1YdzVPQWGMaeOvWrTJw4EAJtYRCWES4CoVCCUV02VGAtXcBGSZnzZqlofEIIYR4Nz/88IPc98D9UqFypUtmoNFvqFCwQmwjKduDD46QDz/6UH7e97NHC4Wvt34tIx58UBo3bSKJxYrqXj7kH0IAECw/wv0iWuAVV1whY8aO1USlR44esY62H+Z6CSF2xKqjtgAZM7FROTQ0NFkoOFPRFypcSHytzVqlS5fWvAsHDx6Uv//+2+M3pRFCCMk8WLo6dtw4adaiuRQrUVxFAvIHYHQdQsHXz7F+v1y5cnLHwDt0P9yuXbs8uu9Yv2G93DZggJSvWEGXWSWLIyzXjflPKDQ3z+TZKZNl7bovdeberpjrJYTYEauO2oIjhw/LPffcI4HIJGkuDQ29CoWkRJ1ZQD4FfF68eHF54oknZNu2bRq9AmKBEEKId4JBo1mzZ0nP63tK5SqVJSw8XPwC/NVhjsdypADHIFOJkiWk9w295blp02Srh+fiWb16tS47Co8I1xDiKooKFdS+EiFScb8QCogGNeelObJt+zZbL9c110sIsSNWHbUFJ06ckAcffDB5j0KyUEhM0E3NzvwKxYoWk3vvvVc+++wzXXOJPQ6EEEK8k19++UUDXNw97G5p0LBBch+CyHlYfoQ8PEjimVDMEQxj9JgxsmHDBo+eUVi2bJkuK8J9wnCfGhLWWEqh0NkK/oGlVmfPnbWOth/megkhdsSqo7YAUSjGjx8vpUqXFv+AAEfCtYKOyBUQCoFWRIuEhAS5/fbb5Z1335Hdu3fLhQsXrDMQQgjxNjDIhIGj8U+Nl3bt2iYvX8Voe3zhghIcFiy+gb6aVwFLcZwDTZ4cYhtRArE5G/cJQx9ZJCnBIRRM34nPfAr4SPfu3WX5iuVy8uRJW9+vuV5CiB2x6qgt+OOPP2TOnDnStm07KV6ypK67RPQKRDxCIxgU7MivUKhQIendu7e8+OKLsuXrLXLu3DnrDIQQQrwN9B0IhjF37ly57rrrJCI8QvuKsPAw7TvCoyKMWAjVZTm16tSWW27pL4s/XKyZnT0RhBR/4403LhEKmFHA7DuEAgbZnJ/36dNHMzLbffbEXCshxI5YddQWoPF777335JZbb5V69evrTEJQaIg2emjsg0Mc+RXi4uKkS5fOMnHSRM3QjOMIIYR4JxgsQuQjjLLffPPNEhkZqX1FaJhDKCASEgadMENdukxpTc72xptvyOnfT1tn8Azg7GNP3pEjR3SgrEaNGg5B4PPf0iOIIadQ8Pf3N6LoFvn222+tM9gXc72EEDti1VFbcP78efls1Sp5fORI6XhlRylcpIiGtXM29iFhjnWnUTFR0rJ1S3no4Yfkk08+YeI1QgjxYrD89MCBA9of3HbbbRIV5XCUkXcHjjOcaGz2hQMNa9Coocyc7Xkhtv/55x/5/Y/f5btd38mzzz6r4V5xn0ishnvEvWJDM/Zm4HPMqAwcNFB2fb/LOoN9MddLCLEjVh21BWjsv9rylcyYOUOXFmEvAi4xMChIhQLiRGPkJCI6Quo1qKcN4LvvvauRjwghhHgnzqSda9eulSGDB0t0tGMzb0ioQyhgpF37EOM4ow8pW6G8THr6aR2Z9yQwm3Ds+DENjTpq9CipULGC3ifCv0IoaGjUuFgJN0LBN8Bf73vYPcNlzw97rDPYF/gjhBAbYtVRW4Cka999951OCQ8YMECKFi2qjSCiHaGRx9QxoldExkZJpSqVpHuP7jL35bly/Ff7xoYmhBCSs2CkHQNNO3fulPvvu19irDwCwaEhKhQ0F4/5iX/j86LFisnoMaNl3759eqynRD+CUDh46KCs+GylzqgjLwTux8/fTwoWKqT7+iASNDN1bIxUrV5NnnjySdm/f791Bvti7oMQYkesOmoLMCr0008/6SYzJF4rWaKENoL+Af4qFLCpOSwqQmLiYqVYiWLSomULeXbys3LosH3T0hNCCMkdMEMwcuRI3ceGvgP72lIKhaBgxz63IkWKyKOPPirff/+9CgyIBU8AUYt++nmvfLjkIxl+7z2afBT3gxxD6COj42IkOCxEImOipESpUtK2XTuZNm2aho+1O+Y+CCF2xKqjtgCNIBr6zz//XB5++GEpU6aM1Qj6aSOIaVWIBUytRkVHa2KdkU+M1PjQhBBCvBssQ0WIbYyuo++AMEDf4dzk64ycV7BgQU3uuWnTJg2t6ilhUnGd2G/w5lsL5I5BA6VE8mCaY9Yd+y/8Av11H1+16tWl9w03yGuvveYRezHMfRBC7IhVR23B3//8LadOn9IMkmjsK1T4b/0lGsFC1jrTSGv9KUaNhg0bJj/++KN1BkIIId4Koh9NnDTJCAPH/rYAIwywHAciQZcepYich1w8S5cu1eVHnpKLB7Pu33zzjbzw4gty0003SVJSkuM+reW5yBuBf0dGRUmjKxrJ0DuHaiQoO2dkdmKumxBiR6w6aguwThQN4f4D+2Xa9GlSpUplbfQQ0QGNoDNGtDOiA0K/3XrrrR4R+o0QQkjOgn1u06ZP183K2LQcGBoiUbExGgkIfUiItUcBexhu6N1b5s+fL9u3b/eYENu4v3Xr1snEiRPlmmuu0SVUuJ9AI4hwf4gQiH8j6lPrNq3l0ccelU8+/cQjAn6Y6yaE2BGrjtoKNNqvvvqqVK1aVRs9mAqFpMRLhIKvj4/c2OdGTcWPESFPTsdPCCEka2Cgaf7r86VNu7Y6sBQZEy1hkRG6dt/hSDsyNiPPQteuXXX9/vp16+X333+3zmBv0M8tX75cRowYYYRAGw0h7uvnp9GcHELIcX+I+tSp05WaqXr156s1IZ3dMddNCLEjVh21He+++67UrFlTGz2YCgVn1skUMwo9evSQTz7+RI4dO6ajLYQQQrwTrOFfumyZ3HHHQKnfsIH2F0GhwZqZWYUCwqOaviM8PFzatm0ro0ePVsf75MmT1hnsDXINvffe+9Kvf3+pXbeuFDJCARmn/0tK6pgxiY2NlWuvvUamPjdV1q1f5xG5hsx1E0LsiFVHbccy09g3b9FCp4+xUQsZNZGpGetMU2ad7NKli7y54E3ZvWe3/HHG/qMmhBBCcgYIhS+//FJzDHTu0lmKFi8mvv5+GgkIjnR4ZIRDKERESOPGjXVDM9bwe0riNcy2v/TSXJ1NSCpWTGLj43XWBMnkcH9B1h4MbNa+oc8NGj4cexrOnrP/0ir4I4QQG2LVUduxavUq6Xl9T0lISlRhgHWmCIuKxhARj3Dp/n5+0sY0mM8//7xs3LhRfjvhWVk2CSGEZB/IM/DNtm9k1uxZcnPfm6VkqZLaV2CzLxKSoS/xDfAzPyOlVp1a0u+W/jJv/jxN1uYJYGYA+xNKliolPj4+Knyw/wIDaOgbsVcB91u4cGHNRfTee+/Jnj17dCbC7sAfIYTYEKuO2o71GzbInXfdKbXr1pHCiQm6zhSGxj4qxiEU/IxQaNyksYwZO0Y+Xf6pHD161DqaEEKIt4F8CD/88IMsfGeh3HX3XVK2bFntK7COH30H9ipgKRLyDJSrWEE6X91Fpj8/XQ4fPmydwd5gU/Jjjz0mYdamZexJwPIqLMtVoRAUqJ8nJiRoRMCVK1fKoUOHPGJZrrluQogdseqo7di2bZsKgCuv6qSjJ4FBQWpYghRtZd309fWVunXrygMjHpD33n9PDh48aB1NCCHE24BQQD+wfMVyeeTRR6RSpUraVyByHoRCbME4HXDCcp0iSQm6j+HJUaM00acngJwPyDEUam1aRhSnlEIBMyf4HGFTH3roIdm0eZPOtHtCnghz3YQQO2LVUduxe/dumf3CbOnbr69UrFRRp1lhWH4UE/ufUKhWrZoMHDRQk8rs3bvXOpoQQoi3AaGAZUQbN22Up556SqpXr659Bfa6QSjojLTpPxzRkMKlZOlScvewYbJz507rDPYGs+YQAIjahPtCFCcsO3IKBX9LKBQvXkxGjXpSvtv1ne5PQI4iu2OumxBiR6w6ajt+/vlnWfDWAtOI3y01atRwNPbGYmJjdeMWUtYHBAZKufLlpUfPHjJl6hTNWEkIIcQ7QYhshAL9fvf3unetdp3ayX0HRAICYmBWGstXsck52vy85dZbZOvWrdYZ7A2WVWEDdkSEY1M2ojg5hQJ+OoUC9mZMnDRRDhw4oOLJE0KHm+smhNgRq47ajoOHDspHSz7ShDH169fX2QRcbjSS55iGPiQsVEIjwqVYieLSomULefTRRzW6AyGEEO8EDjGW2WDkHbPMDRo00H4DFm/6DSzTgUONfgSf+Rmx0KtXL9m0aZN1BnuCTdoQQJs3b5ZBgwZpeFdcf2qhEGDtUShbvqw8N+05j4nmBMx1E0LsiFVHbQfyInz+xecy6elJ0rRZ0/+EQkyMxBcupFPHMIwSYWnS7bcP0MRrhBBCvJtz585pxB+EQEW/AYsvWFAd6sKJRZKFAgyJ11atWmXryEDYjAzxg83J/fv3T97MHGYEAwQCDH0hwsAW8PORGrVryotzXvSIRGtOzP0QQuyIVUdtx6lTp2Tb9m0y56U50q5du2ShgCljZ6OIJUiIG41Gs3PnzrJ69WrraEIIId4McvFcIhRMn4Fw2xALKYVC+/btZeHChboJ2q5iAfkTsOH6gw8+kN69eydvZg6LCNflVLEI8hEXq4NnCJfapn1beWPBGx6RP8GJuR9CiB2x6qjtwIjQvv375J1339GkaslCITpap48xKoSGH5/BGjVqpB0DIYQQgoGjVq1aJfcRWLKKUNvoP5wBMWDNmzeXWbNm6dJVu2ZoxswANlzPnz9funXrliwUkEcBm5ghEMKjIrVPrFCpovTuc4MsWrxIzl+wf/4EJ+Z+CCF2xKqjtgNrMhEzGlOt3bt3T27UkTBHw8ElJWoD6fy8Vq1aOirkCdEdCCGE5CxIwnn99dfr4FJQcJDmUEB41IJFCmn0PGff0bBhQ5kwcYIudf3ll1+so+0FZtixP2H27Nk6ex4S7MjAHGHlFgqJCJPA0CAdQEPI18FDh8iKlSs8IiyqE3M/hBA7YtVR2/LVV19Jnz59khv1ZKGQmHDJjAIiI7009yU5dvyY/POvZ0R5IIQQkjNs375d7rvvPqldp44USigs4VFI2hkucYXiJTaFUEBkJATNQPCMAwcPWEfbC2xK/mLNF/Ls5GelXft2EhxkCQWdRYiXgJBAKRDgIwlFE6R129by8CMPy7p166yjPQNzP4QQO2LVUdvy3XffaSr6YGsEBaND2KMAsaBCwVqSVLVqVZkyZYqGxUOae4SEI4QQ4p0gF8+kp5+Wzl26SJlyZTVSHqICxcQ7Qmwjt4L2HdWqahbnNxe8advEa5jpWLJ0iTz2+OPSrFkzCQ5x9IcYOMOSKt9AP72foiWKSteru8j48eNly5Yt1tGegbkfQogdseqobdm9Z7fce+89klQ0SYKMWHCGR8UGLggFHz9fbTArVqwoo0ePlg0bN2jCHSxdIoQQ4p3s27dPXn7lFbltwACpXqOGZvYv4OujfYgKBT8fda7LVSgn/fr3l9kvvCC7dtkzFw82Ws+bP1+Ti9apW1fDomoeCKs/9LX6wVKlS2m416lTp8r2bdusoz0DdUgIIfbDqqO25ae9P2mGyVq1a6kwSI7sALFg/o042LiNsmXLygMPPCCffPKJ7N+/n0KBEEK8mMOHD2uUoBEPPqj7EAICHMnIMCuN/sMPo/D+BaR4qRJy9TXXyFMTJshWm+biwUzH1KnPybXduknFypV0GVVgSJDOjsQZ0eNjBBDurXz58nLrrbfKnDlzdDbek4A/QgixIVYdtS1o7KdNnyYdOnaQUmVLG5EQJUGhwZqGX1PW+/trA1myZEkZOnSoRknas2ePR23iIoQQkr0cO35cVqxcqctwWrRokSwUsFwHg07B4SG6AbhIUoJc0bixDL/nHtuu68dMx+MjR8oVTRpLUvFi2g/qfgsjeFIuo6pSpYrcdffdsuCtBfLjjz9aR3sG8EcIITbEqqO2BZu4Xn/9dbm5781So1YNCYsKkwJ+BXREBUIhwEpZX7RoUenXv5/MfXmubmL7888/rTMQQgjxNk6cOCHr16+X6dOnS4cOHSQIS49MX4ENwOg7omKjJcKIBjjapcuW0fwEy5cvt462F9tMnzZk6FDda4FBMjUkHC3syCeE+4Ih+t8jjz0qS5YtlQMH7LkxOy3M9RNC7IhVR20LQqQu/nCxDL9nuDRu2tgIhP9S16Oxx74F/DshMVG6XddNnn7maVm/Yb1msiSEEOKd/P7775p7YN68eXL11Vf/JxQiIzUgBhKTxRgnOywiQiKjoqRt27aae8COfP3113LjTTfpnoRADfUaq0nWNNlaCqHQoGFD3cD95bp1cuzYMetoz8BcPyHEjlh11LagsUcuhSdHPyntO7SXqOgobRARwQJCwbGpy1cKJxSWVm1aywMjHtBRoQsXLlhnIIQQ4m1o0s59+2Tx4sXS6/peyZHzkKQMQsGZ4T8gMFA/r127tkY+siPIoXDNNdckR/mDONB7QPK4FKFekTxuzksv6VIl9J2ehLl+QogdseqobUGoU8wQPDftOenW7VqJi3U0isEhISoUIqIjJTA0WGNjV6tZXfrc1EcWvvOOnLNpKn5CCCE5D5afYvnR559/Lv369ZMQ02eg7wiPiEjOxYM+xMfXETEIG4HnvDTHltmM165dK+3bt9frhGFvAq5fs0ynEApt27SVt99+W/f2edpgmbl+QogdseqobcGo0I4dOzR1/c033ywFCzqSrGHJERp5RH0Ii4yQsKgIXXNar2E9mTFzhpw9d9Y6AyGEEG8EQS22bdsmd9xxhwRaMwdhEeEOoZCUqKPyztCipUuX1rCizuzMdkna+dfff8nSpUulZcuWep0wp1CApRQK7dq10xkUCCRPi/xnrp8QYkesOmpbMCry888/a7KZwYMHS5EiRbRBxDpNCIV4Y1ivGWD+jc/jCsfJqDGj5I8//rDOQAghxFvZu3ev3H333clLj8LCLaFgzSj4BTgi55UqVUrGjh2rYUUxk53Xjva/5j+IhGPHj+mSqKZNm+p1aj9nhEJhzCgkXjqjcOWVV8rHH3+s1+9pmOsnhNgRq47aFowI/frrr7JhwwYZMWKEJCYmaoOIdaXONZrYlBYQ7BgtCgkLlocffVhOnjxpnYEQQoi3ghmCxx57TIqYvgJ9BPYoYG8C+g8IBX8rbGrx4sXl4Ycf1khJx48dz/MQ25jRwIw6Bsrmzp0rja5opNcJg1BA36ez6hAKPgV0s3b37t1l9epVHhnMw9wXIcSOWHXUtvzzzz/a6P3www8yZswYDYOKy/YP8NeGXkeFzM/gUOf603B56KGHkqePCSGEeC8YNHp28rNSq05tDSmKhJ3JSTuNo+3czJyUlKQzD8uWLdNN0HntbEMoYGb8+++/l1mzZkmDBg30OmHOa0fUJsyoI6hHYlKi3DbgNhU6nphw1NwXIcSOWHXU9sDxnzx5spQpU0YbSv/AAG0oMYVcKKGwNpT4PCIiQu699175ycOSzRBCCMl+4Gy/NHeudLiyo5QsXUqi4mIkxPQXzqSdgVbYVCxrRVbjBQsW6PKjvN4MDKEAkfPNN9/I1ClTpG7dunqdMAgFzKRD8OA+8O8qVavIvffdK1u/2WqdwbMw90UIsSNWHbU9SLw2c+ZMqVGzhhTw9ZGgkGBHHGnT0GNmAetOcTvh5ueggQNl06ZN2kF44sgKIYSQ7AHr9RcuXCg39+0rNWrVlGgjFHwD/ZKTdjpz8SBQRq9evWT27NmyZcsWXfaTl0AoIBcCZggmTJigydRwnTAIg9iCcRIaEa5ZmhOLJkmjK66QJ558Unbv3m2dwbMw90UIsSNWHbU9p0+dkldefUWaNm+mIVERuQIjKc6kM/g3bicsLEyjI328bJkcPHhQzjNMKiGEeC1nz56VZcs+lnvvvU+atWguMfExuqY/ONwRYjvEWrYaGxsrV111lYwfP15Dqub1hmAIhUOHDsmKFSvk8ccfl2rVqjmEgo+PxJt+D3sTgkKDVfCUKlNa2rVvL88884zs37/fOoNnAX+EEGJDrDpqe+Dwv/vuu3L1NddI8RIldFQoPCpSQ6KisUdsbNxOaGio9OzZU95euFBHVjwx+gMhhJDsAX3H5198IWPGjpVOna+S+ELx2lcEhTgi5+kgk3G+Y2JjpHHjxnLnXXfKokWL5HQeJyzD/jzszUNehLvuuksqlK+g1428D9iMjb7PL9BfQiPDpEKlitLtuutk5sxZcujwYesMngX8EUKIDbHqqO3B6AoyLg8YMEBq1qqly41CwkN1NAUhUhHJAreDpDoQEy+/8ops3faNaexPW2cghJD8x+rVq6VFixYZtueff9460jvAXoNNmzfJtOnTpOf1Pf8LsR0UqEIBM9NBoSG6KRgO99XXXqN7GpCLIC+BUMD+hOmmvG7o00dKlCih1+3n76dCAUuOCvhhZiRYk41iadUrpt87cuSIdQbPAv4IIcSGWHXUI1i3bp2MeOABadGyhSQVTdKQqMFhIdpoRkRFaiMaHBIs7Tq0l2cmPytfrFkjv534zTqaEELyHxQK6YPoRTu/3SnzX58vt952a3LkvAArIAaWr0ZER6lgQF9St349efqZpzUsd14CofCl6fNGPvGEdLzyyuTQ4Nh87ejzHINjwWHBUq9hfRl65506k/7LsWPWGTwLcy+EEDti1VGP4KuvvpJx48ZKl65dpHiJ4joFi9B28QULSqRp6HE7gcEB0qhxIxnx4IPywaJFcvToUetoQjwTOHawIUOGqLly/mDO/4+/hfMII/kfCoX0+fPPP2Xvz3s1aefw4cOlZEnHyLy/v78KBexxiysUr30I+pQiCQnyyCOP6EbivASBOD799FMZNHiQNGjYQAoXKaIiAUulHMttHfvyQsNCdfDssccfk6XLlmngD08E/gghxIZYddQj2LFjh0x/frr0ubFPcphUpN9HBAis18Q0bEBIgFSpXlWnYee89FKebOxy1Tm7Y3nl4Lm6FneMZB9OYeDqObtrTuFA8icUCumD7Ma/HPtF1q1fJ4+PfFzKlrX6Dn8/dbiRiwdhtiMiHbPSAQEBcuedd8rhPF7rD6GAvRJYLoUlUZhFCIuM0FwQuO4wKyQ4Iv116tRJnn32GVmzZo2cOnXKOoNnYe6FEGJHrDrqEezZs0enjwcPHSKVKlXSRhKb0OLi4yQmPtaIhEAJiQiVEqVKSNt2bTV6BY7JbVx1zu5YXnTk+E5X1+KOkawBhy+7xIEro2DIn1AopA+W8CDy0e49uzUqUPny5bXv8PH1cQiFpAQVCxHWPjcf06fcfvvt8mMe5+LBdS98Z6F0uqqTFC1eTPs4LJHCXgpcd2iYQyhEGoHTo2cPefmVl3VPA8KCeyLmXgghdsSqox7B/gP75aOlS+ThRx+RmrVqOoSCsVgjFHTNpmlEnRk3K1epLMPvGS47d+60js49XHXO7lpukx0OKskcOS0QUpu3OYr5HQqF9EEgDIA9By+++KJUrlzZ0Xf4FLh0RsHa54YlSbfccos63c5j8wIIhTfefFNatm6l/ZszozSyMeO6Q8JC9Xqjo6OlX/9+smjxIvnxpx/zPP9DZjH3QgixI1Yd9QiwSWvtui9l4tOTLklnHxtnGs4ihXVTGhpRNKBIntO3782aOCe3cdU5u2u5PfLr6hrcNeI+2TGTk1nj7EL+gEIhY8CBfuONN6RevXrabzijBxWysvtHWkIBS49uvLGPfLHmC/n9j9/zLGknojXNfXmuNGjUUJccIRw4ZhOQkVmj/ln5H2JiYmTgoIHy2arP5MjRI7p52xMx90IIsSNWHfUIENcaqfVfnPOiNGvWTBtJGBLPYEQIjSdmFzBShL0LV199tXxphEVu46pzdtdyszPPLmeVuEduziKkZVkRC3RQ7QHLIWPA8X7vvfd0WSo2AmNACQNLTsfbGRADMwrdu3eXDz/6UA4dPiTnL+RN0k6EZ31u+jSpUr2a+AUFqFhwXissOMQhFDCjgDwLGzZskJMnT8pff/1lncGzMPdCCLEjVh31CNDQI1MlEtC0bdv2/4QCppCx7Mj5eZu2bWTFyhXW0bmHq845M5ZbZJfDSjKOHUSC0zIrFuig2gOWQ8aAA73s42Vy/fU9pURJJO2M1ZCoSN6JpTwphULnzp11P9yu73fl2Zr/gwcPyvgJT0kpa/N1aHiYCgTnoJhTKMTHx8v9998v27Zt070YeTUDklXMvRBC7IhVRz0CrNlERIelS5fKVaYhRyg73AJmEVwJhebNm8vixYs1M2du4qpzzoxl1oFzF1ffnRkjGcNOIsFpmXnX6KDaA5ZDxlmzdq0MGTpU6tStKwlJibqcBxZfuKBERUdrv+Hn56ezDjNmzpDNX22WEydzN/Ea+jksH/r+++/l8ccfl8SiSXpdmAGBQNBwrqafC7b2KBQrUVxGjhwpu3fv1lCwebmvIiuYeyGE2BGrjnoMmFVYZTrGHtf31IbSx99PG83CCY6RlpRCoWnTprom9ZdfftHRpNxqQF11zpmx3OjQ8R2uvjszRi6Pu05dbpq70EG1ByyHjLN161ZNYNauQwcpWaa0ZvdHP4I8Cgg7in4DQqFZs6Yy/qnxsvKzlRpaNTdBX3X69GndX4eZgoKFCul1YQbBkfOhoM6GhESES0BwkFSqWkUmTJzoCAXuoSIBmHskhNgRq456DP/++49s2LhRbh1wmxRJStTpWMwoONduphQKjRo1kjlz5shPP/2kU7KeJhRgOU12jm6Ty5MdzxvnSG2u/s5dc9eBpINqD1gOGQd73J6dPFnDiZavUEECjaMdEBQosQXjJDo2Rve3+QcESN16dWX4vffI2wvf1mh7uQlmBY4fPy5r167VvQdxcXGWUAjWJVLo7xD9CDMhETFRUq9hA3l+xgw9xpOBP0IIsSFWHfUotm3fJg+MeEBq1Kyh4gB7FNBwIoJFSqGA6BbTnntOtm/frkuWPFEowAnISVx9Z2aNpA8cNFfPLSMGMXA5Bw/virtOY2pz532jg2oPWA4ZB3l1XnjhBenfv7+GSfX189MlrOhD4ID7BwVIUGiwVKxcSa7vfb08N+05+X73buvo3MG5F2/58uUyaOAgiY2NdQiF0BAVCphNgEhAn1c4MUFat20jr772mg6GeTLwRwghNsSqox7F97u/l3Hjx0mrVi2lZKmS2mCGOGcWIBR8HEKhZs2aMnbsWB2ZwfIjTxQKOdmpZ8VxdWUkfTI78u+O8+4ks2XrzvtGB9UesBwyzs8//yxvvvmmjtTXqFEjeVApJjZGlx9hKVJoRJgULVFMmjRvJg898rBs/eYb6+jcAWFcf/jhB3n//fdV0CD8Ka4xJDRUhUJUbLS5xnCN2ITlU12v7qqJ2f7y0E3MTsw9EkLsiFVHPYqf9/2sIz1oIMtVLC+hkWEaPg4RLOILFtSMm7g1ZG++77775INFi2Tv3r0eKRRgOUV2LVlxGkkfV8/scpYZkeDEXQfSaRmFDqo9YDlkHIzUL1myRB577DGpX7+++FhCAcuOsKEZkY/CozFaHyXFS5WUm/v1k3Xr11tH5w6IsoS9FHPnztUlUlFRjmhMoWEOoYDEohA0EDaVKleWXr16mT7uA4+NduQE/gghxIZYddSjOHz4sCaiufGmG6Vq9aoSFBYkBXwLmAY0UpcfIZEObq106dI6IvPinDmyY+dOjSaRG7jqnLNiWXEW0wLOgqvvyoqRtMnM884Ohy4z35vR940Oqj1gOWQcrONfs2aNPPPMMxoVz8fHMagUHRPjSNpprf/3DfDXjcIdOl0pKz/7zDo6d8Ay2c+/+FwmPT1JrjTfHxERodcYFh6mQiE8KkICQx37FWrXqS233nqrih9PzZ/gBP4IIcSGWHXUozh27JhuMhty5xCp16CeBJtGE7eCBhRCITDICAefAlK0WDHp0rWrjB03TjdAe6pQyImOPbtnE2Akbdx12FE+2YWr86dnGX3f6KDaA5ZDxkE0oZ07d8rLL78s7du3134DhohHyM4M5xtLepzLV5s2ayZLly2zjs4dfv3tV032NuLBB6V5i+YSEekQCuHmJ64PYVL9Avw00l+z5s1k+PDhsnLlSgoFQkjOYNVRj+K3334zjfdSefSxR6VFyxY6JYtbQbZNbUjDQ8U/MEDDpTZu0kTuuvtuWWEa0tyamnXVOWfVshtX35FVI2mTl0LB3e+mUMhd8BzxbGCuBDw+g6X1/FgOGQcbhTEjjfw6Xbt21X4DBqGA/kJDbBcqmPx5w4YN5YMPPrCOzh2wn27+66/LrbfdptGXsAzKL8Bfr9ExEBao15aQmCCdruokT456Ur5c9yWXHhFCcgarjnoUmJpd++VamTJ1ilzV+SoJDw/XhjPM/IRQwBKk4LAQ3dhcqUpl6X3DDbL4ww89WijAGcgu4Ci4+o6smitc/V16llUnJjP3lhu4e13Z6cy5+92pRUpmnmlmLC1c/W1alhWB5ep8aVlWvseJUyC4On96lvrdyA6h4Orv0jNX53CHzNx3doA+ALMKq1at0rX9/sYBR9+BvQma9dg43+hD8BmsTp06movnzJkz1hlyHgiZ2bNnS/ce3aVy1aq6eRlLjZBB2rG01nHNxYsXM31bb5k2fZp8vfVrCgVCSM5g1VGPAmHgEA97wYIF0qdPnxSbvRxrOLExDcuQsNYU2Tc7dOwgb7/9ti03M2e0w8wOx8QJzuXqO1JbRv/Oaa7IbYfA3WvOzueaHu4+h6w6Yilx15FM/UwyU4aZsbRw9bdpWVbK09X50rKsvjdZfab4fufgQXYIhcxcT1bA9bs6Z1qW1eftBH0AMvWvX79e+t9yi0Sg7/DB/rao5Fw8KhSspUeIjDR79iw5cPBArmU9xobrqVOnSscrO0qZcmU1SAdmyWPiY1Uo+Pr56rWVLVtWnwuiOCErc24trc0p4I8QQmyIVUc9Cuf08YoVK2TgwIGXho8rUkhiC8Zr4xoWGaHW8IpG8uprr9pyRsGdTt7pGGQVV+d2Ze78LcwV7joxsKzcp6vzpWfZ6ZCnR247YqnBM82opSarTm1GLS1c/W1alhWH0tX50rLMfg+er6vzZdacZebq/6Vlrt75zFyXq3clo7g6X3qWnfUU/QCiCt15112SWKyoBIQEqVBAfoJ4IxLgjDsj51WpUkWefvpp2b5ju5w6fSpXnHFkWH5qwlO6/6BYieLJfRmSwqW8NuSBeOSRR+STTz6RAwcOUCgQQnIGq456FBjZOXHihI4K3XnnnRId7Ui9jxT3zhEhiAXEw/YL9Jcq1avK8zOel99//906Q87iqqNLy9z5++zoLDPq9DkdIVf/Ly1LC1d/m55l9j4zem8pLbfIbUcsO8nMc82MpYWrv03L7CwUMvMOZMTcLZ+06perv03PPLme7vlhj+5xq1S1ijrimH2GYVYh5ah9xYoVZdSoUbJu/ToNopEbg03IofD4yMelTt06umcC14cEa1hKi2tLOdsx/qnx2g/i2igUCCE5glVHPQo01r//8bts+XqLRnxwCoWgkGDHOlPTuEIsIAkbPi9drow8NXGCTunmBq46urQMzoM7HWdWgYPj6rypzekEuPp/aVla5JZj4O73ZMWpdJfMOol2EAuZKb/MWFq4+tu0zM5CwdV58sKcdTs13lRPMSONmYLGTRpLUrGiydmOER61IISCFWK7XLly8uCDD8ry5Z/qqH1uCIXt27fLvffdp9mhcV1OIQOREI+Eoua6YNg/MfW5qY7ZjlOncm1pbU5h7okQYkesOupRYOTk4sWLsuv7XfLoo49KYlKiNpwIGweBAKEAwYB/4/OkYkny2OOPy65du3TZUk6PvLjq7NIypyPo6v+5sqw6jq7O6cqcuPp/aVlaZMZJzsx9ZlQEOS0thymncHUNGbG8FgsUCv9v7n6Pu+9mTlpa77031VNEzpv9wmzp3LmzlKtQXjcKIwAGfqIPcW5yLlmypAwePFj3uGEfQE6HIMX512/YIANuv930a0nah0EoIGQrriulUKhXv57eww8//iBnzp6hUCCE5AxWHfVIMEPwzLPPSPXq1SUkNERHhNCgYp0phEKw+Qy3WMj8+9777pVNmzbJyZMnc7yxd9XZpWXOjjajzlhWOs2MfofTCXLXcUgPV3+fnmXmPl2dJz3LbTLjiDkNZZIZpyw7yOh7k1VLC1d/m5a568CnxNX50jJ3vicr5Z4Tll7dcvX36Zmn1lMsXX399dflpptvlhq1akpETKT4BPhqxDw45AGBAdp3JCYmSu/evWW6uc8tW7bostec4p9//9GZ8uXLl0v3Hj10KS2WGSE4h3MATJceOYVCw3ry0tw58vO+n3WDNoUCISRHsOqoRwKn/6WXXtJcCoWNMHBO0TpHX5xCIS42TgYPGqSbnzHljFmFnMRVZ5eWOZ0/d5yJzJLRkTxn5++ug5Me7jqb7jog7p4/Kw5lVnB1Le5abgsGd59tZi0tXP1tWmZHoeDq+Ly09OqWt9RTLNX54INFmmOnUZMrJDzaCrEd4YicFxTsSOJZsGBB6dCxozw+cqSs/vzzHO07/vzrTzn+63H5YNEH0tF8J74fFhMbqyIBhn0Kzj0KVzS9Qua9Pk+OHD2SaxGZchJzT4QQO2LVUY/k3Llz8uaCBZp9uVSZ0ioQwiLDVTCgsccsA24xJjpG+vXrJ++9/55uYsNxOYmrDi8tS+n0ufr/riyzjqKrc7kyJ9kpFNw9F8wdMiqCnOaug5NdZOY5pGW4h8y+C+6A78B3uTJX15WWoYxcncNpaeHqXGmZ3YQC7svV8Rm1lM8H3+nue+7K0nvW3lJPEdji0+XLVQC0addWIqMjta9wLl8NiwjXfAVx8fFSv0EDuX3gHZotOSeFwoWLF+TwkcPyzjvvSLt27fR6tP+KcwgFXJdmjfbz0dmPth3aygeLP5A/zvxhncGzMfdKCLEjVh31SDCKsmjRIulz441StVo1iSsUL0FhwRIR5Zg+dmZsRp6Fnj17ytyX58rWb7bKH3/kbMPqqsNLy1I6eugUXf1NastM55nRc6d0gNx1Gi6Hq2PSM3ecYFfHp2d5SXY4e6kN5evO88oO3H0/Muv0uTpXWpby/XUXV+dLyzL6Pa6OzYhdriyz8g5drhxcHZOeeWI9RQI1ZDOePGWyXH3N1RIT6wixjVlo9B3IgoxgGNjcjD0MV197jSZey8lBJpx73/59mhehbdu2lwiFgkUK67VgEMw/KFCX2V7bvZt8tnqVdbTnY+6VEGJHrDrqkSACxafLP5UhQ4dqrgQ08AiHGmoaeB0VsqIeRUSEa/KaCRMnyOrPV+u0c07iqsNLy1J22u44Xu6SUccis9cDuxw4t6vj0rKMOpbunjcrzmR2kRVH73KG5+GO85ZZ3H0/MlqeqXF1rrQsK2Xr6nxpWUa+x93nA3Pn+jNzftjlysHd+pTRcnX3vDlZT+GUI7rQa6+9JjfddJMUjHdsEsaSI+fIPXIrwDFHtuZmLZrLC3NezNHRe2SM3vntTnnxxRf0/nE9MBUK5poQAQlLayFgCiUUkRtvvlnWb9xgHe35mHslhNgRq456JBAKa9aukccef0zad+ggRUzjiVsKCg7STV/hkY51pyHhIUZINJRhw4fJe++9J8ePH7fOkDOk7vDSs9SdrKu/cWXuOoKuzuHKUuJux345MuPYZAR3ne6MOjY5jbvXnRnLyXulUEgfd+sPzN16nZk6dbly8IZ6iqh5+/btk2XLlsnQoUOlSGFH3xFo+g445cjDA6ccI/ewGrVryZTnpsrJUyetM2Q/v/zyi6xZ84UOaDVs1FCvBwahgP4M1wODeClVtozcMWigbPn6a+toz8fcKyHEjlh11COBUEAuhSlTp8j1va6XYsWKacOK0HZoWBHBooBfAQkOD9aka31u7CMvv/yyHD161DpDzuCq00vLUneGGXUu3OlEM3rO1M5PRo9zWkZwdVx6lhHHydVx6ZmdyA2xAHPnfckoFArp4+q49CyzzycnHHBXx6VnnlZPEfnu119/1WRlI0aM0OhG6DsCgwJVKKD/wAh+KPYqBAZImXJlZez4cbpxOKdARubFHy6Whx5+SGrVqpUsFLDkCMtqkZ05HFGZihSWmka43Hv/fbJjxw7raM/H3CshxI5YddQjQT4ExLZ+c8Gb2lmWLVtWG1ZfPz9t6HU9Z3CghEWFS9kK5aRzl84y/fnpGvkoJ3HV6aVlqTttd5yvjJJRRyJ1Z49rc/V3aVlGcPec2e3UZMWRzCncfSZZsYw4dBmFQiFt3H02sMySE+WQ3+spBpmw1Ad71pChOSEpQfsOfyMKEFobhizNWMaKz/HvEQ89qMEw/jX/5QR79uyRefPnyaDBg6Vy5cr6vTAIBSyFCgwJkuDwEClaopi0bN1KRo0eLd9//711tOdj7pUQYkesOuqRQCgglwLCnj7++ONStUoVbVh9fH1UKKCBxYgQBEPxkiU0jOqkSRM1w2ZO4qrjS8tcdbCu/s6VZcTpy6gT4apjdtdZyAjZ7UDlhEOTF+C5oAxcXXN2G74nI+/O5XC3LDP77F2dKy3LioPp6nxp2eW+Jzffy5woh/xeT9F3nD13Vr7b9Z08OfpJ43wX1b7DP8ghFIokJuhPp1CIiIiQIUOHyFdbvtLkZn//k/0Zmnfu3Kn5GhCco0wZx6CXj6+vRl5CLoUC/j7iH+wv5SqUk+t6XCfPTXtOfvrpJ+toz8fcLyHEjlh11CNB3GhMH2/e/JURAJOkZs2a2rjCIBQwIuTYkOYIL1e7bh0VFBi5yUlcdXxpmasOMaOdakY604w6n1m5DqdllOw8r7vOtd3JjIOWWcuqWKBQSBt33/GslEVOlUN+rqfoO+DsHzh4QCZPnSyVq1V2LFMNDdG+Q2cVTJ/hDIgRGhoqt912q3yx5gv59bdfcyTx2tdbt8r4p56SrtdcLSVKllSR4B8QoLkTomKi9Dr8g/ylZu0aMnDQQJ19yOlBr9zE3B8hxI5YddQjQWOPeNi7du3STq1OnTqXCIX4wgVNAxujMwoId4eRmLuHD5OvsQEsB5PTuOr40jJXDoc7Hf/lcHWMK3NFdjoKKXHXsUnPiXL192lZVpzI3Ab37K5zlRnLyjPJKQc1Na7OlZZl5X5cnS8tu9z3uFt26b3jlyOnysHd86Z3D67+Pi3LShm6y6nTp+S1ea9Ji1YtJCYuRgeWsHkYzjnEQli4IyAGhELfvn3l408+1lnsnMinsHHTJnn0scekbft2UqxEcQkIDpSg0GDtyyLNdeE6AgMDpEnTJhrAY8mSJboBOr9g7o8QYkesOuqRQCigwcYmMGxSbtSoUbJQQEMfjzB3ptGHSAgKDdFZhVtuvUXWrl2rKe9zCledX1qWVqeYUSc9vc45o+dI6xrcdXbcwdXxaVlajk1G789pGXWQ7ATK1937dNcy65jllIOaGlfnSsuy4mS6Ol9adrnvcXVMepYVcrIcXB2flqV1Xnff38y+J5nh4p8X5f0P3pdrrr1GSpQs4QiLGhMl0UY0YFNzeMR/QuH666+Xtxe+rfvisPwou0EEv2HDh8sVTRpLYrEkCQ4LkdCIMBUKyA2E6wgKCtJkbMj/gL//7bffrKM9H3N/hBA7YtVRjwRCAWtNsfzo7bfflpatWjrS2xtDxAosPYLp+k4fH83U3KNHD1m+fLnORODYnMBV55eWpeVwuNP5p0VGHf20OuaMHu80d3DXeXCFO9d3OcfOE8hJ0YBzuwuFQtq4OiY9ywo5WQ75vZ6iD1n28cdy4403SsXKlRwbmCPDdWZBhUJkhDrowcHBclXnq2TmrJmycdPGbM/Fg75o+YrlctvtA6RGrZpSKKGwioTwqAgd8IqIdAiFYCMUunTpIi+99JJ8vfVr3ZCdX1CHhBBiP6w66tEgeQ6mYa+86ioJDAkWH38/jTeNzcwFizhmFXCrsCuvvFKzOSOXQk6sMwWuOsC0LL2O0dXfu7K0nDxXf+vK0sKdDh7mDu46N67u0dXfpWWZdVLtCp5HdouGtN6jtHC3DCkUXFtWneOcLAd3z+3qHXL1d2lZXtTTVatWycBBg6RuvXrqoGO5D4JgYOlqypF8BMMYNXqUfPLpJ9mei+fCxQuy+KMP5frevaRs+XKaxyHMiAT0YxAsESkEy3XXXScLFizQiEfIMJ1fMPdHCLEjVh31eNBB9ejZU2cPIBYizU9MIyPmdEqh0Lp1a5k/f77s3btXzp49ax2dvbjqANOy9JyEjDqCrjrXjB6b3vfj/7k6Ji1zF1fnSMtS32NG789p+Rl3n0Va5q7DSqGQNq6OScuycs0gp8vB1TnSMk+spxs2bJBHHn1U2rZrJ0nFiopfgL8EhTiSdmLZKmaoscm5bv16GvnojTff0H0K2QmWMi14+y3pcGVH3RvhTKzm6MP+m9kICQmR3r17y+LFi2Xfz/t0kCy/AH+EEGJDrDrq8WzevFluueUWKWoaeowCYekRDKMxKYVC06ZNZcaMGbJ161Y5ceKEdXT24qoDTM/Swh0HIDUZdfLTcxoyeg6nuUtWnAh3ri2rjpingPfF3TJLbThHRqFQSBtXx6RlWX0/c7oc8ns93bZtm0ydOlV69eolpUuX1n7Cz99P97mh7wgICpCwiDCpVKWydO/ZQ6Y9P132/vyzdXT2cPLkSZn78svS8IpGup9OZzSMUEH/BeHg3CsBoXDzTTfLp59+KkeOHMmRTdV5hbk/Qogdseqox4MMlcOGD5Oq1apq44rRGIzKoLFNKRTq168vY8eO1elmNLQ5gatOMD1LD1d/78pSO3iu/saVpYc7nTzMXdx1cFLeozvXllkH1VPBc3K37JzmjrOW0w6qE1fnSsuy4my6Ol9adrnvcXVMWpaVawY5XQ75vZ4iXDZmmXGtlSpWdPQVPo5EZzBsKsZegZJlSknrdm00Q/MPP/xgHZ01sEcCHDt2TJ6fMUOqVq+u3w+xAIGAABxYDhXm3FRthMJtt90m69at0/0JSByXXzD3RwixI1Yd9Xh2ff+9PPHEE9K8RXNNrobNaNgMhlGh2Lg4R+NvrLppiO+991559913dflRTuCqE0zP0iOjo3kpO9mMHpOdzg4sM7g6T1qW8h5d/f+0zFtxx0lLaSkdvfSgUEgbV8ekZVm5ZpAb5eDqPGmZp9VT5CJYtmyZPPbYY5fk4oFIQP+B0X30J4lFk6TBFY3k0ccf08hH2QGEgjOfw7OTn5Vy5cvrdwcEBapQQOI3iIXkMK0hoXLnnXfKd999l2MZovMKc3+EEDti1VGP58effpLnnntOruveXSpWqSxhkeGa8j4mPlYbfGRrxu1WqFBBlyi9+OKLmn8hJ3DVCaZn6eGOE+Akow7i5RwGV8ekZ5kB1+DqXK7M6VBl5hhvJaPvQkqjULi8Xe57XB2TlmX1Hc2NcsjP9RQbk9evXy/PPPOMNGjQQPsJmAqFQgUlPCpShQJmp6tWryb33HuvZlHODhDt6Nz5c7J7z24ZN26slCxZUr/bP8BfZ8ZTZ4gON4Lh/vvvl4MHD1pnyD+Y+yOE2BGrjno8aDjfXLBA7rzrLqnXoL6EhIWIj5+vbm7GqJB/YID4mn+XKl1aul3XTSZOmiTffPONdXT24qojTM8uh6tjXJnTwXP1/1JbRjpmV8elZ5nBXScH4Npd/T9XllnnNLvA/eEaMmrOMsxOXD2X9AzXkRFyw0EFrs6VlmXF4XR1vrTsct/j6pi0LKtOcm6UQ36upwh1iqWrs2fPliZNmlwiFBCaFEtYYRALJUqVlNsG3KYboLODv/76S3MhbNq0SR5+5GEpVrSoJRQCHPsTEoqoQAkJC9XPsf/u4YcfzvaoS3bA3B8hxI5YddTjQcO5cuVKGf/UeGnVupWGs8PtIaMlGlqsM8UMAzJetm7bxjTKj8iGjRuto7MXVx1henY50Im6Oi614e/c+dvL4eq49CyzuDpXWpYZhyUvyWh5OC2rTqMrcuoaKBTSxh0nOatlbsdy8KR6iuh3WIY6b948vRb0GzAIBTjrCIoBoYBoevgMG5oRIjU7ouZdvHhRE4Yi4/Ndd90liYmJ+t1YeoTvhiHyEfYs4HPMcIx88gnd/JzfMPdHCLEjVh31eDAqtPmrzTL7hdnS6apOyUIBiWoQDxtLkUIiwiShaKLUb9hAhtw5VFZ/nv2jtyB1J3g5Q6eaHu50uhl1UDKCq+PSs8ziriObUcuqA5YduOswwbIbCoWM4ep8adnlviej9dBpWSG3yiG/1lOM6mOg6YMPPpCOHTtqck70HQiCgRkF5DRAcAxffz8JMmLhyk5Xyvvvv68zAVndTHz+/HldAvvWW2/JrbfeKkWKFNHvDjT9F0QChAG+OzQyQgKCg6RcxQoy6emnNWFofgP+CCHEhlh11OP5448/ZOe3O2X+6/Pl2muv1cQ0uD0kqkGDixGh8OhIXe9ZuWoVubnvzbqBLSeSrrnqDNOzywkF4K7jkZ5ltGN2dWx6llky40xnxDLrEGUnFAr/mTcJBXefeUbagLTIrXLIz/UUDvtnq1ZJ9x49JCQ0VAr4+mifAZGAGWnMJKA/geGa33zzTY2ahxmBrIA8CF9//bW8OOdFzY9QsGBB/Y4g0385ZxPQb+FnUrFi0rJ1a91fh/4uv2HumxBiR6w66vGgwf35559l0eJF0qt3L403jdtDohpng+tMYFOseDHpenVXeeedd3Ik6VrqjvBylhEnITs76Yx2zK6OTc+ygqvzZdXsgqtrS8+y4jS6wl2nlULh8pbdQiErznJulQNwdb6sml1ALp5+t/R37GkLClSh4MzFg8/Qn8AaNmwoc+bMkR9//FH7D2eI08yAzMpffvmlPPPsM3L1NVdLnBWhLzjEIRSQ8C0kPEwTh9aoVUv63HijvP322zmWLDQvMfdNCLEjVh31eDAzgKngzz//XPr3758sFBB/GrMIzilkRI8INv+vUaNG8vLLL+uSpezGVWeYnmXUMXR1bGYso7g6Nj3LCu46VpezrDiM2Y2r60vPsvvacT5X35OWZfT77SgUYJnF1bnSsow8I1fHpWVZKfPcFAr5uZ4ikhEyL2MfG/oNDCy5Egq1a9dWx37zV1/Jr6bPyYpQwMzAihUrZOQTI6Vt+3YSHROl34FgHPheXAeWPBUqXFiam+d1zz33yLKPP85XGZmdmPsmhNgRq456PGisMQ2MSEaDBw+WUEwfQyiEO4QCYlGj4UU0CXxevnx5Daf6yy+/JB+fXbjqENOzjAqF7Oik3emYXR2fnmUFd52dy1lWnKHsJjPlltF3IiO4On96ltFnR6GQPq6OS88y+3xwLa7Ol5ZlpW7k53qKJGoPjHhAKleprEuNsEcBYgF73FQo+DiEApJ6IpfCJ8s/lQMHD2ap70DStA8//FCGGwHQpFkTiYiJ0O8IjQjV/gpLkPDvwkYodOnSRcaNGydr167NVxmZnZj7JITYEauO5ht++uknGTZsWPKMAmYQIBKKJDniUfv6+ennxYsVl/Hjx+vfQ2AgnnV24apDTM8y6hRmRyftTsfs6vj0LKu4OmdmzU5kttwy+l6kh7tOJCyj74i795VbjnBmnpu735ERoZCZZ+8umXm3suqcuzpnZs1O7Nu3T8aMHSONmzSWpGJFJTLGkbQztqAj8ZqPr6/2HRhkGnrnnfLmWwtk9549WRIKmNFeuHCh3DZggNStX08iY6OkgL+PZoKGUAgIDNTvTExIkD59+mgIV+xpyOreCDti7pMQYkesOppvQCp8JKRxRj0KDQtNFgqOGQV//bxYsWIycuRInYHI7lT4rjrE9Mwdx8bV8e6YO7g6Pj3LKnBgXJ3XXcuIE5fbZMZphGXFqcvsd2aUzDipmSEz74U7ZOY5ZeQdy8x1u/PuZub5w7IqFPJrPT146KBMf3667hUoV6GchESEiG+gn0TFRuuGZj9rkKlEiRK6V2D6jOflm23fZEkoIMwpwrL26t1bqtWooaIkMDRYvzPlDHjx4sVl4MCBGh3p+++/z5EgHHmNuU9CiB2x6mi+AU4/BEBsbKw2sFh6VLBIoeSlRwGBjoa3aNGict9992lne/jw4WxteF11iumZO0IhK520ux2zq3OkZ1kls45PasuqI5QTZPXecE8ZfU/wt5lxfmE5/Y5kxjnM7Dt/ueeVG88pM+fHMeldO/5fZp8JDMdmhay+y07L6nVkN0ePHpXXX39dBtwxQGrVqSVBYVaI7ehIFQrOviMxKUmXAY0ZO1YTr/2TBaGAsKyzZs2SKzt1krLly+s+urDICImJd+yN8LMGtkqXLi333nuvLF26VIN2IKRrfsPcJyHEjlh1NN+AzWHPTn5WqlStYkRCmCZc03jYpqFHw4v41LhtxKseMGCARj76fvf32brm01WnmJ5l1AEEWemk3e2YXZ0jPcsOXJ3XXbMrWXHuUhocSafhnCn/7erv3bGcfkeclvKanZbWd2fVMcV5Uxq+y9XfuWM4R0bA97k6PiOW8rlk57XjPFnF1XndNbuBYBgImf34yMelRcsWOhuNvgKR8zRpZ2iIZvcvkpggrVq1kgceGCGff/5FlmYUkGztqQlPSYOGDaWwOS82TyMDNASDCgV/xyxG2bJlNSMz6gIGtigUCCG5hlVH8w0QCi+/8rJceWVHKVWmtG5KwwiNM3qFc3MY4lVff/31Mmv2LPnqq6/k7LnsCzfnqlNMz9wRCsDVOS5nGXVsUuLqPOlZdpAVxwqWmfvMTbLD0cspy8yzy2p5pbT0HFhXf5+X5s6zsluZZ4dQyI/1FLPR6zesl+dnPC9du3aViAjHxmKdlTZ9ByIQIbs/9rrVb1BflwJ9+umnWdrftnv3bnno4YekbPlymhQUIVmxgRqJ1vCdzj11FcpXkNGjR8umTZvk119/zdalsnYB/gghxIZYdTTfgPjSHyz6QAbcPsA05g10JMg/MFDCIyO14cWoEG47xjTGyOA87qnxGlIV8ayzC1cdY3rmrlDITCedGefA1XnSs+wgO0aP7UxW7y8nzd33EGTVYUxp6ZVddn5Pdpg7jq7dyjw76kh+rKdnzp7RpJ1vvPmGJj+LinSEKg0NC9O+A5ubkd0/rlC8VKxUSQea3nvvvSzNRn/77bdy5113SUHTT/n4+f43m2DECL7TuYG6cuXK8uyzz6qwQB+XncE37AL8EUKIDbHqaL4BGTbh+D85apSu+0T8adwmcieg4Q0Jd0wnR8ZESvOWLWTEgw/qdHN2psR31TGmZ+46aJnppDODq/OkZ9mFq3Nn1DwBuzmOMHffQSfZeS+Xcx5dHZNX5u6IuJ1mFbLLSXd17oyaHUHfgfX/S5YskVtuuUWio6O1rwgJc4QqdS4Lwoh/QlKi5j149dVXdSYis2zfvl2XwAZbM90RUVGXhPMu4OOjn1evXl0zMmNPA5Y6ZWW5k10x90kIsSNWHc03IGzc11u3yqzZszWcXGJioja0CDOHhhfTuwX8TINshEK9BvXl9jvukIXvvKPRJ7ILVx1jepYZJ83VedKyzE7zuzpXepZdZHb02I7LGdICZW4X5zGzIsFJZssrtV3Ogc1OUZJVy8y7lpPl7c65s0so5Ld6ioAWiJq3Zs0avUZnQIyQ0BAd4cdyIIiF8KhI3bdQp15dmTZ9mhz95ah1BvfA923auFFuvPFG8bEEQaQ5t0bpS3RE6cNnsFq1aulG6/yYP8GJuU9CiB2x6mi+AY0vwschzf3AQYM0rBxuE2Hm0PBi+tg/OFCi4qKlSrWq0rNnT5n78lzT2DsSr2UHrjrH9Cwzjpo7nXRmHQNX50rPshNX57+cZZcDlJtk1tnKLsuqSHDi6tzuWkbKL6ecbZzXnbLIrLObE9ePMnTn2rOznrg6/+UsO78/O8G6fyxBRchsRBiKi4vTvgPLVTHKD4NYwAwDPi9dprTmXdi7d68e684oP/op7DXAHocePXr8JxSio1wLhZq1NPBGfsbcJyHEjlh1NN+AaBCIJIEGGPkUEFYOt+nn768NL8LOOcLPxUnJ0qWkTds2MmXqFNl/YL91hqzjqnNMzzLrrLk6lyvLLK7OlZ5lJ+44Pk7zVFD+OeUAp2WZdXTTAvfg6nvcsYw6kNn9rJzPwp17yMrzy87rd7YdeSUU8ls9xdp/JOF85JFHJD4+XvuO4JBgFQlw3vEzZUCMEQ+OkB07d+i+AXc2GOPv8T0Y0OrapUtyjganUEAEpJRCoX79+prBOT9j7pMQYkesOppvQGONdZwbN26UJ598UrNo4jYRPQINLzY3Y/rYYTFSpVoVGfnESPlp70/WGbKOq84xPcusUMhIJ50Vh8bV+dKz7MRdxzMr92kXcM+ZcbzcMTynzL5vl8PdMktt7jiw2fWcUn6nO9ef1fctq2IhdTm68zzcec6Xw90y94R6iv5j1KhREmctPQoMDnKM8iclWkLBEWI7JiZG7r77bo2UhNCq7uTiOXnqpGzdulX3HbRv3158rU3LUUYo4DucS50CgwJ1Nrxt2zbyySefWEfnT8z9E0LsiFVH8w0YEcL0MZYfPfPMMxotAreJ6BEQCoWsTWLIfFnAz0czYd51913699mFqw4yPcus45aRTjorToGr86Vn2Y2r70jLstP5yWtQru44fpczOGe5+Xwye+3uXmNWnpMrh9Udpzc7HF58H87j6vzpmavn5M61Z/e74Oo70rLs/u6c4Ny5czJhwoTkpUfIveNcDgQnHjMM+Bx7GO644w6dvT5w4IBb+weOHT8mX3zxhTz9zNPSvEXz/4RCTLSKBMx4w/DvRCNQru91vZZxfsbcPyHEjlh1NN/gjAiBTWkvvPCCVKtWTRvgAj4FVCCgsUejjwYYn2O06JbbbpVt27ZZZyB2wR0nKj/jdIhhl3sm+P8w59/nJc7rTuuaU15rVp2gjHyXHZ5JWjiv3dX1Z9czyinSeuauzBPA8tVp06YlL1vFngTMRBdKcOxTwOZmfB4THSM33XSTvL3wbdm1a5cKjIxy+MhhWbpsqc5mN2rUKFkoRJt+Cd+lG6ajHRuba9aqKUOGDtEs0PkZc/+EEDti1dF8B2YW3nrrLalZs6Y2wLCUQgFrQfEZ9i7ceNONsn79eg2Plx/DznkqrhwNV2ZX548Qb8BVnXRlnlJPIRRefe1VadasmcRZo/oIierIb1AoOWNzZGSkdOt2rSbt3LR5k/z+R8ZDbGMG4t1339V9dHXq1EnezByt3xMnASGBasVKFpd27dtruG9sss7PmPsnhNgRq47mSz766CNp0KCBNsAwjNQUTixyqVDw85OePXrq9DGiULizzpTkHHAqXDkbrowQkjfkx3oKofDBB+9L7xt6S+WqVSS+sBEHEY6syRhsCg0P074j3HzWvkN7GTd+nKz8bKXuO8goiJQ0b948GTx4sOZIcM4oxMTGasCNAv4FxCfAR8pVLCe9+9wg081zzs7lsXbE3D8hxI5YdTRfAue/TZvW4ufvp3kUkFET6z8xfewUCmigu3TuorMPP/74Y7ZmaCaZx5Wj4cqw7IEQkje4qpOuzJPqKYTCZ6tWyf0PPCAtW7eShMRE8QvwT068FmYEAvqO0PBQadK0iTww4gFZvHixbmjOKHv27JFZs2bJzTffLJWrVDb9U4D4mn4qFnsT4mL0/D5+PlK9ZnUZeudQef2NN1Rc5GfgjxBCbIhVR/Mlq0xjf13366SQadyx5hORjrBBDGLBuUcBQqFtmzYyY8YM2bx5s5w4ccI6muQV7oxSctkRIXlDfq2niJz31ZYtMmXqVLn++uulmJWLB868Y/9AhO55Cw4Pllp1asmA2wfIG8aRx764jPLtt9/KpEmT5Jprr5VyFcpLcFiIBIYESVzBeF1+5Oyb6jeoL48+9qjOjh86dMg6On8Cf4QQYkOsOpovwb4DJF2rWq2qNvDIn4CMmvgdm8Zw+2iMmzZtKuOfeko+++wz+SUbE6+RzJHfNkcSkh/Jr/UU+9t27fpeMyGj/yhduoyjr/Dz074DSTt9AnwlJCJUKlSuoINR2KfgjiO/xQiRhx95RFq0bCnFS5UwfVO4hEaEObI/x/wnFJo0aSJPTTB906r83zfBHyGE2BCrjuZLvtn2jW4Cw2YwjAoFBAToqBCmd52jNthEhmQ2aLQxfXwwn4/a2B13nA8uOyIkb8jP9RRC4ed9+2TJkiXywIgRUrFiRUdfYRx3CIWYuFgJCgvRqERw8rE86amJE+THnzKei+eLNV/IHQPvkGrVqzmWwhrxEREdpfshUs52tzTPDwlB161bp3vo8jPwRwghNsSqo/mS3bt3y8xZs+TGm26S8uUrJEeWQEMPw+9ojGvUqCFDhg6V+a+/Lnt//tk6muQmCP3ojvMB47IjQnIXb6inEApHjx6VtWvXypgxY1KE2PZRoYDlQXDqo2JidAagWo3qMuKhB+Xb7761zpA+//z7j3zy6SfSo0d3zZGA/XLJy2JTCAU/0ze1a9dOk7Ih4tHJkxnfLO2JmHsmhNgRq47mS/bt26cp8offM1xjUV8Sgs40ytigFhAUKBUrV5Ib+vTRyBIQFyTngNPgNDgc7jodKY0QkjN4cz1FiOxTp07Jjh07ZOrUqVK7dm2HUDAGkYA9bgiVin4E/Ue8+f3W227T5UQZ4V/z34cffiit27TWzMtI6IbzYTYBswvIzozvQkQ+BNpAH/bTTz/J2bNnrTPkT8w9E0LsiFVH8yVHjhyRT5d/KqPHjJYrrrhCZw9wy2jg0eAHhQZLSFiIlCxTStp37CCjRo+S7du3W0eTnACOhytnwl2D40IIyRm8uZ5CKCDLMnIdzJ0795IQ2+g3EF4b5ly+CuvWrZvOQGA24nLgb9555x2pV69e8vGYqXCeN2Xo7u7du3tN6G5zz4QQO2LV0XwJwtVt2LhBpk2fJq1atfpPKMQ4sl9iczMMI0TVa9WUwUOH6AZoknNklwNCCMk5WE9FQ2UjKVrjxo2THXoIBSTthMWkEAqdOnVSh17Da18mZydmBubPny81qldPPt5VMlD0VzfccIP2SRcvXrSOzr+YeyaE2BGrjuZLTv9+WsPQvfrqq9KxY0cdocEtYw0oGmaMCGETGZLpQDhce921OgNBco7scEA4m0BIzsJ66mDFihXSvHnzZIfeKRSQuBPJ0Zyfd+jQQd5//3355egvaTr1mKlw7n944YUXUux9SCUUoiL1cyyV7duvr+zYucM6Q/7G3DMhxI5YdTRfcv78eTl48KAsWrRIrrn66uQZBawBxVpQDUUXF6t7Ffz8/aVFq5bywaIP5O9//rbOQLKbrDogFAmE5Dyspw4QbQiDTOg3YCmXHjkDYsAwY40BKexx++OPP6yjLwUiATMO+JvJkydLlSpV9FgfXx8VCjhnymSgwcHBMnDgQN2f4A2YeyaE2BGrjuZLMIKDad41a9ZIr+t7JW9mRkPsbJTR8BcwDTU+b9CwgSxcuDDfrwXNS7LqgCDqCiEkZ2E9dbBp0ybp2bOHhEeE68Zjx6bjgtp3pBQKVzS+QiZPmSwbNmyQ478et46+FCRyO378uGzcuFFGjx4tFSpU0GN9/XxVKGAJLPoj9E8+5jMkCr3vvvvkwMED1hnyN+ZZEELsiFVH8zWIXtG/f//kpUeRUQ6hUDgxQRtofAarVauWzJs3L80RIZJ1suKAUCQQkjuwnjr4+uuvNd9B6bJldKkqZqCjzE/0G7EphEKdOnXk8ZGPy9JlS3UW2xV//fWXbpDGXoYHHnhAypRxJHLz8/fT82GGG+eOjImWiKhIjcb35KgndamSN2CeBSHEjlh1NF+DqdshQ4dIeESENsyIge2c6lWh4ONo7KtWqSozZszQERzMKmBGgmQvmXFAsIyBIoGQ3IP11MF3330nI58YKc1bNJdixYtJWES4BIeF6swCQmyj39C+o2pVGTZ8mLz19ltpLhVCn/LDDz/Ie++9J3feeaeULFlSj/UP8Nd+CHkUEFwDYqSo+a7mLZFsbarOQngD5lkQQuyIVUfzNUitP+LBEZJYNEn8AgNUKDiT28CQcROPAhk4/9fencDrXKaPH3ec/XnOvnGOJXshS1omMkqWJlvakJEsoZKUFkvbL1MhMqMiyyikksJJCyoxRCmVpWaS7BIqW5E0/a//97qe+zlJNL/5z8z/+Y7v5/2a+/WY4zxPL8/rdS/X977v6xo+YrisWr3KitvoVjH+vf6ZBYguPPT3Afz/RT+N2LRpk0ycONGKdtaqXUuSkpLsToHuLlig4I6z1qhRQ67tda1MfmKyrFu3zr375zRQ0OQa05+eLr1695IKFSq4QCHR5qHMnCxL2Z2Tnyun160jna66SqZOmyZ79uxxn3By0/UIAB9yffSktnv3bhk2fJjUO6O+nSu1rV0vWNDzoDpA69avfhXVqlWTO+8cIosWL7LgQreK8e+lTxx1UaGLi19bdBAgALFDP434fMcOeWHWLLn1ttus7kFCQoLNFZoQQ+cPTYShd9+qVKkiHTp2kNF/HC1r1q5x7/45zYakRdnGPT5OOv++sxQVFdlnadE2nYf0uFHpxHgLQBqe10hu7NdPZs+ZY8XfgkDXIwB8yPXRk5rWU5gwYYK0atNaqlavZlu7qWkh7zVy1lS3fvWr0K3g/v37S/GLxfLZhs/kyA9cagaAoNq1e5cseG2BDL3/D9KkSRNJTEy0uULvuWlK7ZRQqiSlpsgp3tyhRTv1nsLKlSvdu39Oi7hpUTZ9aNX2knaSXzbfPispNdnmoXBamv1/TbvarHlzueuuu2XBgtfkwIED7hNObt6/HYAfuT56UtNjRM/NnGll9s8652zb2k1ITrTsEjpAJyZFBv/yFcpLj549ZMrUKbL2o7Xy/ZGTv8gNAOD49CHTsuXLZMwjY6TlRS0lOTnZ5gp9+m+7AN4ckub9ubB8OTnr7LPlhr59ZcmSJe7dP6fpul97/XW5/Y477P5BTn6O3Y9LCafaZ6WGQvbZOV6g0KZtW3lo5EhZsnSpfKNF3AJA1yMAfMj10ZPa/v37Zd68eTJ4yGC5sNmF7mxpKUt5pwN0UkqSDdBlC8vKlR2utDR37773rhz+/rD7BABA0OjcsXrNant4dMkll1htA50r0l1Ff73UrMdZtYhnQZkyVqF57ksvuXf/3MFDh+woUbfu3aV+gzMkOy9HSifFSzgjMg+lpKbaZ+fm5nnzUAd5fPx4eW/le5biOwh0PQLAh1wfPalpkZulby2VkaNGStt2bb2BOJKtIjUcsgE6ORR5SpRbkCstf3eR3HPvvbJ48WJ7AgQACCZdpG/cuMEyFXXs2FFSXaCQ5gUKWktBM+fleXNIgtuV1uxH056aJj/8/Zf323Qe0svJF7duJZWqVnZHYMMl6VaT3WcXFBRI12u6yrTpT8maj9bKoe8OuU84uXn/dgB+5ProSU0H+/c/eF8mTpoonTp1kry8PBuQ9QmODtCh9LDEJcZJdl62HU3q3aePzJ37khw6FIwBGgDwS5qp6KuvvrLL3d27dZNU99Rf06RqkFC2XJEFDJoJSX+u99wmTJxw3LlD6/M8NvYxaXDWmbYDkZGVZa/RpBpJKZEHVmXLlpU+1/WROcXF8un69Xa3IQi8fzsAP3J99KSmOwOalm7GjBnSvXt3KVNQxgbkZG9g1gFan+jokx293FypSmVp1bqVleMPypYvAOD4NE22Fu3se0NfSU1xgUKaCxSKCi1Q0OrK+nPNfqSZoPbu2+ve/RMNFIYNG1aS7UiDDb0Qre/XeUizH+nP9e9vvvlmeeONN6xAm2ZLCgLv3w7Aj1wfPanpQLt582aZP3++9OvXr2Sg1pL8OkBrRcysnMg5U017d0aDM+TRRx8NTLYJAMCJbd26VW677Ta716ZzRzgtHDl65Kr7x7u0qRoojB492hb4GmAcXbRTk2rcddddEg6F7XdD4VBJsGGBgju+pPUVhgwZIu+++67tZgQlTbf3bwfgR66PntR0oNVB+sMPPpS77767pNCNDsw62GvTJzt67lQvOevfPzjsQXsPACDYtDry3ffcLbn5kZSmobQ0e8AU3Q2I3lGoWLGi3HvPPVYv4diinV988YUMHDiw5PhSSaBQLrIrEU3TrZ/x4AMPyPr16203/Mcff3SfcHLz/u0A/Mj10ZOaPtXRwVaf8owaNUoqV65sA7IOzDpAR7ePQ2mRJz0ZGRly5513ys5dO90nAACCSoueDRs+XCpVrSJx3rwRSk+zy8j6gEkDBd2d1rlDd6tvuukm273eumWr3XGI2rBhg9x6662SFo7sSuh8c/T8U7IrUbmKjPnTn6xQaJB4/3YAfuT6aCBoKfzHxo6VatWr24BcOiHeBnp9qqMtGijoE59bbrnFiq4BAIJNaxmMe/xxOfe8RraToNX9tX5Cdl6uCxQiF5HLlCkj1157rcycOVPWfbqu5H6BBgwffvih9O3bV8LhyDyj9xw0QCgojOxoR3clTqtZU8ZPmGCpWYPE+7cD8CPXRwNBL5NNnDhRatauZQOyBgrRgV4H7GhlzFAoJNdff71V2Pz24Lc/2z4GAASLJraY8dxz0vGqq6R2nTpesJBnhdIysiNFOzUxhs4d+fn5cvXVV1vdhY8+/qgkUNjz9R5ZtGiR9OjRw+YX/V29zKzzjgYJWotBsx7FxZeWBmedJU88+aSlUw0S7zsB4EeujwaCppl7avp0+U3DcyU+OUkSU1Ms45EWzdHiOdGLajqQd+vWzbJO6LnSoKSnAwD8kqY71aKdtwwYIOdfcIHtAsQnJfxULC0UuXegqbcvv/xyq+SsxdJ07tCjr3oZuvjFYrnKCzSidxTS0rVoW4E9rNIdCj3OpK9NmzXzgpIZgZt3dD0CwIdcHw0EvaegVTPbX3aZlK9Y0c6YpnsDs77qYG+Xmb2vRAfyTh07yaxZs+xCGWlSASC49FLx0qVL5YEHH7CinVrFX+cKDRB07tDdAU2EoTURWrRsKXfdfbftIOj7dEf6k3WfyFPTn5LLvLknWt1Z5xt9rz6s0nlIH1hVqVZNOnTqJK+88kpgLjFH6XoEgA+5PhoYWjhHz4mefc45Uli+nIS9wTo9K7J9rGX59SvRgfySdu1k8uTJdq40aGdFAQA/0SNE77//vox7fJx07txZCgsLba6IptjO8OaQhOREb7GfK2f/5hy5tlcvKS4utodMR374QT5cvUoenzBeWrdpXRIo6Hxj8473Xp2Hirz5SOelvjfeaPNU0Oh6BIAPuT4aGJqb+p5775GWF10kFSudIkneoJ0SDtk50fTMjMjgn5QkzZs3l5GjRsrivyy2XNYAgGDSy8hatPPpZ56WXr17Sfny5W2uSEhMtMW+7kofXbRT5xd90KT34o78cETeXvGOjHp4lDRv0UKS3cVnDS70vfq+5NQUKVehvB1rGjhokLz99tvuvxwcuh4B4EOujwbG6tWrZfQfR8uVHa6Uyt6AHhcXZ2lSdctYB279ShK9wb9hw4YyaPAgefHFF+2eAgAgmDRQ2LBxg7z00ktWNblSpUouUEiwxb5ebo5mQtLseTVOO1VGPDTC0qpqHZ+lb0WOLV3Q9IKSQEELfOp7tSKzzkPlvODjdxdfLPcNHSrvvfee+y8Hh65HAPiQ66OB8bdP/iaTn5gsPa/tKTVqRNKk6iCdm5cnWdnZUsr7s24n16lbR7r36O797hOyZcsW924AQNDoYn/Hjh2yZMkSq65ctWpVmzviE+Jtsa/JMHK8OUSPEOnPc3JzZMidd1qhNr1roAt/fUDVvEVzSXD1ElJDqSW72No0+Ph9ly4ydtw4+eijj9x/OTi87wCAH7k+Ghha9Gbm8zPl5ltultqn1y4ZpHPycq3pUSR9IqTbxy0uainDhg+TTz/91L0bABA0utjX3YE1a9fIiBEj5NRTT7V5o3R8aQsUtA6PvqZlRBb+GgQMGDDAggu1efNmeXbGs9KuXbuSOefYpp+plZtfevlly5IUNN53AMCPXB8NjG3bt8m8+fPsnkKDBg1KBmkNEvSegm4d6+UyLapTu87pcvOAW2Tt2rXu3QCAoNEUp3qhecvWLTJ23FipXTvykCmudFwkUCgqtGAhukOguwZai+ezzyJFOw8cOGBZk/r06SPp6ZFdh2PbBRdcIOPHj5dVq1ZZcdCg8b4DAH7k+mhg6FbwihUr5I9/+qM0bNSwZJDWgje2fZyfaxfT9HKZbh93ubqLfPDBB+7dAICg0UBB7dm7R56c8qTUrVe3ZO7QtKZaOE0Dheg9t/jSpaVr164212jmI62JsGnTJpkyZYp06dJFfvvb38oZDRpI/fr15ZxzzpE2bdrIfffdZ8HE7t275fsA1u7xvjcAfuT6aGBoFopP138qU6dOlaZNm5YM9hoo6ECvhXT0rGn0561bt5Z33nnHvRsAEFS64H9u5nNy1jlnR+aIuFKSlZNtu9EaLJQECvHxVnhNLz9//vnnthuh79Wjr/Pnz5fHx4+XQYMHWwG34cOHy4wZM+RdL6jQDHvRoCRovO8NgB+5PhoYOmDv2rVL5syZIy1btiwJCDRQKFtUaE0zIEV/rsHE4sWL3bsBAEH2yquvSMvfXSSpaSFJTEm2bEdaXVmPIGVmZdm8oYGCPmSaPn26fLJunRVeU1p8befOnVafRzPqzXz+eauZoEeU9u7da78TVN73BsCPXB8NlIPfHpTXXntNWl18cUlAkJ1z/EDh/PPPt9L9OsADAIJt6VtvSY+ePS0Fqt5l00BBmwUK3qvOGxoo6IOoCRMnygfHFO3Uh1UaFGzbtk02b9liD66+/fZby6wUZN73BsCPXB8NFM1g8ZY32Gs5ff0KtEWPHmk7OlBo3LixvPDCCzawB3VLGAAQobsBQ4bcacXRKlaqZAkwwhlpdvzo6EChyfnny8hRo2Txkr/YvQP8Ou97A+BHro8GzsqVK6Xntdfa4J6ckmKBgj4d0nOmRwcK5557rjz55JNWS0G3jwkWACC4Pv74Y3lo5Ei5pP2lUrV6NZs/klKSbd7Q+wo6b2htnjPPOkvuGDhQZs+ZY7sH+HW6HgHgQ66PBo6mPB04aKBlr9BsR3rGNNNdSjs6UGhwZgMZ88gYWb1mNbsKABBwWldHLyNf3bWrnHraaVK6dGlLk6oPm7TpvKGBgv5d12uuseNH69evd+/Gieh6BIAPuT4aODpwPzhsmFxwYVM5pUplycrLsaqamuouTwOFuEigULduXbn/gfutBL9eQiNQAIDg2rhpkzw1fbr0vbGv1KlTp+Shkt5z03o8iUlJ1ipUrCDNW7SQ+4YOlTVr1rh340R0PQLAh1wfDZyt27bJY2PHSvtLL5XTatWUzNxsSQmn2hMh3VXQJ0L69dSsWVMGDR5kmS42b9ls9xsAAMGkx4g0a57uSJ951pklc0U0TareWUjTh055eTa39L6uj7yzghTb/4gtSAD4j+ujgaO7A1OnTpNrunWT+g3OkIzsTElITpTMnCwb7OMT4m3wr1qtqvTxBvppT02Tv/3tbwQKABBgOncsfHOhDBs+TM5rfJ4dPdK5IkszH1nRzjwr2hlKC9uDp0svv8xSoOLX2YIEgP+4Pho4WqF51qxZ0v/mm+XcRg3tCZAeN9IS/JELzskSFx8nFU6pKJdedqkMHzFcVry7gjSpABBge/ftlVWrV8mfJ//ZUqBGAwXNeKTJMDRY0Htu8YkJ3pwSJ82aNZOFCxe6d+NEIisSAL7j+mjgfL1nj8xfsEDu/Z//kaYXXijhtDQb7MPpaZYPW18TU5KkTFFZadT4POl3003y+htvECgAQIBp9js9flRcXCzt27f/KVDIyoyk2PbmDH3YpD/TppnztBozfp33XQHwI9dHA2ff/v2ybNkyGTNmjLRp00bS09JtUNftYg0U9ChSanpYcvJzrbBOh44dpfjFYgIFAAgwnQP27dsnixYtkg4dOpQEBBkuUNCinTqHRH/eoEEDq8XDsdVf531XAPzI9dHA0UqYmoniqaeekk6dOklmZqYN6qFwyAb57LwcSfcGfm36dEizIz39zDMECgAQcEeOHJF3V7wrnTt3LgkIMrw55HiBQr169WTy5MlWdE2DBTLnHZ/3XQHwI9dHA0e3jzdu3Cgvv/yy9OzZU7KzI4VyUkOpds5UgwO7kKZHkJKTpG79ejJx4kQ5fPiw+wQAQFDpg6ZevXrZnKFzh+4o6NyhwYLOH1pbQX9+eu3Tbeda6y8cPHiQnYUT0PUIAB9yfTRw9ImQXmhetnyZ9OvXryRQSElNscG+wA32KW4SqFSpkjz88MNWdA0AEGzr1q2zysuVq1SRUFqaPVjSlKi6m5BfUOAFCpG7C5pie8SIEbJq1SrZs2cPgcIJ6HoEgA+5Pho4eoTo4KGDsvajSIXm/PzI5bNkFyjo9rG+anl+/XmBN/Dfd999sn37dvcJAICg2rRpk2XDa3heIymqUN6KrWVkZ1nGIw0WSsdHUmzXqF5d7rnnHlm6dKl88cUXHF89AV2PAPAh10cDR8+JHvnhiHy24TMZ+oehUqlyJRvUU8MhyS3Ij+wqHBUo5OTkyODBg+WTTz6R77//nqdCABBgO3bskHGPj5NWbVpL9VNrWP0EPaqqtRM0UIhPSLC5Q3ej+/fvb1mSPvvsM/nhhx/cJ+Bouh4B4EOujwaOBgratm7bKg+PftjuIKSEQhLOSLct5GiwkJIaOXqUm5srAwYMkJUrV1rGCwZ7AAiur7/+2pJhdP7976XeGfUtQ15SKMWKdmqgkJiUaHNHuXLl5OquXWXipEl2/Oj7I0fcJ+BotiAB4D+ujwaW3lOYMHGCNG7yW9sy1q1jbdl5uTbYRy+q6Y7CDTfcYCnxdPtYdxUAAMG0f/9+mT17jtzQt68V7dRMeaUT461op84d0d3oMmXKSJu2beX+Bx6w40ckxDg+W5AA8B/XRwPr0KFD8syzz0rrNq2lYqVTLEDQlKi6q2CBQjhkg31WVpb06N5d5s6dKxs2bLCsSQCAYDpw4IAV7Rw8ZIhc2KyZZOdEEmJEa/Hoa+mE0pYUI1q085VXX2XuOAFbkADwH9dHA0vvGuji/6rOV0nN2rUkr0y+nTPVXQUb7MNhG/wzMzKkY8eOMm3aNFm9erXVYQAABJPOAUvfektGjholbdu1+ylzXijV5g5Nl6pHkXSnoWatWlacbcaMGfZwCr9kCxIA/uP6aGDpPYUFCxZI7z695cyzz7RAISElSUIZaTbYh9MigUJaOE1atWolD48ebdvHek8BABBMuuBfvWaNTJk6Vbp0uVry81zmvJQUmzt0VzrszSO6Q6333X57fhOZNGkSgcIJ2IIEgP+4PhpYuqOwePFiuf3226XJBU0kv6w32MeXkqRQsgUNaenpNvinpqZK48aNZeCgQTL3pZfkq6++cp8AAAgavaemKVJfffVVufHGG6WwsNDmiqTkZAsUcgsid96saGdKspxWq6aM/uNodqNPwBYkAPzH9dHA0kBhxYoV8uCwB6Vd+3ZSWD4y2CckJ9jZUt0+LhUXZ0eQ6tWvL9179LBMF7t27XKfAAAIGs18t3v3blm+fLkMHDhQioqKbO5ITEqyQCG/bBlLmZrqdqULyxXJ0KFDech0AroeAeBDro8GlgYKWnRt0p8neUFAd6lcpbIN6vEJ8RYoaE5sLcKmAUO1GtWlTds28uijj1oObQBAMGnhNL3QvGbtGrn33nstDarOHQmJCXbUqExRWQsY9FKz/jwrO1vuuOMO24XAL+l6BIAPuT4aWHpHYcPGDTKneI4MuHWAnHrqqTaoa/n9vPw8S5malpkhmTnZUlS+nJzb8Fz5wx/+IJs2M9gDQFDpQ6bD3x+2op0jRoyQKlWq2Nyh9RM0QNBAoUxh2ZJ7buFw2I4orV271o4t6dyDn+h6BIAPuT4aWDpY7/hihyz+y2LbFq5zeh0b1LXl5efbPYVobYWM7MiuwoBbb7UKzQCAYNK54+8//l22f75dxo4dKw0aNLAgQVNq57g6PLqzEE5Ls/kkFApJr169ZPnbyynaeRy6HgHgQ66PBpYO9nv37rWUp2PGjJEzG5xZEijoboIO9pq9QjNXJCYn2XGk7j17yIp3V9gTJQBAALkdAb2nMGXqFKuloHOGzhW6A23BggYK6ZFAIewFCt26dZM3Fr4hX+z8wnYj8BNdjwDwIddHA0sDBS2As2XLFpkyZYo0atSoJFCIPhWKVmwuVTpOUlJTpN0l7aS4uNgqNB+hHD8ABJZWaJ75/Exp1/4SqXBKRbvXpvNFtGhnmgsUdEfh6quvlnnz58m27dsovHYMXY8A8CHXRwNNg4V9e/fJnDlzpFmL5hYQlIorJVk5OZJbkG+DvQ7++nVpa9iwoYx6eJRtIX/99dfuUwAAQaML/hfnvigdOnW0o6mWLU8DhZzsXwQKXbp0sXSqW7duJVA4hq5HAPiQ66OBp+dF31y0SK7s2FEyvaAgISVZ0rIil5htVyEvT0rHl7YBv3r16tKtezd5fPzjsmbNGs6aAkBAfXf4O5nzYrFcevllckqVypYSVecNrcicX/Y4Owrz5sm2bewoHMsWJAD8x/VReD748EO5ZcAAOb1eXRvkk8MpkuxK8GuwkJGZYRkscnJypFq1anLFFVdYSf4vv/zSfQIAIEi00vLTzz5jBTvTvTlCs+RpsJDnzRl6mfnoQOGartfIa6+9Zum1Dx/mjsLRIisSAL7j+ig8GzdulEceeUQuu/xyqVqjqiSkJFiVZq2hYHmxCwstYNCCOvrVVahQQQYPHizvvPOOBQvsLABAMOiRVfH+p3fVHnn0UalZu5bNC1p3R+cJTY1qWY+il5nDYenZs6csWbLEiq5xv+3ndD0CwIdcH4VHB2992qNpUhs1biSlSkfuJIQz0qRsUaHVUdDBXycC/blWa9ZMF3fdfbcUv1hsgQZPiQAgGHbu3Clvvvmm7USX8+YHnReSUpJdwbVCy3qUEkq1nyd7P7/++utk1apVNk/8+H/Imnc07zsC4Eeuj8LznTd4b9++3S6bdezUUeL0UrMGBGlhCxS06QSg2SxC6WnW0rMy7AJbrz69ZO7cubJl82b58e9MAABwMtP02MuWLZMHhw2Tiy++WLKysmy+0Mx4uqNQUFjWkmEkpkR2oJNCSTLgtltky9Yt7hNwNF2PAPAh10fhaFn+devWyV133SVVKleRhMREK5ijGSyidRX0KZFOAOGMdJsANEPSmWefJYMGD5bnnntOPvjgA3vS9M0339iFNf1M26YGAPzX0rFcjwwdPHhQPv7rX+Wxxx6Ty6+4QmrWqmVHi+Li4iQtPd3miZy8PEnPzJQk3YH25ogKlSvI/cPul6/3kCnveCIrEgC+4/oojqIpT2fOnGmZjerXry/pLiBIDaXajoLuLGiwoDsLOgkkpCRZFec6depI27Zt5Y6Bd8ifn5gsf1nyF9m8ZbMFDNxfAID/bjqWf/rpp/Lqq/Nk5MiR0r59e6lUqZJkegFBekaGZHiv0QdKejchITHBXitWOkVatWktU6ZNlW++/cZ9Go4WWZEA8B3XR3EUfWKkaU8ne4t9DRb00rJ+Vbq7oDmyNVjQppNBbkEkFV68NyHo7+hTpXpn1Jerft9ZRjz0kB1j0jOpen9Bdxn0adL+A/stU4b+d/QJlTYNJGg0Go0W+xYdl6O7B/rwaNvWrTaW60OkgYMGycWtWnlzQ0Ub9yN1d7LtDps9SCookKTkyJGj3Nxcad6ihd1l0xTc3GM7Pu+7AuBHro/iGPv27ZM1a9fI2HFjpYU3yOtgn5SUJIne4B8Khyxg0Mtqeg5VU+FFLzjHJ8RbAHF63Tpy0cW/sywXg7xJZdjw4fLY2LHyxJQn5Zlnn5HnX3heZs+ZLcXFc2SOtjk0Go1G80PTyvvaXpj1gjzzzDMycdJEeeihh+T222+Xqzp3tmQXlatWlvTMdKuvoxeVdSehsFyRJb3QOUDnA21ly5aVm266SV5++WXZtGmTBSD4JV2PAPAh10dxHDqgv/3OO/b06LzGjSUvL69k8M/OybEnR/oEyXYWvEkiJy/XniplZGfaJWfNqa0X3Iq8yaNW7VpybqOG0uKiltL+skvlyg5XSoeOHezStDX9M41Go9Fi3DpKp6s6SadOneTyKy6X1m1aS5Pzm0jNWjWloCBSQC05nGwtzQsUdNzXB0c6D9jR1HKRNNrRuaJGjRoyfvx4S6Oqcwr31Y7P+64A+JHro3COHcR37twls2bPloEDB0rTpk2lTJkykpqaapmQ0jLSvcAgxwrrRLecdcLQySMhObFkotCWlJwsWbnZUq5Cealao7qcWvM0a6e5VxqNRqP5o53mBQXaqntj9SmVTrGFf2LSz8f0uMQ4eyBUctzICxI0aNB5Qe8laBKMwsJCCzwWLlzoZhSciPedAvAj10dxAnpeddfu3bJs+XIZMWKEtG3XTqpUqVKSOjXBmzw0u4UeQbKjSDpZ5OdKZnaWTRZ6ATo1FLI/p2dl2gVoPaqkWZM0qKDRaDSaP5uO07r413to4fR0q4mgLZQelgwvSNA7ahooWM0EL5jQ39F5QVvNmjWlb9++8vTTT9sdNfw6XY8A8CHXR/EPfP/997J06VLLmd3OCxaKioqkdHy8FdfJ8IICDQD0+FF0goluQ2vT/5/tTTb6e1reX9Oqag0GfaXRaDSav1q0To7+WR/waKCgD3iiY7o2HeP10rKO+9ne+K/je2o4bEFCRkaGdOzQQWbNmmVBgl6Ixq+LrEgA+I7rozjG8c6R7ty1S95atkwmTZokN954ozS98EJ7mqRfY7TFJyTYsSSdWPLK6IXnsvY7ejzJ7jB4E4r+nU4qRzfdgaDRaDRa7FvJuOyN1dFd4PyyBT+7l6Y/Tw2H7DJzdPxPTEqSevXqSfdu3eWJJ56wmjxaS4d7Cf+Y9/0B8CPXR/G/pDsLn2/fbrsLox5+WBo1Pq9kkoi2xGS95JZhuwg6oejEUvIEikaj0Wj/Xe2YnQQNHHSM15TZR4/9+fn50r9/f3n99ddly5YtFiTgf8f7/gD4keuj+BXHexr05ZdfypIlS+S+ofdJm3Zt5Tfn/saeJFWrVk0Ky5WzIEHvJWjaVD2epGX99Wxr9M4CjUaj0f4bWuRego7hOp7bOB4OSUZWppTxAge9s6b3Ec4552y5pts18vzzM2XHjh2kQf0nuSUJAL9xfRT/JN1Z2LNnj2zYsEGWv/22FeHRy869e/eWJhecb5U4NUDQr5hGo9FoJ1ErHWc7C7qj3PPanjb2z549W1a+v9KCBIqq/fO87xWAH7k+in+RFmhbsWKFTJkyRQbcequ0bttG6tarZ+nxtJZCTk5OpGVnSzaNRqPR/muajt3ZWdmS671qXRxNoXph82Zy0839rYL/eyvfk4OHuLD8r3BLEgB+4/oo/g30ONJf//pXWbR4kTw3c6aMGzdOHnjgARkyeLAMGDBA+vXrJ9dff53tOvTq3ct71dabRqPRaD5qOj7bGN2nt1x3XR+54YYbrLrybbffZsdNH33sUXn22Wdl4ZsL5aOPP5KvvvrKzQL4f+WWJAD8xvVR/BvoXYYff/zRXo8cOSIHDhywapzr16+X999/3y5Aa+GdBa8tkHnz58n8BfNpNBqN5tOmY7VeTF68eLEsf3u5rFq9SjZt3iQHvvmmZKyPvuJf45YkAPzG9VH8B2nRtv3798vu3bvl888/l63btsqWrVusbd26lUaj0Wg+aiXjszdWb9++3R746K7BN99+Q1DwH+KWJAD8xvVR/AfpxKLBgl6A1ktu3x3+ztLm0Wg0Gs3HzRurdczWsVt3iclk9J/jliQA/Mb1UQAAgJhwSxIAfuP6KAAAQEy4JQkAv3F9FAAAICbckgSA37g+CgAAEBNuSQLAb1wfBQAAiAm3JAHgN66PAgAAxIRbkgDwG9dHAQAAYsItSQD4jeujAAAAMeGWJAD8xvVRAACAmHBLEgB+4/ooAABATLglCQC/cX0UAAAgJtySBIDfuD4KAAAQE25JAsBvXB8FAACICbckAeA3ro8CAADEhFuSAPAb10cBAABiwi1JAPiN66MAAAAx4ZYkAPzG9VEAAICYcEsSAH7j+igAAEBMuCUJAL9xfRQAACAm3JIEgN+4PgoAABATbkkCwG9cHwUAAIgJtyQB4DeujwIAAMSEW5IA8BvXRwEAAGLCLUkA+I3rowAAADHhliQA/Mb1UQAAgJhwSxIAfuP6KAAAQEy4JQkAv3F9FAAAICbckgSA37g+CgAAEBNuSQLAb1wfBQAAiAm3JAHgN66PAgAAxIRbkgDwG9dHAQAAYsItSQD4jeujAAAAMeGWJAD8xvVRAACAmHBLEgB+4/ooAABATLglCQC/cX0UAAAgJtySBIDfuD4KAAAQE25JAsBvXB8FAACICbckAeA3ro8CAADEhFuSAPAb10cBAABiwi1JAPiN66MAAAAx4ZYkAPzG9VEAAICYcEsSAH7j+igAAEBMuCUJAL9xfRQAACAm3JIEgN+4PgoAABATbkkCwG9cHwUAAIgJtyQB4DeujwIAAMSEW5IA8BvXRwEAAGLCLUkA+I3rowAAADHhliQA/Mb1UQAAgJhwSxIAfuP6KAAAQEy4JQkAv3F9FAAAICbckgSA37g+CgAAEBNuSQLAb1wfBQAAiAm3JAHgN66PAgAAxIRbkgDwG9dHAQAAYsItSQD4jeujAAAAMeGWJAD8xvVRAACAmHBLEgB+4/ooAABATLglCQC/cX0UAAAgJtySBIDfuD4KAAAQE25JAsBvXB8FAACICbckAeA3ro8CAADEhFuSAPAb10cBAABiwi1JAPiN66MAAAAx4ZYkAPzG9VEAAICYcEsSAH7j+igAAEBMuCUJAL9xfRQAACAm3JIE+BeUKvV/Aaj/mnSyTjLKAAAAAElFTkSuQmCC;" parent="1" vertex="1">
                    <mxGeometry x="408.81" y="510" width="241.53" height="170" as="geometry"/>
                </mxCell>
                <mxCell id="10" value="" style="shape=image;imageAspect=0;aspect=fixed;verticalLabelPosition=bottom;verticalAlign=top;image=data:image/png,iVBORw0KGgoAAAANSUhEUgAAANgAAADpCAMAAABx2AnXAAAAwFBMVEX///8AAAAREiRRUVFcXFza2tt7e3stLS319fWVlZXDw8Ph4eHv7++tra23t7fHx8fp6enR0dEAABoAABcAABMLDCBCQkIQEiNSUlLW1tYeHh6np6fNzc1mZmaHh4dYWFiUlJohIjElJSWdnZ0pKjidnaNzc3wODg5zc3OBgYGUlJRsbGw8PDxGRkYxM0B+f4dBQUwAAB9cXGRqanMAAA4VFRU1NTVKSlRiY2sZGiw3OUaGiJJNUFkjJDKjpKuBg4r9JBREAAAHEElEQVR4nO2dDVuqPBiAGWVZKiqwOPYlFOx0TiUEvqlQ+v//1QuCCihJJ8am13N3VTr52O2eZ4yJKggAAAAAAAAAAADHy6BTKVKTtVDCGaqaPmulJZeVe3Fi9oeCGGqwthJoRGIEB21GR4wDM0piaMCH2Hmv2f45zQ5HbZaIVXPwkTiKRnpijKORohjbNqMh9psHMxpitzxEIw2xdus/9m1GQ6wntK6Zm9ERE1rMexBKYkKLdQ9CSywVjbeVbPu7UBNjHY30xFLRyKLXpyjGNhppitXWg/S6WaIzeKpiqTyjGY3b0xsN2mK1ROPNllcNYsJmdEXN7JSJWA3ReMJGTOjRjkZWYtTzjJmY0FvvkEqvH4u93tbZ3SfQjcZY7DRXWosY3WhkKUY1GpmK0YxGtmIUo5GxWCoaKzZjLSb0KM1dMRcTWg9U2qw+scKNtc9pmNUndl7E+7rJqozG+sRKUd3r1JyJPVWyxwjOxE4q2WNEDWKDYxUTno5VTOjcne7j7voQxcpwCmLlADHagFhJQIw2IFYSEKMNiJUExGgDYiUBMdqAWElAjDYgVhIQow2IlQTEaANiJQEx2hyEWO/1JOTq8TvrHITY43L1711jeRBi8avlL99a5xDE+nGDdb61En9ira1USl7BTNbulLvGgTex/h16zxU1Y6/n5O4TOrksURG+xKSXcLGrXGHyvufVZTbRtq5v9m6KI7H2Y/y6cV4s3uS6HZN3wd+3vq4IN2Kt9VsscmLJJfV/s9uKYvPLZONErD9EqEDsPi5dN1Dqcwtevkg2HsSay9Rak1s5Lhyu79+nl71+bBdUhL1Y+/EhXdXTbvbh5MNbpE3JIHsBS0GysRZrne2pZfJmmUxZ+/F3eqXTXcnGVux2mK7gy46xRXKN7598ufQrs6a0tSJTsYzW3c7rQZPx747rDhuZtn7IX0nLUqx5vqnY34JLfONu5XXnY82bVETmY5ip2PuqVsOiA0Ey/r0p2t0Zn2KbFvuvoG9LKr67T28/rp8ZvsSE13SWnO7IsWT8e7drT61sr89TjuV7xYetoW1u/JtCyjwpV5z1ikJ6iLgkF5FXcZzmV+plj+k7B42sxaJMyagNUyOP/Pg3ZvD81XOxgr1YiHSVrummb7/flT6ZJn4onLniQmx54rxJmFVh82HXxlLH5a9OpTkRC8Pufktse/y72VaUWl9Ox3EjFjZQ/gw6bsXr3FqrM+ii85UEjsSEpBNfibVjg/z4N9rW+0HNeSzpP69nNwrmf5/Qr8ObpYrorTq6ODDP8493ys108ye2Yt/4dw/8iiWdxL/O93MrlnQdz/uX3A23Yt3XXyGv//w2S27FfgqIlQTEaANiJQEx2oBYSUCMNiBWEhCjDYiVBMRoA2IlATHagFhJQIw2IFYSEKMNiJUExGgDYiUBMdqAWElAjDYgVhIQow2IlQTEaANiJQEx2tQq1mjVRu+kRjEGgBiIZdn+GrmaGO6sZHViXVZi3/psk38QEy7YeFX3zQtFYkKre1k/VX4tXpHYwQNi1SHdRND+Dt76xZrxW0XOKO+Ggdg5iP0EEKsMEPsZIFYZIPYzQKwyahUbNtu10atTjAEgBmJZhvurcJhi9/urQIftT82plubr/jrQoML5qCKkvxf1091fLwAAAAAAAAAAAAAAAOA4aBwpApsZQ/oI4pECYodGIoaTXzH1XxRlWcSbe9EteXOXc2Ix7GMRm7P49kiLH9IU11VNf6Uym2Dt0x0dilksJntTWQkUVdEUFQUzrKoyVlFnPp8TC6kIYYzQqI+QHzg1imla9u6OJeJfLV40s3zSYkagGratL5CtE1sf6TqZWB+ND4S8nqsP+qbTaEwunYHp+HW2GMZaGElhNuAoCcL/ocEyI7Qkd7Ami3K0jCyHj0d/wuTRUmKiqoueRxRCpggt3nQREeKOnX7D9nTzFk07lz767A2WG68N2fW92Uz9NCaKKWMv+PBlQzbMqajhT9mUZ9hQPdUyFi6xTYsQy7QWrj4lczUtJk/dICz1bEdWA2yNFW8xkcforWFfTCTkS7dj1ez1jVoTDBsLW++SwLPshWdNCbEXuqt/SC7SvUVArLnueK7tSAvb8i3bdty57gWeSeS0mIjnthFg09Sx4U49V9TdD9kietdpmA1ySXTJdm4njXGdYqI6/9BtsnCDgCxIdFMPSKhmz+ZuWDWPTGxHv5zqljuf6nqgu1b4DBA7efZXYrJnyOY9wWZAxlPkBYY5wh8XC0V1J2/6VB2HIUkQqbPrCDPJEBVn7IjmmyMb2FFHoq/6xsw0RV8OS4yZr6ki/vw0RoqPsa+OZoqjmkkV1wfo8AiFFXn5G/4oUTbJqrJMWjVsXFkN87Luo5i27CCWP9rqlqbhpATHR9y4h4mXFPH6KHzsI4/jA8QOjf8BKNTV4Dm9k14AAAAASUVORK5CYII=;clipPath=inset(4.08% 7.41% 14.81% 10.19%);" parent="1" vertex="1">
                    <mxGeometry x="391.09" y="331.75" width="99.36" height="105.5" as="geometry"/>
                </mxCell>
                <mxCell id="11" value="" style="shape=image;imageAspect=0;aspect=fixed;verticalLabelPosition=bottom;verticalAlign=top;image=data:image/png,iVBORw0KGgoAAAANSUhEUgAAAbEAAAB0CAMAAAA8XPwwAAAAgVBMVEX///8CAgIAAAD+/v6Dg4Ojo6Pf39/CwsKxsbFcXFyPj4/39/c2NjbW1tbq6urz8/MYGBjMzMxMTEzb29shISF4eHgnJye4uLiVlZVDQ0Oenp7Pz8+/v79XV1fm5uYRERGGhoZycnKqqqpGRkY4ODhQUFBsbGxiYmItLS0dHR0MDAxY+zoNAAAWRklEQVR4nO1dC3ezKtMlkKjRqDGJ0ai5mWv7/3/gx4AmIuAt6fOt8y736enTpgoMG4ZhGAChESNGjBgxYsSIESNGjBgxYsSIESNGjBgxogZCEIF/6h9Ln3yeE+SFXrmRP8lAWe6vZyWKQuTq+1PwzIjjuWZk5VYWHHzn/fl3cyolJX+UAU/S8Y2Ai2JwUf6i9VVS/YPW3Zb9Og8vR/zG9mGbhz/LzfGLevwLGNF0/1MRZbmfRsaf5Qai/Du2ivaOgvCJVbgkh/ejn+VUvO+keTjfPbebzfZ5eZyslHwj9Uoarn1VinK13S/kIcC1po/Lgoqyee7mYZ76lWL8FUDnI+P06lerexgnSWzTSl0Wn+0sBx77rBx8aHECeyFX5SpxyReGGVZEL9kUqW52j9BOksQOH7vXZ4lXPvhhPoi4yUoW5WmbDvqL0bmSPW0oj6I7USVYVVTeOj9zUTex/2HDYXy50y1NbFIH5LCIP9e/0PSmXJRFGK29yp/8dTQtOl5ofFyf9PVDzJJTibIJv96VRRh7Jsgtf0tYkchxT5y05LNBh6aYXVR0vSWdpx/lQOFxvq6xUZgEhZFTqF0j3nHOvMZUOojC27helkv2qSjKjJmi85k+nEzX+ged6Mb6u/lBXpSvnV7GUtC5O1BjcZ09+4Vy3gN9AiS4M85mg/UWZMT4ahFll6Hv60bIPGDmxslrSB4+Dhhnd2egaiSsIzfJWAoa+sPEpC8deBmNJlHo5+sz0yiHwaL4YQtfZfP7XPsqim9D6c8HXhTtc/CnDNT2ZqDeIkkHIbmgv9GgDBCKGBFu+atOFvrNZcOANUwUlB27iUJlib9JGFPuDvTuTUdl5zD1mfczXflI4s07CsnkDFFP85iNU2XpOj1swcPTvtkwT0rYR5T9ZwNmPXvkgZ0dOp37bgoa1O6fT9pdSCbntafGIkXbu3mdRfFAg+57KnnQvLuesgTf04x0aPkpWmW3NMFKmWPeBbrnQt+yegkJci57WcdAGOi5U+cpXTkeXPye+bg/fUUZrHwVuTPCoGr6tIFTb8pQ0pcw3jQ7CwLT8t1LX3cTBp7KYRrQXcHAS8EQUWboCz4QphKpJbw99EyNoBmjrLOYBMX9pQQ5za7dBYZjcD30nXoQZEIvc3qIYg4TJfmCYgQFR02/JbPpe73HKUu6NmX2eKXwWshydrRKoUgwxQp6igJlo10GP7r3yvUQwngv+wZjMD3y3rNVXwuhgcCPQFlHC5ygTCBsqYOKsoYpvSjKifWw3ksdhPeyU1dRDsMIA1EGTViqedMvmzXLl4wHbeM/BjUfMEHUvv1tnxyybIyqlNjWNotMQdmzkyXHGgW04tciVYPDQ/oTWPlZF6VFiHPFIg0dtQV71v1YMZpspH4nkuLHVIXTnNunAmOEWsbXTr4kZ1EVAFtOooanGtPxvJOY3pEPrO9lxdNtr8JK8qbw/nn0OvXOs0jYxsxUMJXDNn5+6kf3n0zKtwSuzjiz8KRmBBRGS9ylCNOy9Lz5WZ6mXQaOgrJO82GE5mA+CIztNbkYp1qRCW998y7Z1KYo+Kl5ztw9VJSdP2GMlnOKS9bpFCOiiLEdSfBZQc0lNQJqYRPgEGobZkjFGKaT2/l8fjP9uYQVfQS75l1JWev6C9eJa7E6HvhYBySNDz9n2c1s4PYpEzTSY82A2noyWHlutBHIjPU2ZcXsjfcgRtBG0yL5mGxhw9tAdqKk1Drbt+VT0Yn4qn/uSXuxG9BGqKCsrfXTPLZV69k5HDz6n1GHf4J2cXjK8xJmzG5aJtL0nUrHwcsfbixJAPWarRDZKyjb9pqs17OniuSOytCpzcpNgxS+RAQFY2vk1X0tzG5qbzXJq+CUMXt1U+ASoytnjFZmII3b7RPpRBhSI9q7VJZonhSM0YYh1cYVVHxzldGiVQoVqa0nbwmrBpQx8MDIlHUaRjTZp0Vz4Ng81M85L8aQt+VdsmKOQU21ZOPjKmN3dT+eokXBGKVM8j9CHo1y+r9sJvZmTI1ZXDImUYZYQ2kxPsiqyphZCFivsJIxAoOrrBc/MD4eFXcu7WPUJDu4Bvzo+fCFDg4hB1rhJ1QwVlBWHQOcI58D6YWkE4hqzd/x5HqhjNARlA4CtJKoNl7+VBib8F5WEzNrFjMRtTNl7LhbQFq/R3ykiutIGf2Z4FnZx5gNUJ9hzqE+GrMRnB0gt+GyQcujX9Tq8SBm8M0YpKqg7DSYMaNwdhQFpn3scDzN59CrQmTdEaITvmBVYQwG3k1VMRLuLdw3FsFb1hibujksJs6pGnKv+OFTa/8sMEYr061TtmrMw/kRfSOUscCyUkpVZuIFTTRK8JL23ApjEzog1EAfWDaPMtUuBoytj/EthlmsheKc/mOg/CQwpqAM/w5eeZmCLnpXPu1jhyVCCxdljyfxNsj9maLTjDFGeB8Dyp4VI58FG/xINpqIWbVZAmO2jReUkWg2w4mNc/eCXaGPTWB0TSc1yhq9+JShXbUMwNgWJ1N8zKIFpswFJp5bNcY4ZdWSX1smEmI7AsZuCG09lEznKH2g6JmjeSD2MYVipBbSAICVTvWZITF2+PHRI3iY6OnNkhW6rKuMAah5K5oa04alMhjzdgrGTrT2XGzgeYbNqQ2doDKOAe71sYxNG7V4gGUuMZbdMJ37T3E0XyXRZHYWGeO9rKIY2XLQrWnVOhSLRBnbI5dOAlfezvOv6JyfEZ0sccaiSxkGVKcMLwapReZLu71fZYx5vyuqCZ2jG99RaN78xeFK3owRDu+Khfgg2vBwQ0ZCu+Ra0TCpQj5HW9q7jEW0s86xxBh+kFqDxroILirCgVrawp8pY2nm2vT7bZ/ic2zP833w+2LsNZF5iAG8zhIasTYf57fOmIFv9IX11ZvO0OqwJwva00rGVq8373UVPygmjnkF8xpjtI8FV5Q9w3DjROENhacpKhjL8W7FcLvtxDGDdqKmIpyEei/6WD7FWZ6YOc7skI44txdjjhkwmKZfMz9wQxhZzky/Wh97Yne5NWLb2/wE+c/9ZOLS8vDzWYHErb7F6mSmr7HaIgvXitEZJftpuENJEqLH1HoxdrRp/2YevmmdsRb7RgPnCbZspTzA2C9CS39Otd4t8+nEIYJq4oy5uwoEhys4k7XzGIIWMmMxnge/a0yHYGz7C5ytX9a97b4QeHRSLKpFXRagFEVNDX3siq35ifZeO8FphJ8H+8VYGL9Qi+bOMDVxNF7MulJkjK1oPZKnAaNZSisrAe8MZ8yrumXFQRlvu66RC9nTaloJ7Qu0Iu3TcfSgCiaL0d1F3t4vGBPSP1QZYybWCulgYImx+xkv8xssGsyuVzp0UKU44YwJjvDY2QivLrTLxM5EaHyIMRY/8TyEcN1tgk90CLOeJWNCLqJjChyluqokojubMXagOujkhrRceYbmHnLBbcgZq8KvMYYHhMOBmqutCFHGULk9qJxxwXeZMUPsY/6xwSi2ZMZKVGquZIzLM2H/1RmrmEk1UdZgKQqI8KRIv+Bnwn+cJXUrwBJSouY7d56q4NWVm4nK+ARCii8Wa7LkkZJE/2Y0JH4gFDUJafR5NDIGM0+tO7hmXl3RQ+2NCFv7GBVTw9hMWo7U+TyS5j7GFl209r1VZ1vjniMbo+ZolhibDhnIdqJZRNDPElzoD9mrzuL5nPO++PXsGKJWhIHM0hVB9KzRvrA2OQIBpkHAr3h5fRDWGdOKyVYgaou77smmiOuwXealur1+l9z1Gdavh9h1xqbcepGAmeMoL38NZMZuAxY2CRYNYjquLii2eLuo4wl92Lk9i99uEmOR3rvjb8VaX7rMhU4kr7qRHiljt9LdTu0EibG5vlWojVUzt+pgazqP8reZxBiM7rralNy6vJcqln/ZiGsXv4VRjTE8bGHTAw9u9S3+s2ZFs0ErImZ6nDWKWWpdDLlyRXPSqBVh7VBjeCzkyRrzfapWNCeTJssDyqsNUngqAwE0K5pCEnItdFvuFrBWL7mmXVbc6owZ+kUyAyvEZGvQCunFhyTGfjVzaPCTKf8ge2EVRRFfIVsIHlBDHbqxbawqDklcnRXVhAAr/T6DGPOO+KopgDIUcyBjWGOQeuD3UWEAYzC86xa8v8lY2p+xDCu9/oMY8zd4q4k5y5RSDmJsgjWN35CM+wJDGLtp/VS+MrWBjA2IHbDUMTUp88w3Q2LMedbcem9E/4Yx9Qx+CGN7LWOemrFnq/+CKBjTzFSaYKldS4P6mEOVf2/GWiEzplFXDYy1oc4Y6c/YtkPdqxjrjUgdBAuMTS+rJjwk6x60opYxzTi2qE3IakinvfrYRVltc3yN7QbEJzl8qrdWfNKZV1Mmtp0pGBuwO9rUWx7n664Jc4kxanksNA3N1PWxa+o2YX3qaXmoGbu8vPRKJDJjesuDaC2PmTIod6qbj02Y5dEbLuwNkJHyALd+45gBK21qKDcVDNOK2hUyf4l/NYy1o27dP3WL+kRjK+oiTKuQ52MDTu3x1AYWZ6zlXcUM+q55SWlidGFMYd0/NeVSzaAZBlgetGA6BY+2uj6GmjdnyJZHh5BZhZgY/yiyaWUMCldlDP6J1DMFgL/RMdZalxJje93C1U3jiR7AmHZMRAov1YuxtjYuMbYdEgG3UBLd31YkzBOsc3irIpmHMqaN9Ag123wGMGbq1YW4mi4y1gKJsdWQ1ZazcsfqAMYgshm76hJI67ZvxvprRW1U/EwTG9SbMbaert3FWF9t+YCxxjAjHdRiDmGM1qx+I0+uOn1qiOXREEyiWwTva3kQNoEOdO1f7SMdxJh2cUoPAsaiwn0LjN032wZsVoJ1T1hKF21GKjGZde+um2BIqy2wQqEBhImr/jjHu57WPTU7tTFb4NpRMEbtob7W/SBTkcDKlWJKymfQqr0MJeozaLYl/aTPSSEmMPY0A7MB8oqmfnwhMO1VLRLBDLoRdr2PmY27CO7KPtY2gz6ZEmNLfR56sG3e8sgwxPJY6c9wIPWwgRdjfbUiboqNmKlPquivFadYG7BLBVY5cChjvb1UsKg/BJlqhWyAXxE2oTU8rDgnZ4jlofV4IDbdgFmUVHN9LQ8Cm9C0o6WwSeedwIAZ9BCPB0hHZ2TyUugAxmzc0GYIIbJaHGLdy/saqrgpz/3oyRhTihdtjxG3+70S6G954M2Q+FJAqAjP6M+Y39wuq/v9PmJM3y4JW4m4yUqzt3V/azyhRHlUzhDGWvYV6kFtPGmLZ3/GrAYvAQ+KlzfJ9teK2kVuxBo/1VcK+6sfY3yTsX6nEAQjLmTGnqSIWWx4T2AMPBdDO5miSbWuaDpO1UtFS7vRBhKWmA5hrGZ5tG0qt1WH3vSyPLgnoCWQULY9ulgeRGRs0PSZpQNq+1jrZGw+9pQC4KpY+dU+lmNtxEAJea2BMraT49+qOMQCY/jZcmwUNAFJb87xSgp/E5BXGWObdA7NC8rOTsEYisMmnC1BzbBuPJiylWQ0AGP2Xo4yrUCIMIU4JqvNd1x3yLH5WNY0HTNNcT4GK4DNedgKh8AcP0/Nk1uBMbbDpqXHSHEroBWjJGmaposRpu15NEjJWpVbWzjpM46x7Tt6f0eZTy3MtL9W7JLHkQUmC3XRRyuy7X7awLd3PnXPdl/rvrKReQDYLHpFJMa6r4/BBr22gxvY1FNmjCkItoHhvauhsr+hanl0OuVlJh9T1MvyAMrbtrsS2evWzphgeXx4MCaBXeXi0lba5QjK124k0ImtQf/8GL0P+liHk5QgjwvVi+JjulOOVH0MzI4Gm/eVj3DqYP8+1vlQQC3gzDOzshMjxWGj75TB5sdxsi760+lgNn+JBcaccBo2DjDTMDRfjO06DdVgm8fCppJzswkF+GEhMvxcko7HAtb2fmwa41WK3YuvU546nlbWhLN44t66Q7PEfAGRuYD1u62qqJ3pDNqnw0sGpxk0f6exOsfCiXsdx3c+HtfPwGt43BOPCO5WYeWzH5/vTNjJuu95NJ1rdQLLNeJSdhETNhhWhWxt+1f6xe0V6ZRArSjQ+irh0Z2OESyK705w/UQW/fO1s0b6EJZ3LFVTAdCBDmU75/17x9eYJ5mfSN+pZcJeup7tsiAs6lguAmcQ8Z2clRiU9pegmVKrY0c6MjbwmGAQ5YQ6d/0mgCLc9b1ygy09wJJV97ck10c3Kbv1Yg4fzu1f9xbFPeKG9VIFeh8Dz2XpexOCtsBgoj97jYiEDxp7p1cfrx+S0Imw+hyruVgeHATf9fRu/g4fw357yE8GnNwPoky/0sFYInAGXL/dFnAFBvMx9KnO/uenF3Zs1zzogx5cKtPvYHloe3B6fB+a+ytGPkX5CmMAF451jCsXdDUUlgUFw4Bx7p+7Mgq/QcqNJkSrAT5cbXb3uxDNpHXAXLn2t7ndbS9ZvnelBC86u4UEX4wOTRMegFYJS2t9pSRofe0uJ8a3IRdaOXD8xNZEqLX1QdrsDq9HnwslSlH8LrdyvURZfH4Idy1/wu7isruEqrpwN81vNMBOhbMuut4ohIvL3Pq3CjYZxvcucdIHJnUyIB94fIY7yxI6A0RpA7vXaZuTsjy1EpJCzRgwguHLoKsuuSvy2UFOGCWHXwGcwklhv7bPCy6VoKw8P4YLlLedb4aRwG6x7CDKVhsC+QnooM1Os1kmKt9yOcFJ2TPHfLDVw9pm6xBAR5aPLn4k/MLdk1EtfPFjuWBcXMp7GmwOwFvmtY0zjDfas8k+A1Pq7NLV5dlUB1keZvwOXbgudGgfZz3Vnykvqn21SXyNPjGr4M01P5rnYYnTrDJN3+J/n6+rnw4QhUQ7rJUF/rJJBt4u2aUE9P+IX9F8fOSGwJrjm/GFOyLOH15Yzrgm2R6rJGWfnVPUwW5oEgReTQvP/T5x/WpSxE+TYuHsxm7lGZxT8WZ6/tWJgm+ZZpT5IoLypK/j6n5KrCiK8nj6KO/aftpfu13Qs+6KE/YX52z4efA1uNPfItXd45TkURZZyem+Kz77hbuav1CVNAk/U91S/3PPv3gVozZ7WH6zFBeIc3UYON+atrPvjmGdbtsy9ecjjti14V9qkQRuQ9acW4bvcFHGd8w3lobjRfH8dYf8dn+y1l8UpTF7JoRj2nuh1fxe73mh8r+klCupOL7nvRXXF5U+SylNHlexGz+SgP/1W1m9kyFUFM95ffxXA5gajuFmeWLb8cwK1t4/zfrbcA5uwERJLNM9fHZj/H8H/7a5/Cn+dyR5g63LFt8I05T/aSnfJ7LyBecRI0aMGDFixIgRI0aMGDFixIgRI0aMGDFiRG+wYBD2rVw/KH8nRUjMKx7vFR014v8TlAIWwe2gcgGS/1sNrQXGsoMTOesUHXw/QusA+R4yfCtzsn8QYjFCwNo4Bf7BiIOpF3ipa7q2HzmuOzMoS75pGGYAQa6Hwyk1kjxah8bpEAW5P3U8GzlxtB58ktCIgYgDO83NfOYnZjKzXduNZv40d8IZsg5pMLPNKEE5QW6AzMw8o3TtTtdObmazOIi8yI//KKxzhBZmEh9M244CO0hSylsQR7kZUwqDbJYms3ydzmDnxcOMZqa5Rrblz9Ajd2dWNEtnDkr+h6Ic/hvotoX5PaSJ75B/HcY0Qnea2dtErH2geva/if8DTAR9/votwr0AAAAASUVORK5CYII=;clipPath=inset(1.25% 3% 8.75% 73.33%);" parent="1" vertex="1">
                    <mxGeometry x="252.5" y="326.75" width="119.32" height="121" as="geometry"/>
                </mxCell>
                <mxCell id="12" value="" style="shape=image;imageAspect=0;aspect=fixed;verticalLabelPosition=bottom;verticalAlign=top;image=data:image/png,iVBORw0KGgoAAAANSUhEUgAAAOEAAADhCAMAAAAJbSJIAAAAh1BMVEX///8AAACgoKDs7Ozb29szMzNubm7R0dGwsLDz8/MNDQ2+vr7Hx8dBQUFbW1v7+/vf39+0tLTV1dWrq6tgYGCUlJTFxcXn5+dRUVGampre3t5KSkokJCRXV1enp6ceHh6Kiop9fX04ODiNjY10dHRnZ2cXFxdLS0sqKiqDg4MuLi4SEhJ5eXnD0aBJAAALi0lEQVR4nO1dbXeqMAxW0SFDRESHm2/odOrc//99V6Z3mjR9AVqK5/B8uncHaB/bJmmapK1WgwYNGjRo0KBBA2U4H64fRf3+ahX3o8gfjBPbPdKE0BvH0/22TeLrcOr4iWe7j8Uxevvcr2luAPNdp+vY7mxudKN9T4HcfTjn6SC03Wl1vG3Oedj9IeiMbHddAV40KcTuhmParfVQhv6+DL0rttOubR48jFIVuaKCed82Fwo+RyUUxKlm+tLpLLTyy7B3bbO6w/t81c4vw+zNNrMrvJMRer/YDmyzu4jPqTl+GQLbczX+Uu7r6zGYLSf7/WS4nPdySN2JTTPAVbLMtrtpf5A4nnfX5aHnOR9+Jx0qGT+pLSPAkav3+dSXSP3Q7b/IB9SvhhFCLO7Uergaq37KedsE4q9NqlePyVDUod5pkHfbl8Rig3ZlhAYfwgFMCxqWXrQUfHVZ5VbZE/SknCnirQTCK9LVfykGXNGwXZXfrLsvXIobDZ1XAVfHLzVZWc4n9xesQuCEPIEwUxadCo10eBzN640RZxMx0b1t7XCspanmdjDe6GYPBixk751u60V/Uw/gKAlDUyehZc7BoNqgJUBqrsExqTu+jMmbDfmLmjX96alqyFdFzpmOmbbuSGZUs0Z2jZSWCKrQT+QwGqBIWdqp/mYojKjVqJ0iMYLrypwo4Y95isQanFd5XkSpKY02VKtFuNOqsoJvGBMOS41CgLC1Y31fV4PHegFetc0iYopY8NUSJn+gyUXlsgQ/9Hw5JzZMPyZavpsw313YOjVhrcaThq963/irW3uH7qzy1+DZYGb/0WbwBLszLq0zmF+NIRi6GiE1qZn+LEr+4IyU+WY+6DA/axm8y3rEaK5y0sbDXrUzK2T0MpRTZKyPUr5ixlgjZpFmhnKKTKdK7FAj/C3K1tbNUO5rmqMXeoUJMn0n54N2hu1PSb9C7O+TvcAF9t3TxrZ+htIej/ALBVUGnqMB/ZgBhu00Z9e2hQh6eL/CUTwmGEqtMWy/ScUThR36CG9Hb4ShlCKWNgVM5S76BHdtmGEoo4hb3edniDac/JluiKHMieCjx3M7jfBa5s8CUwzbO3EPkeLPK2ywyhE4fiHD18LIS9FBh1M54xnRLoWjKAiGrlcUhCtBTBFNs9dcBLGmEGlUyLDEiQKWbW2Z/EAWSa4DBrRFEco1bQwpisJ9A/KvvObwS4WoHeEmUx9DgqJ4XKZ5HgZAq1DsG9XIsPWRj2EIt69H9UGEq1CyOdHJsDVCoXySYUHC5v9QeDKqyAMs8f5qZdhK4K8rm3jQLvm+/fWlJzm2ga8dJI3oZdhKwMyTMUSWzdWwGVz+dRINo0u9xYdmhtBWkQoPeLQ4y/4Ufsum3p59SQS7DAdwODLjMr39e8/zXCM7U3oGY5dhC6Z5nIA85igBqCoW0iYsM4TidBECyjPSDQfltfxcwDLDEJ6rDFbgv9TmfwyfkPfIDsPwz86Cfv4A+bBT9tWT7AEMGcPJUIAZq7jUGHa+PhOqfYQFqzTQxlDB/SFjKOoAFRKnxjDTEsOrIhPFhxNyEirDoZygHYY3JbHueIzCeAQVxwgnqcr5oxWGd529c1v8vDJiUxRuZU/UgiFoc37gfZxybMDti5KLzgZDtXQy0hyDolcpMtYGQ7V8R1JMwvg8FYI2GGJfKQ3a0w8eUZGkVhhyF94jaAcqFLxqHsjqGTKHayRo6wouQ7W4meoZKqXlcvyDYPgVD48rZ+ipEFxz9vjgIcX4yurHcCDMDLyCs62F+wrFLAoZw44I7+wGTkVbJJ+S/H9e2kl38uj2UDx0tLR7EuYqCkRI6Lid3XWL9a3oX7W2Ax7xJY5UC4RuvFurRlNZ3OOHfboYx1ytJVUXuV0vhovDDTJojn+17KdpOUxibaHADFELlhleMADb/GLBNQLUgOGlE9O7+tCah/H78TowvMC/qQ8dod8QdWGYlXG6vHHWX0SjPgwv6B8N5LPWiqERNAzzomFYPWQM54EAPfaE+fkYtoUoem5RJRqGDUOMhmH1aBg2DDEahtWjYdgwxHg+hlHc5yNmXZvPxzAvGoalcchbSfvZGGaRKsNc5XuejOEtpyOI1L2OT8bw77Rq8ala3+O5GIJoqhe13j4VQ5x3FKg4kJ+KIVuK6bsjDU98JoZkcbvzSVIyqR4Me5P3gbQ+BpM49h9LofaoBcNrnMxrkEai00OmXNId332+9qgFw8dktOOO01lxVOrXlGfq1IIhiFfo0QyJFFWEPT0BasEQhEhxEqQlhe0z0KFUddgfwnhM+iVOWWIAWlbVgSEMGibnEVeOPoCTp1cHhmAZfpH2pspVHJyAxhowDEH3yZFQie4/cj5fA4YwapQKiZLL0TY/Z70GDOEAUfaJghxtn3kGag0Ywv5Lf4IHPCZupLzP22cIdQURNcqXo+vRPVyM672xzxCOEJGNJrgSLmqF/esU4KdA2WcIc4TY1STS9b9ZM24WGs/fXlhnCCUpqyvEcvQ6N5OTIGbTOkNYTokV+UiOLmC9AYV6fbYZojxgxqDBczSCY6pQmkjGcCDCG2th5WUI09NZSYoi+ifPl4+/lfXXBVt7D9dU4Nlqd1hmCLcVX5RdEj4MY8T0WF7pzTJDWF6Qk6vl/lfr15TKp6ptgkrNcP2Ct2F0qJfqXZ8GqgKBUvtdjRH5lmwQrTJE1QZEPvrLavwTtKhOlGQQrTKEGcESsTj4U02hvVpfrXwMUVK3+hkAMgPEuW42c9egE5tUFZw3IUNxkoZFhqhyXp4r2dCeOBU9a48hTnnOU2Efvyvqtz2G6C7bfLfqoZUoSsqEDMvfUabMEN/jl6+ZwjVo3yNBBJQKooNiu+ERdjHvBQJ99APx4xaM1RGWMNzAJ1UTs+9Ap4n8eWqJIZ6j+XPWcFlf7jq2wxDLQukGgQBOkub5ouwwxIUjikg43HOe09sKQ+x8SQsQZK/q4ixFGwxxATN5dUca+PbItC4MmUu2it5TyPSdNMEtMMSnncXv8VvhBilpUz1DZK1RxRGVwZQkJM5nKme4wQ+VKTGAq/O3F6xtUzVD5iyw8D06v2Buqd4avrNLypBZOUV0/SPwhS5swJHTM4cFc87C3DZ5Ln2TH1OsaKu/LIM68IaguKK4w2NqTgX2rgdk7wvVEYDKHjD2bF3xyN5+qOcqeUbaGLzcXAhGJqgWhJKC/enM3PwtAVsRir2MsSiIsmEa7v/Mh5C4Y13jVCIKaukv5SPEiCiyV96v9wCiUuGwSpHK3MTY1qEnAIg5ctRecoqLlG1d+7XSIb7KLYPuwmgcJFTcnYFqScQotg9VaEbWjjFDkFPdPeddYPmRkM0auvmcucQ1w9Cs9ifudW8bVMd0OU2Dq/GDjnzVqiYgCOvmglfNcvs/nA3ZnNmbzym9lE1VA4oj5ARNLg3v3sZnut19+WM1iBWnUnBxv5oqPEprZJhoXB1hzKucb1x2Z+CW751oWo/OlMdvUZEZxS/cH8TljdXxD/fz+8pMYUeQvrAr9TOHsSDqXHxLoWbQauOGqSSvlgcvEhVbDyp2LHQpS/wPvdTNO6GSGDvrISqy8h8hHMaLUBiulOer83aSpO3MC06LckiEdd+vHXv3ZXPLjV8kNfLbFa/AR7wdpX27IPiZ9t3E8R7uzgw9z+n6nXSodGHMjz0HbSvsqN1pk+F8DGbLyX4/GS7nPXziI8DSoJ2tAo9yMGjEtyGrPg8cqrK9JvQqd1rScJQufskPpcIjFcF5V1+Pqhga8lQURiQoOlEAP7p3YzrQ3XD2jrkRxDbPKEXwfLHlpYTeqTpPcxE4sehKSSnWp3Fdh+8Bob8rNl2DjhXrsxi68USlTMMfzvN0YOtkuTDCkZ9O5EZ1Zreuuk/H7g+h58bTPWc417NTx08smtVa4XVdP4r6/dWq348ifzBOnkCiNGjQoEGDBg0a1AX/AE0DqDZF8RTgAAAAAElFTkSuQmCC;" parent="1" vertex="1">
                    <mxGeometry x="523.08" y="330" width="117.5" height="117.5" as="geometry"/>
                </mxCell>
                <mxCell id="13" value="" style="shape=image;imageAspect=0;aspect=fixed;verticalLabelPosition=bottom;verticalAlign=top;image=data:image/png,iVBORw0KGgoAAAANSUhEUgAAAMgAAADICAMAAACahl6sAAAAbFBMVEX///8AAAA/Pz9/f3+fn58fHx+/v7/KysoPDw/8/PxdXV2Pj4/4+PgcHBzx8fHX19cWFhYkJCSsrKx3d3dlZWUzMzNHR0fOzs7p6emZmZmHh4crKyve3t5sbGw7Ozujo6NLS0txcXFVVVW4uLgrcG7mAAAGQ0lEQVR4nO2d6XqqMBCGxQVQAcWt4EZr7/8ejyELazSULON55vtlNQl5G8gyMwmTCQqFQqFQKBQKgpZBfp5Z0zkPlkYwonPsWVZ8jvRzbC62MYguG+0cWxccnrfVTBI5aQ+ii9676+yKw/POOjmW/Dk/Tq3pyC4Z6+y7Alpmqv3Re6VNSq/6pbHMnBZpleNJQq+aayySPiJHjSUq6aj9IZmVJU41lqikaXnZmcYSEWScEEQqBBknBJEKQcYJQaRCkHFCEKkQZJwQRCoEGScEkQpBxgkMSBT4NQWDjZ9QQIKWHyIOBhYABCTpGPC3ybASgIDs2hyetxtWAhCQeRdkPqwEBJEKQTxvQf9YIAiC9AlBEKSUZZBlfqp7Y085c8N+HMiqPVoc6PefBhK0ObhD+dNAii5IUf7waSDSmQiCCLkACWnYW/jxID31RRAhBJEKQf53EEXLHXgQVcsddBBlyx10EGXLHXQQZTsRgiDIX0AUBhgEkQpBEKQUgkiFIAhSCkGkQhAEKYUgUiEIgpRCEKl6QTbUvLYvfwvXpahbYf/HH/zWjk0rING3Z0DfDaOjFRBD+6kb20CtgJzMgJysgxi5szzvYR2kxyutQw3bqZ1ea23gUI543bgEkKCa8UIQqRBEpmw3W02PaXq5P/a7qywVdJDgljaf8cXN700IGiRatyio0nWP9w0wSHSWHt0Tdk88ggvi97aGaJXfVnKoIMufVxhEt2ajAAXJ7vU6Xx77dT5fz1aN45WOWT0HTJDNoqrvY1ercLJ7VL/E9bUVSJDqgK5wlrV/zFjEmtc8UMsOSJIrHCSX8zpfRXscnv3sb/O0uedDntxEm1TjoxWQq9rkN6Shs+KgsZgMfYd2KhIp7PMCL2JEsQJya1dGou8yNa/6nbTQVzcVwRWdwcoqyFQRJCWJ+SqM2hZkkcLCnlHYBOkEkktEMvFwoCkdJn67qehcK2L/HR4sZAWkJ5K8V2Ttym7DlNVveWwnurN9AQkb+W8WQSbBSuEguQeZdVxZdcUZbMmsub9hJh5v/vhcLYKoizWIUoVm9SYBBpLQwS5V2nMc0fEmLNsIGAiLalKMMGWpyxP0gIHQ6qget8iOhJxWOaGAJPRfvB92LY/cW7BA2KihfMbjpuq2YYFQb0isnmEhWhAWCJ13rN4n5KJzBmKWhwVCB+v1+4Rc6zID8czBAqlueUWxh2oCDIR1WgPOrQhEtwUKJBvYaYluK4MzaVyRZmAzxutfcsCZxgf1FlHNYblFlBZWz043op989Rw+/RRBWuqSwYDOfQv1HHTauJ1AMj78TPgxynv1HHQqcLcFcl1IKyO0IDaTFc+bKeagxpSbLZBJMn9nnZuXqyM6UJNbXi0HG3gKayCqYstw5aGdraxIY8ICmVBb0Ldqclr7Y/URDAh7yKUuz6bYaFMG1wADYVVTnMifqjsLGgjrgNVeLcC29tHYGmggzNZ7VDA/ZNs6NDSQJfMpvLc/LKf1BgEHIqzW77pgThyyjgEcyIQ7Cdv+55a4cZvHA8ID4bd++KpNeHsI2zxAkMolIn8HRyKCC8WIAxCEz7ie83TJwOhXU8oVb5G9FRDVUMDwUJrhf8Tfs57wmazhHxUkBwsgA4Iz6elO1XIk/GmNjUHbzdsggRMuG9Ic9ZDn9Ge3KRsq2hS3nnVKnQRQADPLsgubX4dx3PomFUlqJHBCyr95nuubZfsqmQRdEtNB/g95hZq61Pqp/MUr4xblINMl0fkeq97u9+or6asxV0xkIXTxmvkYuySmQf6oqOi5wU5F5So1SaI5XDYrDrVws8uhaMY9GSQxEMAcbfxdUez8TY/X2hyJ7UhsYyTWQ8pNkdiPjTdE4iDI3wyJi90KRkicbLswQeJm/4gBEkcbYfSTOALRT+IKRDuJMxDdJO5ANJM4BNFL4hJEK4lTEJ0kjkC4JU8fiSOQB7c7CJKxFhVXW1zDNsl2ZInOXqLdJglHlsic+A5ea75tkgyI8ewVi15w8aL5iiR+3twD3x/VFd/ReVTYaqFJ3A8njrOIAg02x57jR21p4Luv3mipFDVmQqf3lRuk7OV2YXNKO5svR5Pc319Vv+7aOciLX6w3SpobMMgTfc3PCttaNek81+kYQaFQKBQKhUKN0D/F91u87PwpPgAAAABJRU5ErkJggg==;" parent="1" vertex="1">
                    <mxGeometry x="656.59" y="330" width="115" height="115" as="geometry"/>
                </mxCell>
                <mxCell id="9" value="" style="shape=image;imageAspect=0;aspect=fixed;verticalLabelPosition=bottom;verticalAlign=top;image=data:image/png,iVBORw0KGgoAAAANSUhEUgAAANgAAADpCAMAAABx2AnXAAAAgVBMVEX////+/v4AAAD7+/uvr6/CwsLx8fEcHBy9vb3h4eFERETU1NRXV1ddXV2lpaWSkpIXFxfr6+t8fHyCgoK5ubkvLy+zs7MgICDo6OhWVlZGRkbd3d2enp5mZmagoKBra2t0dHQ9PT0sLCzJycmLi4smJiY2NjZMTEwNDQ2Hh4cSEhIgJsKWAAALRElEQVR4nO2di3aqOhCGJxmIIgUELUURgWK17vd/wJMbeGm9tfWIa81Xi9YC5meSySQxAYAgCIIgCIIgCIIgCIIgCIIgCIIgCIIgCIIgCIIgCIIgCIIgCIIgnhCmfgzQPl19rD0A9RPqM90zrTehE8NQ/aB5YjeCWhqal4+W02GuM+LvzoKd6f4mVX+BusoyOZ6ziiR6cyOrKPVAi+qTLlCXG/0N/x0z38jqTxnTZWPB+XgTzGqZwsFLcDvzMeeRUFa73vHcHXmNQ84Lx0Phh3P+PkWBN8LytNDKVFl7tJ4OBs2YV7H5I5/x2vvJWeIJH0/hhprifwArPlfZSNVK4L/y7a0eElUVhhteZCov9gXG/Jo7OkFKGzici1uvu1aWcz68Swp/TDpQUowW6R9r3ug/rhdn3fyGL7TC3uDwz50uyAoewm3C0AQeW56IXlVkDh/rZ50mJoUtTca8QRko1xjxSrAeeUUjrCv2+YancGP6UDuekm/FLYa+O8ZiOrSXW/eTZzefQofB//QV+fv0/RgjzFx1ECWf3Zo63TqABa/9PgUeVpgqJirQl8GVe2vDBZWeRoYe2Kd6rC1j2p95K5W8H5wjDt/5LGO98h3WYixeLKoR5+sovJllsvnH3zxdw/fIZNYrDn/ZcBHQr4zYCZvywSx4+Qmzl2DE3/oU2Bs6i2188UMw5YOeCkMp7MX7cdJc/q+nwpTFZj8VhlJYX7Oiuugz74eFv8/CjMV+dgKpyOXjHguTZcy27ZlpT5vXZw61uyuL7TkP3WBFv1ER1i39yn/NgTA0Pd7gODqyvWAF04vMYE+Y7ez2q/p9XuWmJ/V/kfGVA2FKmixpw7fPoYofL0hj7cM9cvdNrSvtuQ8PNNm+MDSxevPBRzEznRkn4l7d7WbHMQ6EyQvTVGP+6uQyfiyuMPv/IkwWDReheVWdcAwv1su6C+EoKwKulLF8+XrK390H9qEeCPNGPPRHfOTL1PjbyXlCYw8rrBWw5P/W/F0XUc4deFyH/kEZiwP+Nudr1SaD9FLcGwgzunYgLJvzyZLPtQsZS2GP8x6HXjEuOR+nOlL3t0mSTJLThMa5dFlRO5Lhx9ib8pEWrIU9RhUcOw8UyWdqh4QuBiKHXtG8nr69iZTXPROm3CKmqptA9RPo/oJzdPL2LDYdfGAPhemisTPW5d4P+GKxQS8tZtwcmqEuBhd8mtH1DFlRhx1mVPoKXQZ2lBXf3vqYFcEOuKIxGYOzHsRIeQ6LmXgcnanxH2cjPZNpT1hMGX/QG2HmyxHApgPeAMZZrB4nEbZ5843F5vrU/bGYGdiEZs1HGTTFhTF1NerMvsmK0mLrxnXd5l9vhCHkQxkwvvN/MVwVUh00W/Ysxj/e5A//7Isw8MZ8KThfZ/Idz1me7wF2EU9lRf7+8fHx3iNhMgjmY772rw3K2Qnnsc7yPM/6U8YQ4orrVpSpxFRr8sz3O6AdlP9isZEW1J8ypkbIEp6auuuKRn3b3fNNPabaY/2xmEoG+sx20+zSfgJms99X51HrLNqjeozpDMbaXpzLbcQT7r7WgvokjO2+EGXb/ReaLccNzf2s2B9hpslyqdetwzRanqGMIZgAXydHZLnnycdJshNBMPbBYmx/UAKgcxYyWcP6/fUcH5Wwe+663/rV0ByIOBOOtNhepSyTOX0fj8eD8eAUn5XAA68IrcWcngizHIy2yGTGwwv4eOgVQQsbD3rT0OT881ML20/ENQk67OI2RzWbWU8sFvuSxl98GaplprfqQmfOvjDtcvIceiFMRug6gpLOIz8SdkWavgjTT2EfhOnkoRnRPOrfwEv90+wwCDYiEPphsTaJ335r4MIcgcOsaOMVXYP0WpjuPT1fxmDfeTyPsCsOe0KLqUHAC3jmK7bPJYyxXc19pjMHjyKPpxDmbkajUT06ST0Reu7YcwmTiItZ8TC6fxph1x/7ZMK+tpZPvPdswq4/9tmE7Zvlu66P7thnE9b+yzztazne4bmEdV8s2kscO+oJNsc+l7CdeXaD7ezYvegZFk8mDOI0dSRhYyZLa3zH0W9qXDxojz2NsDakKgC7iQKT45DqGYU1RaDmDs8iwM5tOLPdgOZMzxB+QmGYGcTewIvwMi9rib/7vmL/hTHdN4B2kQT7HjNdxbueHHg+57FfAdsOn24u595x31tspF8/dlDCJucPQyrVr5ipvn3zfcWHavszYdq8Dh8Hm9nsRX/D9LE2+0OLSdwPWyHUsg587OSrvxOmwhRR8fUwTdc8ua7b9Y78qcVkdff55oH7MXZvnXn85/xhGVOVQTznkYxS5qx1mw/jN9OstLB20o6t3Sa88GdSnB0/exx2NtK5Xt9zHcJH06wY+Py1eLt9nYl78PNpVgBfhDFYS5/48mjPAarumf6ujB3OHzO9rW4PhKmsWC93Ta3bSLdHs5EYZGs+60VOlBb7FUeTTxn6af54e+nivj7dmX2eeT2f17MjYd3m4Zz5+t5VPDr9p/iho9/3+X2Fnf9C2PMKe3i8eh9+cdX7bzGCIAiCIAiCIAiCIAiCIAiCIAiCIAiCIAiCIAiCIAiCIAiCIAiCIG7HTL9mdnnpbsIh2/25t+2WZ7K72J1263yYiendu3sLgBzOY+xOeb/p3npClFkU0UyN0svh6DVW0N6uUG+6l/oQxG5r78xl71gD3e3wzEwr/c/2lHY+vr03I+qfOwljZrkYhr5jFpvC9jKiXjjdCOom/8lfEcZtqrFNayvWpP/gA/RMTdZ+lP1QuJuZdsLQLo6ebsFmMREKiDJ9+e3SYMjU6kVokhmX3sE9nnUqzb0/jHaMHEhf63mNzqaIId28eBBuyhjAKzMWzeV7y3kpmLMJMuaoP++DslMcs3QiBKIAIfIyx6CRr2NkQm5i+ZjlqJ7lnsKrPBTKOCKWe8dC39FQvm9vCQWYrEP1qkm8FxGWWSCcqglEmICIPmI/wOVqWOJykstNIjeL5C6y9CV2gjIbbpK5t1hBtJisk+i1mLpVFcVJMWlmVR59lH4YlEuxKJJp5S0imf6sLFciKQvXr6skKUtpYKHvbDocLlQunvgih+lEeHmShitoCgidJItLd7IMI3AD9Pxqil5eTe8iTBftKPJgWsmnNILFQsg0bmJRJuG8SYYQbT2EGeYvIquWgcC8qibqqHDCxLSApnI3GC1g40sjvcd6VfylzJ/NRMhsO2mAuYXjzZbFotmyVeaVUeHmwTJYAg6DIeA0uJcw+cjSbT6cQLhylLC4FDCPvTJtfC/JIZ5OfJwJtwKxqipZBKtJpdfnCAGkhb3SDWCZQtGoJU71gnbSYnJfmV6xdVgWQxNAHgbxbJSMikUEfgH+Ishk5m0CuZGH30eXTIQnUzDcSmHDRFSRKDLY5Jk0VpMlPvhiscC5l2+yvJxuvNitskKtVDQt0PdHYpoYYUGjTqe9jSutkZeyRCZyP7fEsAQxGUKcxZUfliydg0hcSBNcVNOJ3NxHmPLpzqjAYQTOAsvZJMQkyJyR61XrSESymMyl0G2QN5uNC+4mcFeZqJokw6ieoHRqspSAM4XE3GNIPoK6LlAZzKnn6w2LaukQnYVe2ijKYFUHOQtlKcRVXSJu1eZOytoaBY+e7f+/vst2ccRBAMHM8mkHe3W7Mdbd+uXo5Peq0bqa16wdjtaK7dKXbT3dLi2O7Tri2p/a8MO+s4sq0FbtZlG/dmU4u6g8docy8zn3kGWCIHvTYDRlxERYaOMj/cFtPGl2gk6kvgj2NjzMSO7Wt8NWKBjt9jiwgRW2sdZ97ly7lzC0nwNtYGRuMWnXuDQ3vLYr9dn/G8satbaA2cNsGLm7y7I+St/6gLWns+HpbTcw/w8VHrHrFicYEQAAAABJRU5ErkJggg==;base64,iVBORw0KGgoAAAANSUhEUgAAAOEAAADhCAMAAAAJbSJIAAAAh1BMVEX///8AAACgoKDs7Ozb29szMzNubm7R0dGwsLDz8/MNDQ2+vr7Hx8dBQUFbW1v7+/vf39+0tLTV1dWrq6tgYGCUlJTFxcXn5+dRUVGampre3t5KSkokJCRXV1enp6ceHh6Kiop9fX04ODiNjY10dHRnZ2cXFxdLS0sqKiqDg4MuLi4SEhJ5eXnD0aBJAAALi0lEQVR4nO1dbXeqMAxW0SFDRESHm2/odOrc//99V6Z3mjR9AVqK5/B8uncHaB/bJmmapK1WgwYNGjRo0KBBA2U4H64fRf3+ahX3o8gfjBPbPdKE0BvH0/22TeLrcOr4iWe7j8Uxevvcr2luAPNdp+vY7mxudKN9T4HcfTjn6SC03Wl1vG3Oedj9IeiMbHddAV40KcTuhmParfVQhv6+DL0rttOubR48jFIVuaKCed82Fwo+RyUUxKlm+tLpLLTyy7B3bbO6w/t81c4vw+zNNrMrvJMRer/YDmyzu4jPqTl+GQLbczX+Uu7r6zGYLSf7/WS4nPdySN2JTTPAVbLMtrtpf5A4nnfX5aHnOR9+Jx0qGT+pLSPAkav3+dSXSP3Q7b/IB9SvhhFCLO7Uergaq37KedsE4q9NqlePyVDUod5pkHfbl8Rig3ZlhAYfwgFMCxqWXrQUfHVZ5VbZE/SknCnirQTCK9LVfykGXNGwXZXfrLsvXIobDZ1XAVfHLzVZWc4n9xesQuCEPIEwUxadCo10eBzN640RZxMx0b1t7XCspanmdjDe6GYPBixk751u60V/Uw/gKAlDUyehZc7BoNqgJUBqrsExqTu+jMmbDfmLmjX96alqyFdFzpmOmbbuSGZUs0Z2jZSWCKrQT+QwGqBIWdqp/mYojKjVqJ0iMYLrypwo4Y95isQanFd5XkSpKY02VKtFuNOqsoJvGBMOS41CgLC1Y31fV4PHegFetc0iYopY8NUSJn+gyUXlsgQ/9Hw5JzZMPyZavpsw313YOjVhrcaThq963/irW3uH7qzy1+DZYGb/0WbwBLszLq0zmF+NIRi6GiE1qZn+LEr+4IyU+WY+6DA/axm8y3rEaK5y0sbDXrUzK2T0MpRTZKyPUr5ixlgjZpFmhnKKTKdK7FAj/C3K1tbNUO5rmqMXeoUJMn0n54N2hu1PSb9C7O+TvcAF9t3TxrZ+htIej/ALBVUGnqMB/ZgBhu00Z9e2hQh6eL/CUTwmGEqtMWy/ScUThR36CG9Hb4ShlCKWNgVM5S76BHdtmGEoo4hb3edniDac/JluiKHMieCjx3M7jfBa5s8CUwzbO3EPkeLPK2ywyhE4fiHD18LIS9FBh1M54xnRLoWjKAiGrlcUhCtBTBFNs9dcBLGmEGlUyLDEiQKWbW2Z/EAWSa4DBrRFEco1bQwpisJ9A/KvvObwS4WoHeEmUx9DgqJ4XKZ5HgZAq1DsG9XIsPWRj2EIt69H9UGEq1CyOdHJsDVCoXySYUHC5v9QeDKqyAMs8f5qZdhK4K8rm3jQLvm+/fWlJzm2ga8dJI3oZdhKwMyTMUSWzdWwGVz+dRINo0u9xYdmhtBWkQoPeLQ4y/4Ufsum3p59SQS7DAdwODLjMr39e8/zXCM7U3oGY5dhC6Z5nIA85igBqCoW0iYsM4TidBECyjPSDQfltfxcwDLDEJ6rDFbgv9TmfwyfkPfIDsPwz86Cfv4A+bBT9tWT7AEMGcPJUIAZq7jUGHa+PhOqfYQFqzTQxlDB/SFjKOoAFRKnxjDTEsOrIhPFhxNyEirDoZygHYY3JbHueIzCeAQVxwgnqcr5oxWGd529c1v8vDJiUxRuZU/UgiFoc37gfZxybMDti5KLzgZDtXQy0hyDolcpMtYGQ7V8R1JMwvg8FYI2GGJfKQ3a0w8eUZGkVhhyF94jaAcqFLxqHsjqGTKHayRo6wouQ7W4meoZKqXlcvyDYPgVD48rZ+ipEFxz9vjgIcX4yurHcCDMDLyCs62F+wrFLAoZw44I7+wGTkVbJJ+S/H9e2kl38uj2UDx0tLR7EuYqCkRI6Lid3XWL9a3oX7W2Ax7xJY5UC4RuvFurRlNZ3OOHfboYx1ytJVUXuV0vhovDDTJojn+17KdpOUxibaHADFELlhleMADb/GLBNQLUgOGlE9O7+tCah/H78TowvMC/qQ8dod8QdWGYlXG6vHHWX0SjPgwv6B8N5LPWiqERNAzzomFYPWQM54EAPfaE+fkYtoUoem5RJRqGDUOMhmH1aBg2DDEahtWjYdgwxHg+hlHc5yNmXZvPxzAvGoalcchbSfvZGGaRKsNc5XuejOEtpyOI1L2OT8bw77Rq8ala3+O5GIJoqhe13j4VQ5x3FKg4kJ+KIVuK6bsjDU98JoZkcbvzSVIyqR4Me5P3gbQ+BpM49h9LofaoBcNrnMxrkEai00OmXNId332+9qgFw8dktOOO01lxVOrXlGfq1IIhiFfo0QyJFFWEPT0BasEQhEhxEqQlhe0z0KFUddgfwnhM+iVOWWIAWlbVgSEMGibnEVeOPoCTp1cHhmAZfpH2pspVHJyAxhowDEH3yZFQie4/cj5fA4YwapQKiZLL0TY/Z70GDOEAUfaJghxtn3kGag0Ywv5Lf4IHPCZupLzP22cIdQURNcqXo+vRPVyM672xzxCOEJGNJrgSLmqF/esU4KdA2WcIc4TY1STS9b9ZM24WGs/fXlhnCCUpqyvEcvQ6N5OTIGbTOkNYTokV+UiOLmC9AYV6fbYZojxgxqDBczSCY6pQmkjGcCDCG2th5WUI09NZSYoi+ifPl4+/lfXXBVt7D9dU4Nlqd1hmCLcVX5RdEj4MY8T0WF7pzTJDWF6Qk6vl/lfr15TKp6ptgkrNcP2Ct2F0qJfqXZ8GqgKBUvtdjRH5lmwQrTJE1QZEPvrLavwTtKhOlGQQrTKEGcESsTj4U02hvVpfrXwMUVK3+hkAMgPEuW42c9egE5tUFZw3IUNxkoZFhqhyXp4r2dCeOBU9a48hTnnOU2Efvyvqtz2G6C7bfLfqoZUoSsqEDMvfUabMEN/jl6+ZwjVo3yNBBJQKooNiu+ERdjHvBQJ99APx4xaM1RGWMNzAJ1UTs+9Ap4n8eWqJIZ6j+XPWcFlf7jq2wxDLQukGgQBOkub5ouwwxIUjikg43HOe09sKQ+x8SQsQZK/q4ixFGwxxATN5dUca+PbItC4MmUu2it5TyPSdNMEtMMSnncXv8VvhBilpUz1DZK1RxRGVwZQkJM5nKme4wQ+VKTGAq/O3F6xtUzVD5iyw8D06v2Buqd4avrNLypBZOUV0/SPwhS5swJHTM4cFc87C3DZ5Ln2TH1OsaKu/LIM68IaguKK4w2NqTgX2rgdk7wvVEYDKHjD2bF3xyN5+qOcqeUbaGLzcXAhGJqgWhJKC/enM3PwtAVsRir2MsSiIsmEa7v/Mh5C4Y13jVCIKaukv5SPEiCiyV96v9wCiUuGwSpHK3MTY1qEnAIg5ctRecoqLlG1d+7XSIb7KLYPuwmgcJFTcnYFqScQotg9VaEbWjjFDkFPdPeddYPmRkM0auvmcucQ1w9Cs9ifudW8bVMd0OU2Dq/GDjnzVqiYgCOvmglfNcvs/nA3ZnNmbzym9lE1VA4oj5ARNLg3v3sZnut19+WM1iBWnUnBxv5oqPEprZJhoXB1hzKucb1x2Z+CW751oWo/OlMdvUZEZxS/cH8TljdXxD/fz+8pMYUeQvrAr9TOHsSDqXHxLoWbQauOGqSSvlgcvEhVbDyp2LHQpS/wPvdTNO6GSGDvrISqy8h8hHMaLUBiulOer83aSpO3MC06LckiEdd+vHXv3ZXPLjV8kNfLbFa/AR7wdpX27IPiZ9t3E8R7uzgw9z+n6nXSodGHMjz0HbSvsqN1pk+F8DGbLyX4/GS7nPXziI8DSoJ2tAo9yMGjEtyGrPg8cqrK9JvQqd1rScJQufskPpcIjFcF5V1+Pqhga8lQURiQoOlEAP7p3YzrQ3XD2jrkRxDbPKEXwfLHlpYTeqTpPcxE4sehKSSnWp3Fdh+8Bob8rNl2DjhXrsxi68USlTMMfzvN0YOtkuTDCkZ9O5EZ1Zreuuk/H7g+h58bTPWc417NTx08smtVa4XVdP4r6/dWq348ifzBOnkCiNGjQoEGDBg0a1AX/AE0DqDZF8RTgAAAAAElFTkSuQmCC;base64,iVBORw0KGgoAAAANSUhEUgAAAbEAAAB0CAMAAAA8XPwwAAAAgVBMVEX///8CAgIAAAD+/v6Dg4Ojo6Pf39/CwsKxsbFcXFyPj4/39/c2NjbW1tbq6urz8/MYGBjMzMxMTEzb29shISF4eHgnJye4uLiVlZVDQ0Oenp7Pz8+/v79XV1fm5uYRERGGhoZycnKqqqpGRkY4ODhQUFBsbGxiYmItLS0dHR0MDAxY+zoNAAAWRklEQVR4nO1dC3ezKtMlkKjRqDGJ0ai5mWv7/3/gx4AmIuAt6fOt8y736enTpgoMG4ZhGAChESNGjBgxYsSIESNGjBgxYsSIESNGjBgxogZCEIF/6h9Ln3yeE+SFXrmRP8lAWe6vZyWKQuTq+1PwzIjjuWZk5VYWHHzn/fl3cyolJX+UAU/S8Y2Ai2JwUf6i9VVS/YPW3Zb9Og8vR/zG9mGbhz/LzfGLevwLGNF0/1MRZbmfRsaf5Qai/Du2ivaOgvCJVbgkh/ejn+VUvO+keTjfPbebzfZ5eZyslHwj9Uoarn1VinK13S/kIcC1po/Lgoqyee7mYZ76lWL8FUDnI+P06lerexgnSWzTSl0Wn+0sBx77rBx8aHECeyFX5SpxyReGGVZEL9kUqW52j9BOksQOH7vXZ4lXPvhhPoi4yUoW5WmbDvqL0bmSPW0oj6I7USVYVVTeOj9zUTex/2HDYXy50y1NbFIH5LCIP9e/0PSmXJRFGK29yp/8dTQtOl5ofFyf9PVDzJJTibIJv96VRRh7Jsgtf0tYkchxT5y05LNBh6aYXVR0vSWdpx/lQOFxvq6xUZgEhZFTqF0j3nHOvMZUOojC27helkv2qSjKjJmi85k+nEzX+ged6Mb6u/lBXpSvnV7GUtC5O1BjcZ09+4Vy3gN9AiS4M85mg/UWZMT4ahFll6Hv60bIPGDmxslrSB4+Dhhnd2egaiSsIzfJWAoa+sPEpC8deBmNJlHo5+sz0yiHwaL4YQtfZfP7XPsqim9D6c8HXhTtc/CnDNT2ZqDeIkkHIbmgv9GgDBCKGBFu+atOFvrNZcOANUwUlB27iUJlib9JGFPuDvTuTUdl5zD1mfczXflI4s07CsnkDFFP85iNU2XpOj1swcPTvtkwT0rYR5T9ZwNmPXvkgZ0dOp37bgoa1O6fT9pdSCbntafGIkXbu3mdRfFAg+57KnnQvLuesgTf04x0aPkpWmW3NMFKmWPeBbrnQt+yegkJci57WcdAGOi5U+cpXTkeXPye+bg/fUUZrHwVuTPCoGr6tIFTb8pQ0pcw3jQ7CwLT8t1LX3cTBp7KYRrQXcHAS8EQUWboCz4QphKpJbw99EyNoBmjrLOYBMX9pQQ5za7dBYZjcD30nXoQZEIvc3qIYg4TJfmCYgQFR02/JbPpe73HKUu6NmX2eKXwWshydrRKoUgwxQp6igJlo10GP7r3yvUQwngv+wZjMD3y3rNVXwuhgcCPQFlHC5ygTCBsqYOKsoYpvSjKifWw3ksdhPeyU1dRDsMIA1EGTViqedMvmzXLl4wHbeM/BjUfMEHUvv1tnxyybIyqlNjWNotMQdmzkyXHGgW04tciVYPDQ/oTWPlZF6VFiHPFIg0dtQV71v1YMZpspH4nkuLHVIXTnNunAmOEWsbXTr4kZ1EVAFtOooanGtPxvJOY3pEPrO9lxdNtr8JK8qbw/nn0OvXOs0jYxsxUMJXDNn5+6kf3n0zKtwSuzjiz8KRmBBRGS9ylCNOy9Lz5WZ6mXQaOgrJO82GE5mA+CIztNbkYp1qRCW998y7Z1KYo+Kl5ztw9VJSdP2GMlnOKS9bpFCOiiLEdSfBZQc0lNQJqYRPgEGobZkjFGKaT2/l8fjP9uYQVfQS75l1JWev6C9eJa7E6HvhYBySNDz9n2c1s4PYpEzTSY82A2noyWHlutBHIjPU2ZcXsjfcgRtBG0yL5mGxhw9tAdqKk1Drbt+VT0Yn4qn/uSXuxG9BGqKCsrfXTPLZV69k5HDz6n1GHf4J2cXjK8xJmzG5aJtL0nUrHwcsfbixJAPWarRDZKyjb9pqs17OniuSOytCpzcpNgxS+RAQFY2vk1X0tzG5qbzXJq+CUMXt1U+ASoytnjFZmII3b7RPpRBhSI9q7VJZonhSM0YYh1cYVVHxzldGiVQoVqa0nbwmrBpQx8MDIlHUaRjTZp0Vz4Ng81M85L8aQt+VdsmKOQU21ZOPjKmN3dT+eokXBGKVM8j9CHo1y+r9sJvZmTI1ZXDImUYZYQ2kxPsiqyphZCFivsJIxAoOrrBc/MD4eFXcu7WPUJDu4Bvzo+fCFDg4hB1rhJ1QwVlBWHQOcI58D6YWkE4hqzd/x5HqhjNARlA4CtJKoNl7+VBib8F5WEzNrFjMRtTNl7LhbQFq/R3ykiutIGf2Z4FnZx5gNUJ9hzqE+GrMRnB0gt+GyQcujX9Tq8SBm8M0YpKqg7DSYMaNwdhQFpn3scDzN59CrQmTdEaITvmBVYQwG3k1VMRLuLdw3FsFb1hibujksJs6pGnKv+OFTa/8sMEYr061TtmrMw/kRfSOUscCyUkpVZuIFTTRK8JL23ApjEzog1EAfWDaPMtUuBoytj/EthlmsheKc/mOg/CQwpqAM/w5eeZmCLnpXPu1jhyVCCxdljyfxNsj9maLTjDFGeB8Dyp4VI58FG/xINpqIWbVZAmO2jReUkWg2w4mNc/eCXaGPTWB0TSc1yhq9+JShXbUMwNgWJ1N8zKIFpswFJp5bNcY4ZdWSX1smEmI7AsZuCG09lEznKH2g6JmjeSD2MYVipBbSAICVTvWZITF2+PHRI3iY6OnNkhW6rKuMAah5K5oa04alMhjzdgrGTrT2XGzgeYbNqQ2doDKOAe71sYxNG7V4gGUuMZbdMJ37T3E0XyXRZHYWGeO9rKIY2XLQrWnVOhSLRBnbI5dOAlfezvOv6JyfEZ0sccaiSxkGVKcMLwapReZLu71fZYx5vyuqCZ2jG99RaN78xeFK3owRDu+Khfgg2vBwQ0ZCu+Ra0TCpQj5HW9q7jEW0s86xxBh+kFqDxroILirCgVrawp8pY2nm2vT7bZ/ic2zP833w+2LsNZF5iAG8zhIasTYf57fOmIFv9IX11ZvO0OqwJwva00rGVq8373UVPygmjnkF8xpjtI8FV5Q9w3DjROENhacpKhjL8W7FcLvtxDGDdqKmIpyEei/6WD7FWZ6YOc7skI44txdjjhkwmKZfMz9wQxhZzky/Wh97Yne5NWLb2/wE+c/9ZOLS8vDzWYHErb7F6mSmr7HaIgvXitEZJftpuENJEqLH1HoxdrRp/2YevmmdsRb7RgPnCbZspTzA2C9CS39Otd4t8+nEIYJq4oy5uwoEhys4k7XzGIIWMmMxnge/a0yHYGz7C5ytX9a97b4QeHRSLKpFXRagFEVNDX3siq35ifZeO8FphJ8H+8VYGL9Qi+bOMDVxNF7MulJkjK1oPZKnAaNZSisrAe8MZ8yrumXFQRlvu66RC9nTaloJ7Qu0Iu3TcfSgCiaL0d1F3t4vGBPSP1QZYybWCulgYImx+xkv8xssGsyuVzp0UKU44YwJjvDY2QivLrTLxM5EaHyIMRY/8TyEcN1tgk90CLOeJWNCLqJjChyluqokojubMXagOujkhrRceYbmHnLBbcgZq8KvMYYHhMOBmqutCFHGULk9qJxxwXeZMUPsY/6xwSi2ZMZKVGquZIzLM2H/1RmrmEk1UdZgKQqI8KRIv+Bnwn+cJXUrwBJSouY7d56q4NWVm4nK+ARCii8Wa7LkkZJE/2Y0JH4gFDUJafR5NDIGM0+tO7hmXl3RQ+2NCFv7GBVTw9hMWo7U+TyS5j7GFl209r1VZ1vjniMbo+ZolhibDhnIdqJZRNDPElzoD9mrzuL5nPO++PXsGKJWhIHM0hVB9KzRvrA2OQIBpkHAr3h5fRDWGdOKyVYgaou77smmiOuwXealur1+l9z1Gdavh9h1xqbcepGAmeMoL38NZMZuAxY2CRYNYjquLii2eLuo4wl92Lk9i99uEmOR3rvjb8VaX7rMhU4kr7qRHiljt9LdTu0EibG5vlWojVUzt+pgazqP8reZxBiM7rralNy6vJcqln/ZiGsXv4VRjTE8bGHTAw9u9S3+s2ZFs0ErImZ6nDWKWWpdDLlyRXPSqBVh7VBjeCzkyRrzfapWNCeTJssDyqsNUngqAwE0K5pCEnItdFvuFrBWL7mmXVbc6owZ+kUyAyvEZGvQCunFhyTGfjVzaPCTKf8ge2EVRRFfIVsIHlBDHbqxbawqDklcnRXVhAAr/T6DGPOO+KopgDIUcyBjWGOQeuD3UWEAYzC86xa8v8lY2p+xDCu9/oMY8zd4q4k5y5RSDmJsgjWN35CM+wJDGLtp/VS+MrWBjA2IHbDUMTUp88w3Q2LMedbcem9E/4Yx9Qx+CGN7LWOemrFnq/+CKBjTzFSaYKldS4P6mEOVf2/GWiEzplFXDYy1oc4Y6c/YtkPdqxjrjUgdBAuMTS+rJjwk6x60opYxzTi2qE3IakinvfrYRVltc3yN7QbEJzl8qrdWfNKZV1Mmtp0pGBuwO9rUWx7n664Jc4kxanksNA3N1PWxa+o2YX3qaXmoGbu8vPRKJDJjesuDaC2PmTIod6qbj02Y5dEbLuwNkJHyALd+45gBK21qKDcVDNOK2hUyf4l/NYy1o27dP3WL+kRjK+oiTKuQ52MDTu3x1AYWZ6zlXcUM+q55SWlidGFMYd0/NeVSzaAZBlgetGA6BY+2uj6GmjdnyJZHh5BZhZgY/yiyaWUMCldlDP6J1DMFgL/RMdZalxJje93C1U3jiR7AmHZMRAov1YuxtjYuMbYdEgG3UBLd31YkzBOsc3irIpmHMqaN9Ag123wGMGbq1YW4mi4y1gKJsdWQ1ZazcsfqAMYgshm76hJI67ZvxvprRW1U/EwTG9SbMbaert3FWF9t+YCxxjAjHdRiDmGM1qx+I0+uOn1qiOXREEyiWwTva3kQNoEOdO1f7SMdxJh2cUoPAsaiwn0LjN032wZsVoJ1T1hKF21GKjGZde+um2BIqy2wQqEBhImr/jjHu57WPTU7tTFb4NpRMEbtob7W/SBTkcDKlWJKymfQqr0MJeozaLYl/aTPSSEmMPY0A7MB8oqmfnwhMO1VLRLBDLoRdr2PmY27CO7KPtY2gz6ZEmNLfR56sG3e8sgwxPJY6c9wIPWwgRdjfbUiboqNmKlPquivFadYG7BLBVY5cChjvb1UsKg/BJlqhWyAXxE2oTU8rDgnZ4jlofV4IDbdgFmUVHN9LQ8Cm9C0o6WwSeedwIAZ9BCPB0hHZ2TyUugAxmzc0GYIIbJaHGLdy/saqrgpz/3oyRhTihdtjxG3+70S6G954M2Q+FJAqAjP6M+Y39wuq/v9PmJM3y4JW4m4yUqzt3V/azyhRHlUzhDGWvYV6kFtPGmLZ3/GrAYvAQ+KlzfJ9teK2kVuxBo/1VcK+6sfY3yTsX6nEAQjLmTGnqSIWWx4T2AMPBdDO5miSbWuaDpO1UtFS7vRBhKWmA5hrGZ5tG0qt1WH3vSyPLgnoCWQULY9ulgeRGRs0PSZpQNq+1jrZGw+9pQC4KpY+dU+lmNtxEAJea2BMraT49+qOMQCY/jZcmwUNAFJb87xSgp/E5BXGWObdA7NC8rOTsEYisMmnC1BzbBuPJiylWQ0AGP2Xo4yrUCIMIU4JqvNd1x3yLH5WNY0HTNNcT4GK4DNedgKh8AcP0/Nk1uBMbbDpqXHSHEroBWjJGmaposRpu15NEjJWpVbWzjpM46x7Tt6f0eZTy3MtL9W7JLHkQUmC3XRRyuy7X7awLd3PnXPdl/rvrKReQDYLHpFJMa6r4/BBr22gxvY1FNmjCkItoHhvauhsr+hanl0OuVlJh9T1MvyAMrbtrsS2evWzphgeXx4MCaBXeXi0lba5QjK124k0ImtQf/8GL0P+liHk5QgjwvVi+JjulOOVH0MzI4Gm/eVj3DqYP8+1vlQQC3gzDOzshMjxWGj75TB5sdxsi760+lgNn+JBcaccBo2DjDTMDRfjO06DdVgm8fCppJzswkF+GEhMvxcko7HAtb2fmwa41WK3YuvU546nlbWhLN44t66Q7PEfAGRuYD1u62qqJ3pDNqnw0sGpxk0f6exOsfCiXsdx3c+HtfPwGt43BOPCO5WYeWzH5/vTNjJuu95NJ1rdQLLNeJSdhETNhhWhWxt+1f6xe0V6ZRArSjQ+irh0Z2OESyK705w/UQW/fO1s0b6EJZ3LFVTAdCBDmU75/17x9eYJ5mfSN+pZcJeup7tsiAs6lguAmcQ8Z2clRiU9pegmVKrY0c6MjbwmGAQ5YQ6d/0mgCLc9b1ygy09wJJV97ck10c3Kbv1Yg4fzu1f9xbFPeKG9VIFeh8Dz2XpexOCtsBgoj97jYiEDxp7p1cfrx+S0Imw+hyruVgeHATf9fRu/g4fw357yE8GnNwPoky/0sFYInAGXL/dFnAFBvMx9KnO/uenF3Zs1zzogx5cKtPvYHloe3B6fB+a+ytGPkX5CmMAF451jCsXdDUUlgUFw4Bx7p+7Mgq/QcqNJkSrAT5cbXb3uxDNpHXAXLn2t7ndbS9ZvnelBC86u4UEX4wOTRMegFYJS2t9pSRofe0uJ8a3IRdaOXD8xNZEqLX1QdrsDq9HnwslSlH8LrdyvURZfH4Idy1/wu7isruEqrpwN81vNMBOhbMuut4ohIvL3Pq3CjYZxvcucdIHJnUyIB94fIY7yxI6A0RpA7vXaZuTsjy1EpJCzRgwguHLoKsuuSvy2UFOGCWHXwGcwklhv7bPCy6VoKw8P4YLlLedb4aRwG6x7CDKVhsC+QnooM1Os1kmKt9yOcFJ2TPHfLDVw9pm6xBAR5aPLn4k/MLdk1EtfPFjuWBcXMp7GmwOwFvmtY0zjDfas8k+A1Pq7NLV5dlUB1keZvwOXbgudGgfZz3Vnykvqn21SXyNPjGr4M01P5rnYYnTrDJN3+J/n6+rnw4QhUQ7rJUF/rJJBt4u2aUE9P+IX9F8fOSGwJrjm/GFOyLOH15Yzrgm2R6rJGWfnVPUwW5oEgReTQvP/T5x/WpSxE+TYuHsxm7lGZxT8WZ6/tWJgm+ZZpT5IoLypK/j6n5KrCiK8nj6KO/aftpfu13Qs+6KE/YX52z4efA1uNPfItXd45TkURZZyem+Kz77hbuav1CVNAk/U91S/3PPv3gVozZ7WH6zFBeIc3UYON+atrPvjmGdbtsy9ecjjti14V9qkQRuQ9acW4bvcFHGd8w3lobjRfH8dYf8dn+y1l8UpTF7JoRj2nuh1fxe73mh8r+klCupOL7nvRXXF5U+SylNHlexGz+SgP/1W1m9kyFUFM95ffxXA5gajuFmeWLb8cwK1t4/zfrbcA5uwERJLNM9fHZj/H8H/7a5/Cn+dyR5g63LFt8I05T/aSnfJ7LyBecRI0aMGDFixIgRI0aMGDFixIgRI0aMGDFiRG+wYBD2rVw/KH8nRUjMKx7vFR014v8TlAIWwe2gcgGS/1sNrQXGsoMTOesUHXw/QusA+R4yfCtzsn8QYjFCwNo4Bf7BiIOpF3ipa7q2HzmuOzMoS75pGGYAQa6Hwyk1kjxah8bpEAW5P3U8GzlxtB58ktCIgYgDO83NfOYnZjKzXduNZv40d8IZsg5pMLPNKEE5QW6AzMw8o3TtTtdObmazOIi8yI//KKxzhBZmEh9M244CO0hSylsQR7kZUwqDbJYms3ydzmDnxcOMZqa5Rrblz9Ajd2dWNEtnDkr+h6Ic/hvotoX5PaSJ75B/HcY0Qnea2dtErH2geva/if8DTAR9/votwr0AAAAASUVORK5CYII=;base64,iVBORw0KGgoAAAANSUhEUgAAANgAAADpCAMAAABx2AnXAAAAwFBMVEX///8AAAAREiRRUVFcXFza2tt7e3stLS319fWVlZXDw8Ph4eHv7++tra23t7fHx8fp6enR0dEAABoAABcAABMLDCBCQkIQEiNSUlLW1tYeHh6np6fNzc1mZmaHh4dYWFiUlJohIjElJSWdnZ0pKjidnaNzc3wODg5zc3OBgYGUlJRsbGw8PDxGRkYxM0B+f4dBQUwAAB9cXGRqanMAAA4VFRU1NTVKSlRiY2sZGiw3OUaGiJJNUFkjJDKjpKuBg4r9JBREAAAHEElEQVR4nO2dDVuqPBiAGWVZKiqwOPYlFOx0TiUEvqlQ+v//1QuCCihJJ8am13N3VTr52O2eZ4yJKggAAAAAAAAAAADHy6BTKVKTtVDCGaqaPmulJZeVe3Fi9oeCGGqwthJoRGIEB21GR4wDM0piaMCH2Hmv2f45zQ5HbZaIVXPwkTiKRnpijKORohjbNqMh9psHMxpitzxEIw2xdus/9m1GQ6wntK6Zm9ERE1rMexBKYkKLdQ9CSywVjbeVbPu7UBNjHY30xFLRyKLXpyjGNhppitXWg/S6WaIzeKpiqTyjGY3b0xsN2mK1ROPNllcNYsJmdEXN7JSJWA3ReMJGTOjRjkZWYtTzjJmY0FvvkEqvH4u93tbZ3SfQjcZY7DRXWosY3WhkKUY1GpmK0YxGtmIUo5GxWCoaKzZjLSb0KM1dMRcTWg9U2qw+scKNtc9pmNUndl7E+7rJqozG+sRKUd3r1JyJPVWyxwjOxE4q2WNEDWKDYxUTno5VTOjcne7j7voQxcpwCmLlADHagFhJQIw2IFYSEKMNiJUExGgDYiUBMdqAWElAjDYgVhIQow2IlQTEaANiJQEx2hyEWO/1JOTq8TvrHITY43L1711jeRBi8avlL99a5xDE+nGDdb61En9ira1USl7BTNbulLvGgTex/h16zxU1Y6/n5O4TOrksURG+xKSXcLGrXGHyvufVZTbRtq5v9m6KI7H2Y/y6cV4s3uS6HZN3wd+3vq4IN2Kt9VsscmLJJfV/s9uKYvPLZONErD9EqEDsPi5dN1Dqcwtevkg2HsSay9Rak1s5Lhyu79+nl71+bBdUhL1Y+/EhXdXTbvbh5MNbpE3JIHsBS0GysRZrne2pZfJmmUxZ+/F3eqXTXcnGVux2mK7gy46xRXKN7598ufQrs6a0tSJTsYzW3c7rQZPx747rDhuZtn7IX0nLUqx5vqnY34JLfONu5XXnY82bVETmY5ip2PuqVsOiA0Ey/r0p2t0Zn2KbFvuvoG9LKr67T28/rp8ZvsSE13SWnO7IsWT8e7drT61sr89TjuV7xYetoW1u/JtCyjwpV5z1ikJ6iLgkF5FXcZzmV+plj+k7B42sxaJMyagNUyOP/Pg3ZvD81XOxgr1YiHSVrummb7/flT6ZJn4onLniQmx54rxJmFVh82HXxlLH5a9OpTkRC8Pufktse/y72VaUWl9Ox3EjFjZQ/gw6bsXr3FqrM+ii85UEjsSEpBNfibVjg/z4N9rW+0HNeSzpP69nNwrmf5/Qr8ObpYrorTq6ODDP8493ys108ye2Yt/4dw/8iiWdxL/O93MrlnQdz/uX3A23Yt3XXyGv//w2S27FfgqIlQTEaANiJQEx2oBYSUCMNiBWEhCjDYiVBMRoA2IlATHagFhJQIw2IFYSEKMNiJUExGgDYiUBMdqAWElAjDYgVhIQow2IlQTEaANiJQEx2tQq1mjVRu+kRjEGgBiIZdn+GrmaGO6sZHViXVZi3/psk38QEy7YeFX3zQtFYkKre1k/VX4tXpHYwQNi1SHdRND+Dt76xZrxW0XOKO+Ggdg5iP0EEKsMEPsZIFYZIPYzQKwyahUbNtu10atTjAEgBmJZhvurcJhi9/urQIftT82plubr/jrQoML5qCKkvxf1091fLwAAAAAAAAAAAAAAAOA4aBwpApsZQ/oI4pECYodGIoaTXzH1XxRlWcSbe9EteXOXc2Ix7GMRm7P49kiLH9IU11VNf6Uym2Dt0x0dilksJntTWQkUVdEUFQUzrKoyVlFnPp8TC6kIYYzQqI+QHzg1imla9u6OJeJfLV40s3zSYkagGratL5CtE1sf6TqZWB+ND4S8nqsP+qbTaEwunYHp+HW2GMZaGElhNuAoCcL/ocEyI7Qkd7Ami3K0jCyHj0d/wuTRUmKiqoueRxRCpggt3nQREeKOnX7D9nTzFk07lz767A2WG68N2fW92Uz9NCaKKWMv+PBlQzbMqajhT9mUZ9hQPdUyFi6xTYsQy7QWrj4lczUtJk/dICz1bEdWA2yNFW8xkcforWFfTCTkS7dj1ez1jVoTDBsLW++SwLPshWdNCbEXuqt/SC7SvUVArLnueK7tSAvb8i3bdty57gWeSeS0mIjnthFg09Sx4U49V9TdD9kietdpmA1ySXTJdm4njXGdYqI6/9BtsnCDgCxIdFMPSKhmz+ZuWDWPTGxHv5zqljuf6nqgu1b4DBA7efZXYrJnyOY9wWZAxlPkBYY5wh8XC0V1J2/6VB2HIUkQqbPrCDPJEBVn7IjmmyMb2FFHoq/6xsw0RV8OS4yZr6ki/vw0RoqPsa+OZoqjmkkV1wfo8AiFFXn5G/4oUTbJqrJMWjVsXFkN87Luo5i27CCWP9rqlqbhpATHR9y4h4mXFPH6KHzsI4/jA8QOjf8BKNTV4Dm9k14AAAAASUVORK5CYII=;base64,iVBORw0KGgoAAAANSUhEUgAAAMgAAADICAMAAACahl6sAAAAbFBMVEX///8AAAA/Pz9/f3+fn58fHx+/v7/KysoPDw/8/PxdXV2Pj4/4+PgcHBzx8fHX19cWFhYkJCSsrKx3d3dlZWUzMzNHR0fOzs7p6emZmZmHh4crKyve3t5sbGw7Ozujo6NLS0txcXFVVVW4uLgrcG7mAAAGQ0lEQVR4nO2d6XqqMBCGxQVQAcWt4EZr7/8ejyELazSULON55vtlNQl5G8gyMwmTCQqFQqFQKBQKgpZBfp5Z0zkPlkYwonPsWVZ8jvRzbC62MYguG+0cWxccnrfVTBI5aQ+ii9676+yKw/POOjmW/Dk/Tq3pyC4Z6+y7Alpmqv3Re6VNSq/6pbHMnBZpleNJQq+aayySPiJHjSUq6aj9IZmVJU41lqikaXnZmcYSEWScEEQqBBknBJEKQcYJQaRCkHFCEKkQZJwQRCoEGScEkQpBxgkMSBT4NQWDjZ9QQIKWHyIOBhYABCTpGPC3ybASgIDs2hyetxtWAhCQeRdkPqwEBJEKQTxvQf9YIAiC9AlBEKSUZZBlfqp7Y085c8N+HMiqPVoc6PefBhK0ObhD+dNAii5IUf7waSDSmQiCCLkACWnYW/jxID31RRAhBJEKQf53EEXLHXgQVcsddBBlyx10EGXLHXQQZTsRgiDIX0AUBhgEkQpBEKQUgkiFIAhSCkGkQhAEKYUgUiEIgpRCEKl6QTbUvLYvfwvXpahbYf/HH/zWjk0rING3Z0DfDaOjFRBD+6kb20CtgJzMgJysgxi5szzvYR2kxyutQw3bqZ1ea23gUI543bgEkKCa8UIQqRBEpmw3W02PaXq5P/a7qywVdJDgljaf8cXN700IGiRatyio0nWP9w0wSHSWHt0Tdk88ggvi97aGaJXfVnKoIMufVxhEt2ajAAXJ7vU6Xx77dT5fz1aN45WOWT0HTJDNoqrvY1ercLJ7VL/E9bUVSJDqgK5wlrV/zFjEmtc8UMsOSJIrHCSX8zpfRXscnv3sb/O0uedDntxEm1TjoxWQq9rkN6Shs+KgsZgMfYd2KhIp7PMCL2JEsQJya1dGou8yNa/6nbTQVzcVwRWdwcoqyFQRJCWJ+SqM2hZkkcLCnlHYBOkEkktEMvFwoCkdJn67qehcK2L/HR4sZAWkJ5K8V2Ttym7DlNVveWwnurN9AQkb+W8WQSbBSuEguQeZdVxZdcUZbMmsub9hJh5v/vhcLYKoizWIUoVm9SYBBpLQwS5V2nMc0fEmLNsIGAiLalKMMGWpyxP0gIHQ6qget8iOhJxWOaGAJPRfvB92LY/cW7BA2KihfMbjpuq2YYFQb0isnmEhWhAWCJ13rN4n5KJzBmKWhwVCB+v1+4Rc6zID8czBAqlueUWxh2oCDIR1WgPOrQhEtwUKJBvYaYluK4MzaVyRZmAzxutfcsCZxgf1FlHNYblFlBZWz043op989Rw+/RRBWuqSwYDOfQv1HHTauJ1AMj78TPgxynv1HHQqcLcFcl1IKyO0IDaTFc+bKeagxpSbLZBJMn9nnZuXqyM6UJNbXi0HG3gKayCqYstw5aGdraxIY8ICmVBb0Ldqclr7Y/URDAh7yKUuz6bYaFMG1wADYVVTnMifqjsLGgjrgNVeLcC29tHYGmggzNZ7VDA/ZNs6NDSQJfMpvLc/LKf1BgEHIqzW77pgThyyjgEcyIQ7Cdv+55a4cZvHA8ID4bd++KpNeHsI2zxAkMolIn8HRyKCC8WIAxCEz7ie83TJwOhXU8oVb5G9FRDVUMDwUJrhf8Tfs57wmazhHxUkBwsgA4Iz6elO1XIk/GmNjUHbzdsggRMuG9Ic9ZDn9Ge3KRsq2hS3nnVKnQRQADPLsgubX4dx3PomFUlqJHBCyr95nuubZfsqmQRdEtNB/g95hZq61Pqp/MUr4xblINMl0fkeq97u9+or6asxV0xkIXTxmvkYuySmQf6oqOi5wU5F5So1SaI5XDYrDrVws8uhaMY9GSQxEMAcbfxdUez8TY/X2hyJ7UhsYyTWQ8pNkdiPjTdE4iDI3wyJi90KRkicbLswQeJm/4gBEkcbYfSTOALRT+IKRDuJMxDdJO5ANJM4BNFL4hJEK4lTEJ0kjkC4JU8fiSOQB7c7CJKxFhVXW1zDNsl2ZInOXqLdJglHlsic+A5ea75tkgyI8ewVi15w8aL5iiR+3twD3x/VFd/ReVTYaqFJ3A8njrOIAg02x57jR21p4Luv3mipFDVmQqf3lRuk7OV2YXNKO5svR5Pc319Vv+7aOciLX6w3SpobMMgTfc3PCttaNek81+kYQaFQKBQKhUKN0D/F91u87PwpPgAAAABJRU5ErkJggg==;clipPath=inset(22.96% 23.15% 28.54% 23.15%);" parent="1" vertex="1">
                    <mxGeometry x="120" y="330" width="113.95" height="111" as="geometry"/>
                </mxCell>
                <mxCell id="14" value="Study design &amp;amp; implementation documentation" style="text;strokeColor=none;align=center;fillColor=none;html=1;verticalAlign=middle;whiteSpace=wrap;rounded=0;fontStyle=1" parent="1" vertex="1">
                    <mxGeometry x="108" y="265" width="130" height="50" as="geometry"/>
                </mxCell>
                <mxCell id="15" value="Raw data" style="text;strokeColor=none;align=center;fillColor=none;html=1;verticalAlign=middle;whiteSpace=wrap;rounded=0;fontStyle=1" parent="1" vertex="1">
                    <mxGeometry x="277.5" y="265" width="60" height="50" as="geometry"/>
                </mxCell>
                <mxCell id="16" value="Code/Analysis" style="text;strokeColor=none;align=center;fillColor=none;html=1;verticalAlign=middle;whiteSpace=wrap;rounded=0;fontStyle=1" parent="1" vertex="1">
                    <mxGeometry x="375.5" y="265" width="130" height="50" as="geometry"/>
                </mxCell>
                <mxCell id="17" value="Processed data" style="text;strokeColor=none;align=center;fillColor=none;html=1;verticalAlign=middle;whiteSpace=wrap;rounded=0;fontStyle=1" parent="1" vertex="1">
                    <mxGeometry x="539.2" y="265" width="77.75" height="50" as="geometry"/>
                </mxCell>
                <mxCell id="18" value="Final analytic data &amp;amp; results" style="text;strokeColor=none;align=center;fillColor=none;html=1;verticalAlign=middle;whiteSpace=wrap;rounded=0;fontStyle=1" parent="1" vertex="1">
                    <mxGeometry x="656.59" y="265" width="97.5" height="50" as="geometry"/>
                </mxCell>
                <mxCell id="30" value="" style="strokeWidth=2;html=1;shape=mxgraph.flowchart.annotation_2;align=left;labelPosition=right;pointerEvents=1;fillColor=none;direction=north;" parent="1" vertex="1">
                    <mxGeometry x="108" y="436" width="812" height="74" as="geometry"/>
                </mxCell>
                <mxCell id="49" value="" style="rounded=0;whiteSpace=wrap;html=1;fillColor=#F3901D;opacity=20;strokeColor=none;" parent="1" vertex="1">
                    <mxGeometry x="780" y="260" width="130" height="60" as="geometry"/>
                </mxCell>
                <mxCell id="50" value="Research community-specific metadata standards" style="text;strokeColor=none;align=center;fillColor=none;html=1;verticalAlign=middle;whiteSpace=wrap;rounded=0;fontStyle=1" parent="1" vertex="1">
                    <mxGeometry x="783.13" y="265" width="123.75" height="50" as="geometry"/>
                </mxCell>
                <mxCell id="51" value="" style="group" vertex="1" connectable="0" parent="1">
                    <mxGeometry x="790" y="326.75" width="110" height="110.73244385419616" as="geometry"/>
                </mxCell>
                <mxCell id="35" value="" style="shape=image;verticalLabelPosition=bottom;labelBackgroundColor=default;verticalAlign=top;aspect=fixed;imageAspect=0;image=data:image/png,iVBORw0KGgoAAAANSUhEUgAAAIIAAAChCAYAAAALO2dlAAAAAXNSR0IArs4c6QAAAARnQU1BAACxjwv8YQUAAAAJcEhZcwAAFxEAABcRAcom8z8AABV0SURBVHhe7Z0JuFbDH8e1WBKVJVlTUZYSpY0kSguptCBbT7J7UvREZStLJYoWLSpLRLIkLiJLElqUpURaVMhOdiLN//3Mc879z5n3nPeec9/znvece+f7PL8n7jtnzpyZ78z85vf7zcwOBgYGBgYGBgYGBtmizJAhQ8oaCU+sek0WWrRocWLr1q3XnnTSSUaylFatWvHv8hNOOKGOVb3JQargHdq1aydSZDCSpbRp00a0bNlya9OmTetb1ZscpIjQ7pRTThGpf41kKakRgX+3NG/evK5VvclBisWtDBHCEZsIqfqsbVVvPLB9+/bFuhQUFCzebbfdFqd+llK1atXVNhFSw5qRYopNhJR+sC1Vvyuo28qVKy+uVKlSYV2rUq5cucWDBw9Oa59cyA7CBa+//rpIFU6kCiNlr732EugIqeFMpOY2I8WUFAEEHQpSVKhQQdZtp06dxLhx40S9evUK61uVAw88UEyfPt1qmdzBlQjPP/+82H333QsLs+OOO4o99thDjBw5Urz33ntGiiFLly4Vqd4tGzY1CoiyZcvKuj377LPFli1bxIsvvihq1apVWOeqUPeTJ08W27Zts1oofPgigi2PP/64lcKgOBg7dqxITQmOOmVE+O677+Tvs2bNEjVq1HD8bss+++wjpkyZkjMyBCLCww8/bKUwCIqtW7eKUaNGydFArVOIsHnzZiuVEDNnzhTVqlVzpLGFKZpp5L///rNShwdDhIjglwjg0UcflY2uprMF3W306NGhk8EQISIEIQJgZNh///0daW3ZddddQyeDIUJECEoEkGmaQNcYM2aM+Pfff63U2cEQISIUhwiAaQJFUX3GFtoIBTQMBdIQISIUlwiA1Vr16tUdz9my5557igkTJojt27dbqYsHQ4SIkA0RwBNPPJHRzjBp0qSsyGCIEBGyJQLIRIYqVapkNTIYIkSEMIgAIMO+++7ryMMW8h4/fnyxFEhDhIgQFhEAFsiqVas68rEFOwMKZNClpSFCRAiTCIDVBLqBmpctTBPYGYKMDIYIESFsIgDsDHvvvbcjP1swOt15551WyqJhiBARckEEgM5w8MEHO/K0hWkC34SfkcEQISLkighg9uzZ4tBDD3XkawvteO+99xa5mjBEiAi5JAKNzMhQs2ZNR9624MDChZ1pZDBEiAi5JIINVhNeS0t0CaYJL3O0IUJEiIII4LHHHvNcTfBur9WEIUJEiIoIINPIQKwkqwldZzBEiAheROjSpYv44YcfrFTh4ZlnnvHUGSpWrCjjT9WRwRAhIngRoX379mLlypWSDN9++20oQgzkb7/9Jh1RGJfU99mCneGee+4p1BkMESKCFxEIPDn11FNF9+7dRdeuXUMRRhmio3v06CGjptX3qYIL+/7775dkMESICF5EyLfUqVNHLFiwIHlEoEK/+OILuVdg2bJl4pdffrF+iQd+/vln8eGHH4rly5eLzz//XPz999/y7ziB7rrrLsfGobjIjTfemBwi/Pnnn2Lu3Lmib9++cl5t1qyZaNCggejZs6f4+OOPrVT5xfr162X5mjRpIqVt27bioosuEgUFBXLOJl4gjkTo2LFjMoiwceNGcfXVV4uDDjoorUzIFVdcIf755x8rdX6ABj5s2DBRrly5tPKxaWXgwIHiyiuvzOvUUKZMmcIdVqrI7XbWdzgQJyJ88803onPnzmllUaVx48bixx9/tJ7ID5gSUNDcyoeUL19eEqJ///7i7rvvFrfffrskTlRy6623iqlTp4pzzz03rWwyHtL6DgfiQgR6eZ8+fdLKocuZZ54p/vjjD+up/ABdYMCAAa7ls4XeOGjQoKxiC7MFxiS9XHKktX53IC5EeOONNzwtZKyDWSOffPLJ4t1337WeyC/WrFkjSUn4OeVzKzf7EV555RXriejByKCXKdZEoIe79bCddtpJHj+DN23evHli06ZN1hPxAFMZBH7ggQfklMZOcv0bunXr5itGIBdIHBGwv6N162XgoAmWZ0kAqwjOQtC/4bDDDsuJWdkPEkeEtWvXyoMl1PfvvPPOUvFJEnD97rLLLo7vwAfw0UcfWSmiReKIgP0dW4H6fvSFRx55xEqRDFCXelwhoWUYw/KBxBGBHnPcccc53n/AAQdIIuRT6w6KZ599Nm2LO0TA8pgPlAgisE2cMhgiFB+GCHmCIUKWMETIDQwRPPDTTz+JhQsXipdeekm88847oS/rDBGyRBREWLdunbj00kvlPkKcQaxKevfuLVasWGGlyB6GCFki10QgnIsIHjV/W7AIhmWxNETIErkmAptIMVCp+duCu3batGlWyuxgiJAlck2E2267zZG3LngJwzibyBAhS6xatcqVCJxLHAYRRowY4chbl6FDh4ZyfB1h5ToRiEsg1C4fSOSIoJuYsSzOmDEjFCK8/fbbnnH/KI14EMMA4XX6qWgEguTLdZ44IlAGvaE4P+iFF16wUmQPXNn6Owj/njhxYmhuYnq+rGjlHcQq4KbOBxJFBBqBGD89vq5+/fqhzq1ERBNYetVVV8kg2H79+sn/tyOPw8CXX34pjjjiCMd3IASwhKGDBEWiiECvx2evv5/lHoEfYePXX3+V+RJpHDYIsCGSWf8WNqqyYTVqJIIIv//+u3jyySfFsccem/ZuhlOG8iTi6aefdg1jZ6qjTnNBQC/EkggMwShNKIBs1+7Vq5dcGejvRYhNZGNLEvH999/LqcDtu1hRXHDBBTKymXpYtGhRTsPYYkcESEDj0yvYqu0Wb28LZUn6pSEErNauXdv1+xC+n1GPjsDSNVdR2bEjwptvvpmxYmxhoya7dvMV7BkWUAypv0MOOcT1O1WBELnSH2JHBM788bP9iwvFGFpLAtiEc95557l+py5YPnOB2BGBSGRuPtPfoQsjwvDhw+XexySDqZDTzWSlu3ynKkyX3LSXC8SOCJhv58yZI+9CZIrA/u6lJ+TTABMWMDVnOquA39ii3rBhQ+kQC8N66obYEcEGW8cxJ7/22mtye3bdunXT3ouwpCRdEsEmXvZjuH0Xvf+6666TyiSR25999lnpWjW4gV6wZMkS140t7Bhi314+rHHZAkeZm8u7UaNGsgNEiUQQwQYhY25GJfbxM4KEDc4dwnSdK6ul2w5klolRkwAkigiMDBSYfY7q+4866ih5o2qYYKMJR9zhITz99NPlsjbM29M2bNjgejwuIXH5QKKIANCadX8DfnyUrrBAuJq+rY67m8O0YC5evFi6z9V3sGzOl4EscUTgOBy3wJQwdzrhItZPKYVs8+fPt1JkD+581uMRTGBKAOQ6VA0QfKLvS6RSwox58ApVM0TwiSiIQM93IwK9OCyYmMUskc8RwRDBgiGCIYKEIYIhgoQhgiGCRGlSFvVGolKiWDUYIvhEFERgb4MbEcyIYKG0EGH16tVp5zjiEn///fetFNnDECFLuBEh7DOUCHZRT3Zl8yt7HMKMF3zuuecMEbKBGxH222+/0MuAv+G+++4T119/vZg8ebLckBImmGZ0hdQQIQA4Z7FFixaO9xOTQPBKLpCrOAfuaNC9qASwfvLJJ1aKaJE4Inz11Vfyihu9DLiiOeYmCUAZddvudvjhh8sje/KBxBGBYE/i+93iGFHo2EbGppC4XNphg1Az7knibgavsLtLLrkkND0nKBJHBICHjt6jl0MVNsaGue7PBhioiG/Qj9xVhfOaiMDKFxJJBHoNIeBut6KowhQS5f5BN/z111/yJhm38tmCjkND5PO2mUQSAVDBXOOjK1yqHH/88fIGlXyCDbzsYXQrH8IowXfk+6aZxBIBcJPb+PHj5TSgE4LRgpVEvqObCUFn9OJiDrV8lJeQO1YP+TqaX0WiiWAD2wKVfdppp4kjjzxSbghhT0C+e5mNLVu2iDvuuEMcc8wxsmxs3hkzZozc1RWXMPwSQQQbWP4IQSf8PG77HNBr2KtJ+QhljxtKFBEMig9DBAMJQwQDCUMEAwlDBAMJQwQDCUMEAwlDBAMJQwQDCUMEAwlDBAMJQwQDCUMEA4lQiJC0C7oN0uF2l1VgInBsrkGyQbyE3q6BiXD++eeLCRMmiJEjR8ozD40kR4iQou0I6tHbNTARjJRMMUQwIsUQwYgUQwQjUgITgW3pbOMiQtdI8oS2Y6eV3q6BicC2cUK22TpuJFmyefNm2XZs/9fbNTARuFDCINkYNmxYWrsGJoIxMScfxtdgIGGIYCBhiGAgYYhgIBFbIrBVnCPoZs6cKbhMG1c390UH2dzKbmie4Y4kTk95+eWX5ZU83J6S7R1QnLvwwQcfiIULF4p58+bJd3A2EjucOd6nONi6das8I4olHcJ/cw6EX7AM5Lt4jqUhJ8ORpx/Elghsdef0NN7HTScVK1aUhfVz5R0V8uCDD4qzzjpLGkw4kBOjF//ycZxe1q5dOzFo0CB5NZDfygJff/213ILP4Rcc4EV+5M39jByPd/TRR4vLL79czJo1K/Cu5/Xr18tLw/EEco8U/3IelN+TVDijqXXr1vLZ9u3by++DFH4QWyJwGJZ+o9vNN99c5IgAgbp37+56jZ6bcLgVB274AfdGcTu9Wz66UE+Ug1HCLxhhuNRUzQfy+r39dcCAAY5nOYdh06ZN1q+ZEWsiNGnSxPEeTlPLRIRPP/3U80JNTihBOK+Ik1T5G9cKcxRuUbe3MWJgPaVR9HzLly8vSYfw3/rvjD7Umx+sWLEi7RBOhHuj/ZB18ODBjucYFfxOgSWGCAzDffv2daRHuFKPoZohlmN2OKlk4MCBol69euLiiy/2NZ8/9NBDkjRqvpUrV5ZDNyFekyZNkkJl0guZxtS01atX99WrvYgAyfzcEm+IkAJDsH71Plf0vfrqq2m9CQWMI/pWrVpl/cUbixYtSjsXkYadMmWKrGRVZ6FszPOQQydOmzZtihymvYiAoC+hn2RCqScCytTo0aMd5xiiuC1YsMBKUTxwNF/Pnj0dZeAaQEaITOAInxEjRjhGBg73uuWWWzIqu5mIwAGjhJVlQqknAj2euEk17TXXXJP1uYUc6avrBZzU5udGWJaX3bp1K9RHEKapdevWWSnSkYkICMf2ZroqoNQTAXtBhw4dHGlZSmUDem7//v0deXIqGqsSv+Cmd/UofpRVerXXMbtFEQFhleOl15R6ItD7UPzUtNyv4Mfm4IU1a9aIpk2bOvLs169foPuhWcOzplfzQFfwMhLpRGA60E+XrVatmiSYG0o9EWhwQrLVORkjVDZnMc+dO9ehc7BKCPqdlJUQfzsPpFGjRmLjxo1WCid0InAPxYUXXijPjlTz6NKli+sZkqWeCGDlypVy6FbTs4rATuD1TCagEKq9kZVDcS7VmD59urRd2PlQuV7XCehEQD/h+bFjx4oKFSoU/p3pxi0YyBAhBRRDblzRL/fmbiaegyhBlEfsDepVAI0bN/bsyZmAv0SNB6xSpYpnfelEoMFJi9+BKcX+O8KB4/rt9YYIFriLiaFYX8PToPgFMFEvXbq0SN8CesBNN93kyIPrg3DkBAXzOasFOx+mm4kTJ1q/OuFGBOwVAOebWvdMgxjIVJ3FEEEBihjDpu6nQFjKMd9ee+21coTwAnnoyueJJ54ovXlBgacTvUDNC4OTG9yIwCgHUIi7du3qyId8VaOYIYILeB4nTI0aNRx52MKKgO9xW8pBhMsuu8yRHsse5ygHBRbPhg0bOvIaPny49asTXkSwy8g0o059jHRDhgwprBNDBA+QljgBrshhblbzQjgmv6CgwEr9f7hNDRDHrydPBe/niiE7n6BTg0oEprTevXsX/o5AdEYdYIhQBDDAsJQkBkFflzdr1sx1NcByVFUWGYbxIwTFnDlzHDoLhPQ6T6IoIoAlS5aIWrVqFaZBbOcZJmz174YIHmBox0SMTUDNl96vK5B8k0oERg8cUEExdepUh5kZHwiOMDf4IQLAj2GnQViVsCTV/26IkAGsLDDTqo1MAAlLNBVo+yph0NJtDd4vWK7qFcwI5OVF9EsEVi/6Jai4xDE+qX8zRCgCNDKWRztfoo70VQRrdMK+1PcT1xAkHpFG0PPo2LGjpz3DLxEAKyP1eiAMTuqzSIkgAjei0nvU94RFBELC1NgFloa6Vw+F8YYbbnC8H3sAc7RfzJ492zGq4HRC9/BCECJgYu7Ro0dhWjcpEUQg+li/LVVdKmUDNHmcN3a+VBhXDesg4pk5XS2D31EBm4PucCIqiotAvRCECICRjcBZ9R2qxJYIDIn0vA0bNlh/8ca4ceMc9nW0fayGXt4/rtVj/i8KVCrRvaqO0KtXL9eYQBRIPI52OoTgUoJgMoGAFryfqo8BofyZiByUCHwv4XlusZJIbIkACYjps+MF2WfARVxYzfgoKhCljYomPFx9B0smL/crwFuIV44DonAh07BqpUMghlPMsnj17HzRuIkH9KpsGocQdbUsEJQ1O73bdnXzPN/AyqJt27aOlQKCMldUaHlQIoBly5alhdLZEksicPm1HkXE+rpmzZrSD8Awik6AgUTvSQjzoZvrFdAAmI1JRwNAIjyRffr0EaNGjZJHx9FzyF91LSMYmyBiJjz11FOuB0kQu3jOOefIKYuA2JYtW8rG09NhjGLjS1EoDhEgON+nfxcSSyIwGmCm1XuKH2nQoIGcr73AfMxHuz3LFKBOA6rQSzOFjtmgIdDSIaxbPl7fxHSG19Dvnc8QQSUSHaUoIgBGJkZa9d0IBrTYEYFw87feekvOzxTarYfpUqlSJdG5c2c5JWSqDHwD+O1Zqrn1SFVoNIxDXMPLFBIEDPtMaW77G1SBeCi6fKubEuoFOou6JOS/2VVVFBHAtGnT0jb1sMcjthtcaDR64YwZM+Q8y5DPkMo8zFzHrerM9ShbfJzuc/cCQyT5ElDCLbDki32AUYg86ZkM41gR58+f70uxdAO6B/4JlpbkR8g8sQrYPPhvpj+cSowCQd8Bafh2RiriDc444wzBvk8vBVkFuhaKLWXo1KmTJAFOt8RsecPsu3r1arnPAMUH+wGND2GKCyqOfNn5hGEKVy29n5tY/fQuv7DfwZCOQYp3oAsVFyxLWVGpQn5+y8zGYaYJAmh4lnr0awDLOxEM4gFDBAOJUIjgZ1+eQbyBXqO3qycRiJDRN3giXoEWBskBCrbertJ8bf3uAD5vt+UZlkI0VAIjhg4dKg0sRpIhtBkrNAx7ervKoFur7R1AA2/evHnaA0ZKprB8dSUCThgY5GWpM1JyBOcagTiuRACYLPHWuT1spGQIFkp8J/h2PIkACLVCJ9Bj/4wkX4jTwF1uu+UzEgFg7UJnwO2LadjLJ24k/kLkFCZyHFzOSG0h/gcMTxsz+tyKdgAAAABJRU5ErkJggg==;" parent="51" vertex="1">
                    <mxGeometry x="53.25369803348269" y="40.45433141874014" width="56.74630196651731" height="70.27811243545605" as="geometry"/>
                </mxCell>
                <mxCell id="36" value="" style="shape=image;verticalLabelPosition=bottom;labelBackgroundColor=default;verticalAlign=top;aspect=fixed;imageAspect=0;image=data:image/png,iVBORw0KGgoAAAANSUhEUgAAAJcAAACwCAMAAAA16AzFAAAAAXNSR0IArs4c6QAAAARnQU1BAACxjwv8YQUAAALoUExURf///+3t7aWlpU5OThAQEAICAgAAAAcHB1NTU7CwsPn5+be3tzQ0NOTk5Ly8vBQUFENDQ+Hh4ejo6B8fH0FBQePj44KCgkBAQObm5vb29i8vLwMDAxoaGhsbGxwcHBUVFQEBAeLi4tHR0RMTE5qamtPT09TU1JaWlgYGBkRERLKysg4ODjs7O/39/bGxsUZGRunp6ZycnEpKSqioqAUFBUJCQpKSkk1NTT8/P5OTk0xMTAgICEVFRWJiYnBwcHR0dPv7+2hoaG5ubl5eXuXl5Wlpaefn5/j4+GRkZPX19VpaWl9fX+rq6vf3911dXWNjY0dHR/r6+lxcXElJSfT09FhYWEhISG9vb/z8/G1tbQQEBDg4OImJiYeHh4aGhn9/f/Pz893d3YyMjIGBgYODg8HBwRISEsfHx+zs7MXFxcjIyKKioiUlJd7e3hcXF9XV1ZSUlJmZmZeXl9ra2iYmJoqKio2NjY+PjyIiIu7u7jo6Ojk5OUtLSz09PdfX1ywsLKCgoJ6eniQkJH5+frm5ufDw8PLy8mVlZWZmZhgYGFFRUc/PzwkJCe/v78nJyT4+PjIyMrW1tba2tq2trZGRkbq6upWVlQ8PDwwMDBYWFlJSUlRUVFVVVVBQUFdXV83NzcvLy9nZ2dLS0tDQ0KSkpKysrAoKCgsLCw0NDTY2NjU1NTc3NyoqKr+/v87Ozjw8POvr69vb27i4uC4uLjAwMB0dHR4eHuDg4NbW1vHx8cTExMrKyicnJ8bGxsLCwsDAwI6Ojt/f39jY2Kurq2FhYXJycrOzs2xsbJ+fn66urnZ2dv7+/nFxcWtrazExMU9PTyEhIRkZGS0tLYuLi3t7e4iIiCgoKHh4eCkpKREREZ2dnaenp1lZWczMzNzc3ICAgCAgIH19fXNzc6mpqYSEhHp6epiYmHl5ecPDw2dnZysrK6Ojo6qqqiMjI2pqamBgYLu7u6ampjMzM1ZWVnd3d3x8fHV1dQAAAARFba4AAAD4dFJOU/////////////////////////////////////////////////////////////////////////////////////////////////////////////////////////////////////////////////////////////////////////////////////////////////////////////////////////////////////////////////////////////////////////////////////////////////////////////////////////////////////////8AKM62NwAAAAlwSFlzAAAXEQAAFxEByibzPwAAB2dJREFUeF7tncHVqywQhrNKL5ZFCe60gxRhWy5Y2IELjycF/DAzKigIg4Jf7vkfzf2iiTi+vAzERO+LaMdKvnPRjbQXNtNMRWSia2lHPKZ8WhGzoF1xaLOH9X5XCYr1tG1WZn5gDW4pZSNvfzRrXbADGyAuWYss1BCUhuuxEbeipbvB0gGmx3DLipbuxoiLqRjavqOluzHjelecwNABJfTimb9EXJ8v/GF5rERc39cH/nI8VsJfn9ergycMxYrUo3rGVQz1yl2PiiWwSMVK6bVVZZxihfylWRWLCaycXoZiEVVZJk8Qa6sMK1ZSL05VFvSXJjqPldUrviqL5a+FyDxWWq9YxUr4y9Ir0mPl9YrrK5+Iq41Q7Im4YvLYA/7SBBV7Rq9wqyyRv1xxhRR7Sq+Qxx7yl+ZUsef0Os9jJeLy6HXaV5aIa+77/qvn/dQv56GOHivhrwgOAZTQK4aatlg45i/Rf8P4OzaL+Lj2beOo1wBrAkz05gDxce0/Ix39FXXefKA3B8CjjqHZOd+h141xiVrRn841RiCLxhVDCwXeFFekv2Jwx+XzV9PXvXPG8/036iWgwFh/mWssKtggez0e89d5XC1++Xa7XrH+CsT1mL9K63XZXxjXrpQr8PLEPOqUd2Ck9vil5URMG/D8lRezN+T5Ky+mDjx/5cUcOPPyV17Mnwj8JX/F6nX0l/x4wKg7WmKDHxqPet2Uv5LzKkYR1osb19V8j6N0s354/soVV6xepftH1Mss/SZ/XRx/CSw9Uq9jXPM0TaM104T9Y43r2POEOlzIX+pfeZzwNYWxjjUh6f7Ky7E9/kr/+FBctC8N019ZSfeX7Dxg1BUtscE087v9oy9/+eL6q/3jZb2w9GR/5dXLLP0mf13tH2Hz9Pw1i8EN9o+j7+UAAs9sXhvfm/2anvRsgatYM5Lur7z8bv/oy195MffH91c+0v0lZw/w/ndDS3xg83R/za0bgflrokU2lFeT85e5xgIPeFdKPJRXaUnD85cvrn/78+M/OP7SJhXHh8C4lO8dL4Yeap5g82N7jPVX3jyR7q+8mDrw/JWX9PyVl2vjr3xc8Fcj3RO8+DZWsCbaPr1/rIRQzdoxYYMadaNPmTBPXMhftLSnvedzBy1peP7yxlU03//fP8bqdRaX2vgwr3qppwnT5fMTKhOoRn2YG/xYC68mgYVfyF9ZMXXg+Ssv6fkrL/9U/6gvjs1MSv/Y0imhrNC+NLH5qzSx/ipNrL9KE+uv0sTmr9L87y8ev+Wv//OXj7/qL4zL7S/56Z6bMAKnXs/j9tfz/FW93P56nl+pR4yrGev6qZkygtNfT+avF0TwW+Ov58cTbn/9Vb2eH0/81vjrV/3VimEQxjmFhbYdJvWC45V4kv0lRhiKyOYz2QGIGk9Oy6of4JWh0uMW+xyn0Ku6k+tUUv1V0ylCTWXeXM+6Xx7sGH+sZF8yCPdAkifnY9Py13otP7HtFI+IoAsj4IJZ+2ZiIOnZ/cWS/EVfI7zXM6PrlRkjLusTreoZXe6JvwqyztaA2j0tuUjyF6pVjcraolb19lnCwoClMlbbin5RUUAU5jWpeNy7nVqk+AuPfznatlvDesH3PPJgZ4jWdAXY6/Q2cQn5CyvBuPx6DQv3d6wekL+hBQXKur+o1yLBXyCXsRcD7fB9WQpokYaMeLL29NsRvr/wYN333dTGc93PCHLHpjActte9AN9f4GKHKBqoR0e2hOPcioN2470OH+DnL4jZYz14zXFDAvj+Zz14uPnmsXVY8P0FMXtSD2aErX0u4PdaS91Dq3VVtwHfX5C9fbd1pQM6vAwVvNQclHBejQn+Oo0LA1D1vHsDSLR8nwGinrZGn14Yl9tEYFq/Ob7YE70r6y3wxTztBbKEO89ssP0FaeLMtOuAojMLNVSGwgPVmOCvgF6KniJrjLqCYLClhgtQ3O0voKXrWo0BFrTURhsMqhSencHPXxDXad+mEPAuswToJfRuoAmEqjE1fwXLpZHYVl1QpE57sP253gq+v6Db9uR7Eyhjy7/Qd6sSod0EkqqC7y8c5uw2cADv21WkshXs0NFV7eDnL3SKpyMy0f42itD6qfwCRQerMcFfNP4KC6bjMoSBvvsLWSLYGlP8Rf3IpoTnAyyEb7RbMFYHY4lwNSb4i1r6OmoQ8/Y9/tCvGQuHj2YvqLvOGZppuBoT8pcCO+e5HoSYdH+43uKpfsuunkQrhhFyvpVO4HC01jJcjSn+UgcDXYnabIYq3QKDgGUz03r7llT046KT4zVI8ZcC0/mCpNaJdbeyv1MWHU1MNSb5SzNuIcjtnIigC8w1zWHYip87g0MvICF/EdO3qpq56npraDDUn6qa9epdkYpWvV9VcbgPUyT5a0H//JKemrQKemrTCvg9Jy2dkuiv7KT6KzdJ+asAl/yVkTO9mnFIvEDvOtil7ONaMo3+tdjuf21wPXDePXClvS7+gfvfDzxw7Pc8h1SHFfk0jhPW9Hn+URrXh0y6dcODVO5+NOv/8xOk+dpRvV7/Ac04EeyHPNOaAAAAAElFTkSuQmCC;" parent="51" vertex="1">
                    <mxGeometry y="33.526257773463556" width="59.91972977649102" height="69.841602420329" as="geometry"/>
                </mxCell>
                <mxCell id="37" value="" style="shape=mxgraph.signs.healthcare.brain;html=1;pointerEvents=1;fillColor=#000000;strokeColor=none;verticalLabelPosition=bottom;verticalAlign=top;align=center;fillStyle=auto;aspect=fixed;" parent="51" vertex="1">
                    <mxGeometry x="41" y="6.551451577229443" width="25.164802372074792" height="21.825500756352813" as="geometry"/>
                </mxCell>
                <mxCell id="39" value="" style="sketch=0;points=[[0.015,0.015,0],[0.985,0.015,0],[0.985,0.985,0],[0.015,0.985,0],[0.25,0,0],[0.5,0,0],[0.75,0,0],[1,0.25,0],[1,0.5,0],[1,0.75,0],[0.75,1,0],[0.5,1,0],[0.25,1,0],[0,0.75,0],[0,0.5,0],[0,0.25,0]];verticalLabelPosition=bottom;html=1;verticalAlign=top;aspect=fixed;align=center;pointerEvents=1;shape=mxgraph.cisco19.rect;prIcon=cisco_dna_center;fillColor=none;strokeColor=none;fillStyle=auto;" parent="51" vertex="1">
                    <mxGeometry x="0.003317476114943929" y="6.875837822854635" width="21.825500756352813" height="21.825500756352813" as="geometry"/>
                </mxCell>
                <mxCell id="40" value="" style="shape=image;imageAspect=0;aspect=fixed;verticalLabelPosition=bottom;verticalAlign=top;fillStyle=auto;strokeColor=default;fillColor=none;image=data:image/png,iVBORw0KGgoAAAANSUhEUgAAAgAAAAIACAMAAADDpiTIAAAAA3NCSVQICAjb4U/gAAAACXBIWXMAAAuUAAALlAF37bb0AAAAGXRFWHRTb2Z0d2FyZQB3d3cuaW5rc2NhcGUub3Jnm+48GgAAAv1QTFRF////AAAAAAAAAAAAAAAAAAAAAAAAAAAAAAAAAAAAAAAAAAAAAAAAAAAAAAAAAAAAAAAAAAAAAAAAAAAAAAAAAAAAAAAAAAAAAAAAAAAAAAAAAAAAAAAAAAAAAAAAAAAAAAAAAAAAAAAAAAAAAAAAAAAAAAAAAAAAAAAAAAAAAAAAAAAAAAAAAAAAAAAAAAAAAAAAAAAAAAAAAAAAAAAAAAAAAAAAAAAAAAAAAAAAAAAAAAAAAAAAAAAAAAAAAAAAAAAAAAAAAAAAAAAAAAAAAAAAAAAAAAAAAAAAAAAAAAAAAAAAAAAAAAAAAAAAAAAAAAAAAAAAAAAAAAAAAAAAAAAAAAAAAAAAAAAAAAAAAAAAAAAAAAAAAAAAAAAAAAAAAAAAAAAAAAAAAAAAAAAAAAAAAAAAAAAAAAAAAAAAAAAAAAAAAAAAAAAAAAAAAAAAAAAAAAAAAAAAAAAAAAAAAAAAAAAAAAAAAAAAAAAAAAAAAAAAAAAAAAAAAAAAAAAAAAAAAAAAAAAAAAAAAAAAAAAAAAAAAAAAAAAAAAAAAAAAAAAAAAAAAAAAAAAAAAAAAAAAAAAAAAAAAAAAAAAAAAAAAAAAAAAAAAAAAAAAAAAAAAAAAAAAAAAAAAAAAAAAAAAAAAAAAAAAAAAAAAAAAAAAAAAAAAAAAAAAAAAAAAAAAAAAAAAAAAAAAAAAAAAAAAAAAAAAAAAAAAAAAAAAAAAAAAAAAAAAAAAAAAAAAAAAAAAAAAAAAAAAAAAAAAAAAAAAAAAAAAAAAAAAAAAAAAAAAAAAAAAAAAAAAAAAAAAAAAAAAAAAAAAAAAAAAAAAAAAAAAAAAAAAAAAAAAAAAAAAAAAAAAAAAAAAAAAAAAAAAAAAAAAAAAAAAAAAAAAAAAAAAAAAAAAAAAAAAAAAAAAAAAAAAAAAAAAAAAAAAAAAAAAAAAAAAAAAAAAAAAAAAAAAAAAAAAAAAAAAAAAAAAAAAAAAAAAAAAAAAAAAAAAAAAAAAAAAAAAAAAAAMtkj8AAAAP50Uk5TAAECAwQFBgcICQoLDA0ODxAREhMUFRYXGBkaGxwdHh8gISIjJCUmJygpKissLS4vMDEyMzQ1Njc4OTo7PD0+P0BBQkNERUZHSElKS0xNTk9QUVJTVFVWV1hZWltcXV5fYGFiY2RlZmdoaWprbG1ub3BxcnN0dXZ3eHl6e3x9fn+AgYKDhIWGiImKi4yNjo+QkZKTlJWWl5iZmpucnZ6foKGio6SlpqeoqaqrrK2ur7CxsrO0tba3uLm6u7y9vr/AwcLDxMXGx8jJysvMzc7P0NHS09TV1tfY2drb3N3e3+Dh4uPk5ebn6Onq6+zt7u/w8fLz9PX29/j5+vv8/f76lPLKAAASpElEQVQYGe3BB5hU5aEG4G93dimLlJUFAtiIKNIEBMQC2KKh2bAgKopoIpoo5UYkchE1BAlFDEQUFXsBRKKgIhEMEBQluhcVFbEQrKjA4ha2zvfcFKPAnDNzZvbMP3Pm/94XEBEREREREREREREREREREREREREREREREREREREREREREREREREREREREREREREREREREREREREREREREREREREREREREREREREREREREREREREREREREREJkEPzIfbq9tSOXIitGs6q5gKIrc79lOQlEDsd8iz/qSofYqUrSvgvL0NslDWF/zEGYqF6C/i99hD7NPgbv1eSDbFOzvP8r3UQ+zzAH8yGWGcKfzQCYpvLuZeuEMu0LuKPKnIhlnmOe3kDYpnLubfHIXZpuZN7mwGxy8Pcx28gVmldyX1cCrHKFO7rNIhN8nZwXx0gNrmG+zkQYpGszdxXOcQmfbmfrRCb3Mz9rIfYZBX3swJikTpl3M9qiEV6c3+vQiwygft7E2KRFdzfJohFiri/LRB75DLCNog9WjDCdog92jNCEcQeJzJCGcQeZzJCDcQewxkpB2KNsYzUHGKN2xjpOIg1bmCkoRBrDGOkmyDWOIOR7oNYowsjrYRYowUj/QNijVANIxVArLGdkfpDrPEWI90MscYKRloKscY8RvoKYo3hdHAIxBZt6WAoxBpfMtJjEGssYqSdIYgtRtFBX4gtutPBNIgtQsWM9B7EGn+hg7YQW9xMB+MgtjiVDt6H2CKvhA56Q2zxIB08CLHFyXRQ2ghiiayP6eBqiC0m0cHrEFu0CdPBMRBbvEwHz0BscTmddIdYokExHSyF2GI+nfSEWKIvnTwHsUTWR3TSC2KJiXTyIsQSBSV0Mhhiial08llDiB2aldDJbIglptFJzbEQOzQvpZPCHIgdptPRbyB2aFFGJ6WHQuwwk45ezoZY4SdldHQTxA6z6KiqF8QKLffQ0UcNIVa4k84egVihVTmdXQKxwmw62/1TiA0KvqWzV3MgNriSLiZDbJD1NzqrOQlig85VdPZpPsQG0+hiMcQGDbbRxS8gNjiHLkqPgthgKV0U1oFY4NBSupgJscF4ugj3g1ggdxNdfNUcYoG+dPN8FsQCD9LNaGSG7IKjTjx7xLg/3D9/2o1XndOnfbMQ5EfNdtBFeRcEXu5x45YVcT9Vb8y55KeQ7/2Cbt6tjyDLPfnml0rp5qsl4/rUhQBZa+jmLgRX/vjPGcvOOcdAcOguuhmIgDpiTgk92TiqANa7kG62N0cQnfRMDT2reGpACJa7n26WIngOXc04bRkMuzV4n25GImguLmL81vSE1bpV0EVpOwRKo0eYkPBjh8BmY+nm77kIkBM+YaL2TGkIe2W9QDdTEBihW6pZC9vPQloI5eW3PKzd0T37/GzgwJO6tzuoSQ6Sr8V2uqjpi4AIPcbaCU8JIQWymhzea8Cw0ZPnLly58dMdpdWMUP7t1ndeffyWS47NR9L0C9PF1sYIhNATrLWVzWFMbpuThk2454VNX1fTu29eeWjChV1zkAQz6eZRBEHOAvrgsxOQbHU7n/XrPzz56uc1TFjJixN614HP6rxJN0OR/nIW0ReV1yNp6ne75PdLNlfTF2WrJp1cD35qV0IXu1oh3eUupl+eqAvfNehx2e3PflhDn5WvubUD/HMl3TyDNJe7hP5ZHIKP6va67uH3wkyawv9pDb8spJuhSGvZS+in+VnwRajTiLlvVDLZalaOaAxfNPkHXXzTDOnsFvprBmqt9ZDpa0poyp5F59SBD3pX08UCpLH+Yfrsf1EbLYfO20LTdt7+E9TeJLo5F2nrsB303bVIUIshc99napTf0xa1FVpHF1/mI03Ve4P+C1+M+DU7/0/vMpWqF3RDLR22my4eQpq6j8lQ0R5xyTpm0oYwU+/FU1A7l9JNf6SlK5kc67LgWd6Z93zOdPHaOaiVx+liWyOkoa57mCS/hjcHjVxWxrSypitqofFWurgb6Sd7A5Plu4MRW4/bCpl+qu86EInrU0Nn4VOQdkYyeZ5DDB0nf8g09e3IbCRsMl18lIc0U7CTSXQxojh8wttMZ4W9kaic1+jiDqSZ+5lM3xTAResxrzPtPdoKCWpbTGfVnZBWjg8zqWbDScHI1WEGQfE1SNAVdLES6SRUyOTanQcH4xgYSw5EYhbRxXlII9cx2UbAQS8Gx7Y+SEj+l3T2ST2kjYY7mWzr4SCnhMFRPSmERAyji4lIG2OZfEfDwQoGyZqDkYCsdXRWehDSRO42Jt8cOJjAQNlxDhLQrYbOnkCaGEYDivIQqTcD5k+5iN/ddNEH6eEtmjAckeqUMWBeaoS4Nd1BZ29mIx30pxEvw8EqBs3G1ojbNXTxS6SDVTSiLAeRbmPgbOuIeGUX0tk3TZB6PWhId0QazuDZdTLi1ZsuZiH17qEh1yLS6QygiosQr0fprKoDUi13Bw15GJE6MojCNyBOLYvpbAVSbSBN+QCRmjCY/piF+IyjizOQYo/SlHAIkUoZTHMQn7xv6GwtUqt+MY1pgUgfMKAmIz4T6eIkpNQFNKczIv2VQfUbxCW/mM5eQko9TXNOQ6THGFhXIS7T6OJ4pFCjcpozFJFmMLBqLkQ8WlXQ2XNIoTNp0ChEuoPBVdkf8ZhHF8cgdabToDGIdBcDrKwP4nBEDZ09jdTZQIOuRqT5DLKiLojDAjoLd0KqNKqmQcMQ6XEG2sf58K4bXTyBVBlAkwYj0tMMtqVZ8G45ndW0Q4pMpUn9EOl5Btxv4d1pdPEQUmQ9TeqLSKsYcNWnwrPsz+isqg1SokEVTToSkV5h0G1vBc9m0sU8pMSxNGlPCJEKGXhrc+BVT7qoOBipcAVNKoSDXQy+GfBsC13MQCrMoEmPIFJrZoLz4NXv6OLrXKTAizRpPCKdwUywuzU86kA3ZyMFPqdJgxBpDDPCYni1kS6WwLx8GnUwIt3HzHAWPBpPF5UFMK43TXoTDl5hZth2ALw5jG5GwbgradJNcLCbGWIWPHqFLgph3M006UhEOoiZoroHvLmVbrrAtLtp0EY4+DkzxpsheHIG3dwB056lQRPhYBIzx1h40rCGLr7OhWF/p0Ht4WAdM0fJIfCkkG7OhmFf0JxNcNCkmhlkMTyZQzdLYFaomubcCgfnMZOEu8KLoXRT2QxGtaRBHeHgHmaUp+HFIXQ1CkYdTnOehZOtzCjho+HFp3RTCKPa0ZiaTnDQmRnmKXjxJF11gUkdaczDcDKdGSbcGR5cT1dTYVIXmlLRBg5yvmSmWQgP+tHVRpjUnabMhpOBzDjhjoitA921hEG9aEhJCzhZyMyzALE1pLvLYVBvGjIZTvLLmXlqOiC2XXT1BAw6mWbsaAwno5mJ7kNsG+nq22yY8zOaMQxOcrcxExU3QExL6a4nzOlHI+bC0QhmpuGI6S66mwhzBtGE1+vCSfZmZqY1iGk83a2GOefQgG8PhaMLmKnaIpaL6a4kBGMuYPLV9IOzQmaq3yOWfoyiM4w5l8l3C5ydz4z1WQgx9GcUI2BMXybd8mw4qr+Vmas/YhjAKObCmA5Mts1N4WwSM9gixDCQUWyAMc2ZZH9vBmeHlDGDVTRFdAMZRUVdmJITZlKtaggXi5jRrkF0gxhNTxizi8m0uC5cnMrMtgTRncloroUxW5hE94bgotFWZraiEKI6i9HMgjGvMnmmwNVDzHTHIaqzGc0zMGYpk6VmDFydz4w3EVFdymjegjEPMEk2nwhXrXYw461BVBMYTTGMmcakqJ5WH66yljPzVR6AaOYxqmYwZRST4d1eiOIW2mAgonmRUR0LU86g/6qm1EUUQ8K0wSxE8z6jGgJTDqbv3uqOaHqW0QrvIJo9jGo8jCmmv14fmoNoWn9BS7SEu+aMbjaM2UAfVT91IqLLe4O2GAx3xzK6B2HMw/TN7jvaIIb6L9Ea/wt3QxjdYhgznj75YEwjxFJvBe3xGNzNZHR/gTFn0wefPzriMMRW9wVapBDuXmN062HMkaylbxdd0w6e1FlGm+zJhpu8Kka3CcbkVDARZf/Y8PyD024YPqBTFjzKW0a7HA43pzCGbTCnbr0E1EHcWm6gZc6Em4mMYRcyztHbaJsb4WY5Y6hGpun/Ha3zIFxk72YMFcgw11XTPq/DxTGMZRcySsGfaaPiLDibwli+QCb5+Ze0UwGcfcJYPkLmqHdnmJZqC0fHM6Z3kDGOf5vW6gFHf2RMryNDNH8gTHudBiehrxjTamSE0PVFtNlgODmDsS1HJjh1I+02Ak4eYGwLEXynr6XtxsBB4+8Y2zQE3cD1lFvhYBw9uBaBVvfiNyjkLESq8wU96I8A63TnDsq/PIBII+jFUQiqRleup3xvCSJkvUsPwvUQSO3Grqqk/OAlRDiLXnyB4Gk6YNYWyj5WIMJaerEOgVKn1/WPfUiJsAz7O4WePIr0l9O41RHdTrvytodWb62mOFqM/WT/Hz25CcmTu6TIDxWUmJ7Afn5Jb05G0mQ/STHlIeyr8df0pCoPSXMvxZh7sa8Z9GYDkmYGxZw52MeRlfTmTiTLzRSDpmIfy+jRECTJKIpJY7G3IfTqYCTHiDDFpIuxl5Y76NGnSI4LqilGnYK9PEevFiAp+ldSzGqPH11Fz4YjGfqWUQzLxw/afEevKvORBN13Uwwrxw+yV9Oz5UiCDt9STNuKH0yid1fBfz/9nGLcSvzXoDA9qy6A71p9TDFvDr53ZBG9ewm+K3iXkgLX4j8O2MQ4XA2/5W2gpMIp+I/FjENNc/gs+1lKSvwE/zaB8VgFv82mpMQu/NtIxmUIfDaWkhqv4F8uCzMe23Lgr/NqKKlxN/7pgmrGZRz8dVwZJUWGARhUybiU5sNXh39NSZU2wM/KGZ+74Kummymp8gXQp5TxCbeDn+qupaTMQvTczTg9Bz9lPUlJnVFddjJep8NPt1NS6NLtjNdb8NPVlFTazrgNgo/6V1OCZSV81LWYUZSvvmXAiV3a9ho2+blKSnoId4N/Dv6c7jZfUQ8/KLiukJIOHoJ/8grpauuF2dhH1mXbKSlXdhD88yRdLclHhMb3UVJtMvwznm7CY+BoIiW1tjeEb/rX0M0YuLg2TEmlkfDNEbvo5vdwdTslhd4OwS8N36WbFXCXs46SMlU94JesZ+hmT1tEcUgJJVVug29uo6uJiGo6JUUKc+GXwWG6KW2IqFqWU1KiojP80qmYrh5DDPdSUuK38Ev+h3TXDzGcTUmF9SH4JLSC7spDiCG/hmJeWTv4ZTqj2ISY3qSYNxp+uYTRPI2YFlCMW5kFn3QtYzRTEdN8imlbm8EnjbYwqmmIaTbFsNJu8MtCRnc3YppJMewi+OVXjOFxxPQ0xayp8Ev3CsawFjFtohj1QjZ80uRjxlJRHzFkl1NM+qAJ/PI0YzsNMfSmmPRde/hlND2YihjmUQwKnw2/9KqkBzsaIKp6RRSDboJfDtxKT0YjqmsoBk2HX7KepTef5iGKFrso5syFb26gV/MRxaMUcx7Jgl9OqKJnw+BqOMWcxSH4peBTelfSGy4GVVGMeaEO/FJ/HeNRdhYcnV5GMWZ1ffglZwnjU/2rLEQI3VZDMea1hvDLcW8xbuu6YD+d1lDM2ZgPnzSaU8MEVN93AvbSc0mYYs47LeCP7PM/Y6K2/O7co3KAei3P/ePbFJPW5cMXLSd8wtqp3FlFMW1ZHmrvwFPH/rmKEkAP5yBh2UcNveH2exf/9e0vKQE1IwsJanjNmmJKwN2IBHW86ztK0FVfgcTUn15DCbw9ZyExvT+gBF9RHyQk984wJfi2Ho3E3ErJAC81RWK6VlKCb1oICVpLCbzSi5CozpTA++hoJGw2JeiW5yNheUWUgJuSjcRdQQm24vNQG8spgfZBB9TGAeWUIFvYGLUymBJguy9DLT1ACa61h6GWsr+mBFXlTdmoreMpQfV+D9TeFEpAzc2DD96hBNL2QfBDG0ogLW0OX1xPCaDSkfDJXyjBs/II+KRRJSVovrkMvhlMCZr5TeGfaZRgee8k+OllSpCU31wHfsr+jhIgK4+Ev9pTguOby+C3yyiBMb8pfDebEhDvn4QkWEsJhB2jc5EMmykBUDEzH8nxNSX9LTocyVJJSXfrT0Ty7KSkt08uykISvUdJZ0Xj6iKpVlDSV9XsAiTZryhp65l2SLrmVZT0tPZkmHAjJQ19ObUdDLmfkmYql5yZA3NOe4WSLsref3HeqOYwrOmxQ0eNllS77rwezSAiIiIiIiIiIiIiIiIiIiIiIiIiIiIiIiIiIiIiIiIiIiIiIiIiIiIiIiIiIiIiIiIiIiIiIiIiIiIiIiIiIiIiIiIiIiIiIiIiIiIiIiIiIiIiIiIiIiIiZvw/FxIVf9EsnMQAAAAASUVORK5CYII=;" parent="51" vertex="1">
                    <mxGeometry x="81.6254521846929" width="28.373150983258654" height="28.373150983258654" as="geometry"/>
                </mxCell>
            </root>
        </mxGraphModel>
    </diagram>
</mxfile>